<?xml version="1.0" standalone="no"?>
<!DOCTYPE svg PUBLIC "-//W3C//DTD SVG 20010904//EN"
 "http://www.w3.org/TR/2001/REC-SVG-20010904/DTD/svg10.dtd">
<svg version="1.0" xmlns="http://www.w3.org/2000/svg"
 width="700.000000pt" height="700.000000pt" viewBox="0 0 700.000000 700.000000"
 preserveAspectRatio="xMidYMid meet">
<metadata>
Created by potrace 1.14, written by Peter Selinger 2001-2017
</metadata>
<g transform="translate(0.000000,700.000000) scale(0.100000,-0.100000)"
fill="#000000" stroke="none">
<path d="M0 3500 l0 -3500 3500 0 3500 0 0 3500 0 3500 -3500 0 -3500 0 0
-3500z m3680 1775 c52 -14 145 -50 205 -80 290 -142 466 -377 535 -713 19 -96
20 -136 20 -1163 0 -878 -2 -1065 -13 -1076 -11 -12 -31 -11 -120 2 -410 61
-704 304 -831 685 -63 192 -60 123 -63 1289 -3 845 -1 1066 9 1078 17 21 134
11 258 -22z m-1458 -1002 c17 -15 18 -60 18 -1015 l0 -998 -25 -12 c-18 -8
-46 -8 -111 1 -339 47 -629 258 -779 566 -85 173 -100 244 -99 460 0 166 3
187 28 270 115 381 413 652 802 729 96 19 144 19 166 -1z m1090 0 c17 -15 18
-60 18 -1015 l0 -998 -25 -12 c-35 -16 -176 5 -290 43 -372 124 -639 442 -695
828 -17 113 -8 294 19 401 31 122 116 288 198 389 150 187 369 318 609 365 96
19 144 19 166 -1z m1483 -14 c94 -24 237 -89 326 -149 87 -59 215 -189 274
-279 193 -294 223 -682 76 -996 -108 -230 -300 -417 -525 -512 -141 -60 -358
-100 -391 -73 -13 11 -15 133 -15 1006 l0 994 21 21 c19 19 28 21 88 15 36 -4
102 -16 146 -27z m1001 -1603 c145 -67 168 -262 45 -368 -145 -124 -365 -21
-364 170 0 167 166 270 319 198z"/>
</g>
</svg>
