<?xml version="1.0" standalone="no"?>
<!DOCTYPE svg PUBLIC "-//W3C//DTD SVG 1.1//EN" "http://www.w3.org/Graphics/SVG/1.1/DTD/svg11.dtd" >
<svg xmlns="http://www.w3.org/2000/svg">
<metadata></metadata>
<defs>
<font id="mr_alexbold" horiz-adv-x="903" >
<font-face units-per-em="2048" ascent="1638" descent="-410" />
<missing-glyph horiz-adv-x="409" />
<glyph horiz-adv-x="0" />
<glyph horiz-adv-x="682" />
<glyph horiz-adv-x="0" />
<glyph horiz-adv-x="0" />
<glyph unicode="&#xd;" horiz-adv-x="0" />
<glyph unicode=" "  horiz-adv-x="409" />
<glyph unicode="&#x09;" horiz-adv-x="409" />
<glyph unicode="&#xa0;" horiz-adv-x="409" />
<glyph unicode="!" horiz-adv-x="462" d="M102 51v154q0 51 52 51h153q51 0 51 -51v-154q0 -51 -51 -51h-153q-52 0 -52 51zM102 1587q0 51 52 51h155q51 0 51 -51l-12 -1147q0 -51 -51 -51h-131q-51 0 -51 51z" />
<glyph unicode="&#x22;" horiz-adv-x="679" d="M63 1587q-3 51 52 51h123q54 0 51 -51l-10 -276q-3 -51 -52 -51h-102q-26 0 -37.5 12t-13.5 39zM391 1587q-3 51 51 51h123q54 0 51 -51l-10 -276q-2 -27 -13.5 -39t-37.5 -12h-102q-49 0 -52 51z" />
<glyph unicode="#" horiz-adv-x="1572" d="M63 492l29 133q6 27 19 39t39 12h163q24 0 36 9t16 32l51 225q5 24 -1.5 32.5t-29.5 8.5h-172q-28 0 -42.5 13t-8.5 38l28 133q6 27 19 39.5t39 12.5h188q23 0 34 9t17 32l80 327q13 51 58 51h143q26 0 38.5 -14t6.5 -37l-80 -327q-6 -23 1 -32t30 -9h231q23 0 34.5 9 t17.5 32q36 150 81 327q12 51 58 51h141q26 0 38.5 -14t6.5 -37l-76 -327q-5 -24 1.5 -32.5t29.5 -8.5h131q27 0 41 -13.5t10 -38.5l-24 -133q-9 -51 -58 -51h-151q-23 0 -34 -9t-17 -32q-10 -45 -28.5 -120.5t-25.5 -104.5q-6 -23 1 -32t30 -9h162q27 0 41 -13t10 -38 l-24 -133q-9 -52 -58 -52h-184q-24 0 -35.5 -9t-15.5 -32q-44 -194 -80 -348q-6 -27 -18.5 -39t-38.5 -12h-144q-26 0 -38.5 14t-6.5 37l80 348q6 23 -1 32t-30 9h-231q-23 0 -34 -9t-17 -32q-19 -82 -42 -174.5t-42 -173.5q-6 -27 -19 -39t-39 -12h-143q-26 0 -37.5 14 t-5.5 37l82 348q6 23 -1 32t-30 9h-147q-28 0 -43 13.5t-9 38.5zM608 717q-5 -24 1.5 -32.5t29.5 -8.5h238q24 0 35.5 9t15.5 32l53 225q6 23 -1.5 32t-31.5 9h-235q-23 0 -34 -9t-17 -32z" />
<glyph unicode="$" horiz-adv-x="862" d="M61 266v156q0 51 52 51h133q51 0 51 -51v-47q0 -48 7 -76.5t24.5 -42t36.5 -17t55 -3.5h4q37 0 58 3.5t42.5 16.5t31 42.5t9.5 76.5v227q0 39 -6.5 64t-15.5 38.5t-30 20t-37 7.5t-50 1h-98q-127 0 -197 66.5t-70 201.5v381q0 115 58.5 178t152.5 76q23 3 32 12t9 31v41 q0 52 52 52h133q51 0 51 -52v-41q0 -22 9 -31t32 -12q90 -10 150.5 -74.5t60.5 -179.5v-165q0 -52 -51 -52h-134q-51 0 -51 52v47q0 47 -9.5 76.5t-31 42.5t-42.5 16.5t-58 3.5h-4q-62 0 -92.5 -28.5t-30.5 -110.5v-154q0 -38 7.5 -64.5t18 -40.5t31.5 -21.5t39.5 -9 t50.5 -1.5h91q127 0 196.5 -66t69.5 -200v-441q0 -234 -211 -264q-23 -3 -32 -12t-9 -31v-41q0 -51 -51 -51h-133q-52 0 -52 51v41q0 22 -9 31t-32 12q-94 12 -152.5 75t-58.5 189z" />
<glyph unicode="%" horiz-adv-x="1816" d="M61 1206v164q0 134 70 200t197 66h166q127 0 196.5 -66t69.5 -200v-164q0 -134 -69.5 -200t-196.5 -66h-166q-127 0 -197 66t-70 200zM258 1284q0 -48 9.5 -77t32 -42t44.5 -16.5t62 -3.5h18h-10q41 0 64 3.5t45 16.5t31 42t9 77v15v-7q0 48 -9 77t-31 42.5t-45 17 t-64 3.5h-1h-7q-39 0 -62 -3.5t-45 -17t-31.5 -42.5t-9.5 -77v-8zM602 51q72 297 129 540.5t124.5 538t105.5 457.5q12 51 57 51h143q27 0 39 -13.5t6 -37.5q-285 -1215 -358 -1536q-6 -27 -18.5 -39t-38.5 -12h-144q-27 0 -39 13.5t-6 37.5zM1057 266v164q0 134 69.5 200 t196.5 66h166q127 0 196.5 -66t69.5 -200v-164q0 -134 -69.5 -200t-196.5 -66h-166q-127 0 -196.5 66t-69.5 200zM1253 344q0 -48 9.5 -77t32 -42t44.5 -16.5t62 -3.5h18h-10q33 0 52.5 2t40.5 9.5t32 22t18 40.5t7 65v15v-7q0 48 -9.5 77t-31.5 42.5t-45 17t-64 3.5h-1h-7 q-39 0 -62 -3.5t-45 -17t-31.5 -42.5t-9.5 -77v-8z" />
<glyph unicode="&#x26;" horiz-adv-x="1292" d="M61 266v451q0 79 23 117q8 18 7.5 21t-7.5 19q-23 58 -23 127v371q0 134 70 200t197 66h204q127 0 197 -66t70 -200v-155q0 -52 -51 -52h-134q-51 0 -51 52v47q0 50 -6.5 78.5t-24 41.5t-35 16t-53.5 3h-8q-42 0 -63.5 -3.5t-41 -17t-27 -42t-7.5 -76.5v-273 q0 -38 11.5 -49.5t49.5 -11.5h125q52 0 52 -51v-134q0 -51 -52 -51h-125q-38 0 -49.5 -11.5t-11.5 -49.5v-258q0 -48 9.5 -77t31.5 -42t44 -16.5t62 -3.5h279q41 0 64 3.5t45 16.5t31 42t9 77v278q0 21 -6.5 30.5t-23.5 10.5h-62q-51 0 -51 51v134q0 51 51 51h62 q17 1 23.5 10.5t6.5 30.5v61q0 51 52 51h133q27 0 39 -12t12 -39v-71q1 -17 10.5 -24t30.5 -7h51q51 0 51 -51v-134q0 -51 -51 -51h-51q-21 0 -30.5 -6.5t-10.5 -23.5v-398q0 -134 -69.5 -200t-196.5 -66h-514q-127 0 -197 66t-70 200z" />
<glyph unicode="'" horiz-adv-x="352" d="M63 1587q-3 51 52 51h123q54 0 51 -51l-10 -276q-3 -51 -52 -51h-102q-26 0 -37.5 12t-13.5 39z" />
<glyph unicode="(" horiz-adv-x="595" d="M102 92v1454q0 112 61 169t165 57h176q51 0 51 -52v-133q0 -51 -51 -51h-19q-40 0 -62 -3.5t-44 -16.5t-31.5 -42t-9.5 -77v-1155q0 -48 9.5 -77t31.5 -42.5t44.5 -17t61.5 -3.5h19q51 0 51 -51v-133q0 -51 -51 -51h-176q-104 0 -165 56.5t-61 168.5z" />
<glyph unicode=")" horiz-adv-x="595" d="M41 51q0 51 51 51h19q39 0 61.5 3.5t44.5 17t31.5 42.5t9.5 77v1155q0 48 -9.5 77t-31.5 42t-44 16.5t-62 3.5h-19q-51 0 -51 51v133q0 52 51 52h176q104 0 165 -57t61 -169v-1454q0 -112 -61 -168.5t-165 -56.5h-176q-51 0 -51 51v133z" />
<glyph unicode="*" horiz-adv-x="722" d="M68 1401l22 65q18 52 68 35l82 -28q22 -7 29 -1.5t7 29.5v113q0 26 10 35.5t36 9.5h84q26 0 35.5 -9.5t9.5 -35.5v-113q0 -24 7 -29.5t29 1.5l82 26q53 18 68 -33l18 -65q17 -56 -34 -68l-68 -18q-24 -7 -28.5 -16t10.5 -31l67 -86q31 -37 -10 -70l-62 -49 q-39 -31 -67 10l-76 101q-25 35 -49 0l-74 -101q-28 -34 -63 -10l-68 49q-40 27 -6 70l63 82q11 12 8 24.5t-18 16.5l-82 28q-46 16 -30 68z" />
<glyph unicode="+" horiz-adv-x="796" d="M61 791v129q0 26 12.5 36.5t39.5 10.5h114q34 0 46 11.5t12 45.5v115q0 51 51 51h125q51 0 51 -51v-115q0 -34 11.5 -45.5t45.5 -11.5h115q51 0 51 -52v-124q0 -52 -51 -52h-115q-34 0 -45.5 -11.5t-11.5 -45.5v-115q0 -51 -51 -51h-125q-51 0 -51 51v115q0 34 -12 45.5 t-46 11.5h-114q-52 0 -52 52z" />
<glyph unicode="," horiz-adv-x="378" d="M61 51v154q0 51 52 51h153q51 0 51 -51v-266q0 -154 -186 -148q-21 0 -29 11t-8 34v21q0 23 6.5 28.5t30.5 8.5q20 3 28.5 18t8.5 51q0 16 -8.5 24t-17.5 10t-29 3q-52 3 -52 51z" />
<glyph unicode="-" horiz-adv-x="681" d="M41 786v134q0 51 51 51h498q51 0 51 -51v-134q0 -51 -51 -51h-498q-51 0 -51 51z" />
<glyph unicode="." horiz-adv-x="378" d="M61 51v154q0 51 52 51h153q51 0 51 -51v-154q0 -51 -51 -51h-153q-52 0 -52 51z" />
<glyph unicode="/" horiz-adv-x="690" d="M43 51q71 295 129 544t123 532t106 460q12 51 58 51h143q27 0 39 -13.5t6 -37.5q-285 -1215 -358 -1536q-6 -27 -19 -39t-39 -12h-143q-27 0 -39 13.5t-6 37.5z" />
<glyph unicode="0" horiz-adv-x="944" d="M102 266v1106q0 134 70 200t197 66h206q127 0 197 -66t70 -200v-1106q0 -134 -70 -200t-197 -66h-206q-127 0 -197 66t-70 200zM338 412q0 -5 1.5 -7t3.5 -0.5t3 7.5l174 952q3 21 -5 30t-32 9h-18q-70 0 -98.5 -32.5t-28.5 -127.5v-831zM428 285q-5 -27 4 -38t39 -11h1 h5q73 0 101 32t28 127v809q0 6 -1.5 10t-4 2t-4.5 -10q-24 -133 -87 -478t-81 -443z" />
<glyph unicode="1" horiz-adv-x="747" d="M61 51v133q0 52 52 52h82q34 0 47.5 13.5t13.5 47.5v1044q-2 34 -15 48t-46 14h-82q-52 0 -52 51v133q0 51 52 51h307q41 0 56.5 -15t15.5 -56v-1270q1 -33 15.5 -47t45.5 -14h82q51 0 51 -52v-133q0 -51 -51 -51h-522q-52 0 -52 51z" />
<glyph unicode="2" horiz-adv-x="851" d="M61 1217v155q0 134 70 200t197 66h207q127 0 196.5 -66t69.5 -200v-235q0 -235 -312 -385q-37 -17 -64.5 -41t-44 -56t-26.5 -59.5t-14 -70.5t-5 -69t-1 -73v-86q0 -34 13.5 -47.5t47.5 -13.5h365q51 0 51 -52v-133q0 -51 -51 -51h-590q-41 0 -56.5 15.5t-15.5 56.5v444 q0 140 39.5 231.5t153.5 155.5q10 6 51.5 27.5t62.5 34t56.5 40.5t54.5 56t34 71t15 93v39q0 48 -7 76.5t-25.5 42t-39 17t-59.5 3.5q-45 0 -67 -3t-40.5 -17.5t-24 -41.5t-5.5 -77v-47q0 -52 -51 -52h-133q-52 0 -52 52z" />
<glyph unicode="3" horiz-adv-x="882" d="M61 266v156q0 51 52 51h133q51 0 51 -51v-47q0 -48 9.5 -77t32.5 -42t46 -16.5t64 -3.5q64 0 90 29t26 110v278q0 49 -16.5 65.5t-65.5 16.5h-166q-51 0 -51 51v134q0 51 51 51h166q49 0 65.5 16.5t16.5 65.5v211q0 81 -26 110t-90 29q-41 0 -64 -3.5t-46 -16.5 t-32.5 -42t-9.5 -77v-47q0 -52 -51 -52h-133q-52 0 -52 52v155q0 134 70 200t197 66h207q127 0 196.5 -66t69.5 -200v-371q0 -69 -23 -127q-7 -16 -7.5 -19t7.5 -21q23 -41 23 -129v-439q0 -134 -69.5 -200t-196.5 -66h-207q-127 0 -197 66t-70 200z" />
<glyph unicode="4" horiz-adv-x="956" d="M30.5 575.5q-19.5 40.5 4.5 110.5l332 881q28 71 102 71h262q51 0 51 -51v-756q0 -34 14 -47.5t48 -13.5h20q51 0 51 -51v-133q0 -51 -51 -51h-20q-34 0 -48 -14t-14 -48v-422q0 -51 -51 -51h-133q-51 0 -51 51v422q0 34 -14 48t-48 14h-387q-48 0 -67.5 40.5zM324.5 776 q6.5 -6 42.5 -6h129q34 0 42.5 8.5t8.5 42.5v486q0 12 -4.5 15.5t-10.5 -0.5t-10 -13l-196 -498q-8 -29 -1.5 -35z" />
<glyph unicode="5" horiz-adv-x="862" d="M61 266v156q0 51 52 51h133q51 0 51 -51v-47q0 -48 9.5 -77t32.5 -42t46 -16.5t64 -3.5q64 0 90 29t26 110v289q0 47 -12.5 76.5t-39 42.5t-51 16.5t-65.5 3.5h-219q-41 0 -56.5 15t-15.5 56v693q0 41 15.5 56t56.5 15h551q51 0 51 -51v-133q0 -51 -51 -51h-305 q-82 0 -82 -62v-241q0 -62 82 -62h111q127 0 196.5 -66t69.5 -200v-506q0 -134 -69.5 -200t-196.5 -66h-207q-127 0 -197 66t-70 200z" />
<glyph unicode="6" horiz-adv-x="892" d="M82 266v1106q0 134 69.5 200t196.5 66h207q127 0 196.5 -66t69.5 -200v-155q0 -52 -51 -52h-133q-51 0 -51 52v47q0 48 -8.5 77t-28 42t-39.5 16.5t-55 3.5q-34 0 -54.5 -3.5t-42 -16.5t-31.5 -42.5t-10 -76.5v-234q0 -34 12 -46.5t46 -12.5h35h145q127 0 196.5 -66 t69.5 -200v-439q0 -134 -69.5 -200t-196.5 -66h-207q-127 0 -196.5 66t-69.5 200zM317 375q0 -47 7.5 -75t26.5 -42t40.5 -18t59.5 -4t59.5 4t41 17.5t27 42t7.5 75.5v221q0 47 -7.5 75.5t-27 42t-41 17.5t-59.5 4t-59.5 -4t-40.5 -18t-26.5 -42t-7.5 -75v-221z" />
<glyph unicode="7" horiz-adv-x="733" d="M61 1454v133q0 51 52 51h520q95 0 76 -82l-338 -1505q-8 -34 -19.5 -42.5t-40.5 -8.5h-145q-57 0 -45 51q53 223 147.5 637.5t151.5 652.5q10 40 0.5 51t-58.5 11h-249q-52 0 -52 51z" />
<glyph unicode="8" horiz-adv-x="944" d="M82 266v428q0 92 43 150q2 3 6 8t4.5 6.5t2 4.5t0.5 5.5t-2.5 6.5t-4.5 10q-29 53 -29 127v360q0 134 70 200t197 66h206q127 0 197 -66t70 -200v-360q0 -79 -29 -127q-8 -19 -7.5 -20.5t13.5 -20.5q43 -51 43 -150v-428q0 -134 -69.5 -200t-196.5 -66h-248 q-127 0 -196.5 66t-69.5 200zM317 375q0 -48 9.5 -77t32 -42t44.5 -16.5t62 -3.5h12q33 0 52.5 2t40.5 9.5t32 22t18 40.5t7 65v221q0 82 -29 109.5t-94 29.5h-66q-62 -2 -91.5 -29.5t-29.5 -109.5v-221zM338 1110q0 -86 27.5 -111.5t105.5 -27.5q42 0 63.5 3.5t40 17 t25 41.5t6.5 77v154q0 49 -6.5 77t-25 41.5t-40 17t-63.5 3.5t-63 -3.5t-39.5 -17t-24.5 -41.5t-6 -77v-154z" />
<glyph unicode="9" horiz-adv-x="892" d="M72 266v156q0 27 12 39t39 12h133q51 0 51 -51v-47q0 -49 6 -77t24 -41.5t38.5 -17t60.5 -3.5q36 0 56.5 2t43 9.5t34 22t19 40.5t7.5 65v301q0 35 -15 47t-42 12h-35h-166q-127 0 -196.5 66t-69.5 200v371q0 134 69.5 200t196.5 66h207q127 0 196.5 -66t69.5 -200v-1106 q0 -134 -69.5 -200t-196.5 -66h-207q-127 0 -196.5 66t-69.5 200zM307 1110q0 -49 6.5 -77t25.5 -41.5t41 -17t66 -3.5q40 0 60.5 3.5t38.5 17t24 41.5t6 77v154q0 49 -6 77t-25.5 41.5t-42 17t-67.5 3.5q-39 0 -59 -3.5t-37.5 -17t-24 -41.5t-6.5 -77v-154z" />
<glyph unicode=":" horiz-adv-x="378" d="M61 51v154q0 51 52 51h153q51 0 51 -51v-154q0 -51 -51 -51h-153q-52 0 -52 51zM61 778v154q0 51 52 51h153q51 0 51 -51v-154q0 -51 -51 -51h-153q-52 0 -52 51z" />
<glyph unicode=";" horiz-adv-x="378" d="M61 51v154q0 51 52 51h153q51 0 51 -51v-266q0 -154 -186 -148q-21 0 -29 11t-8 34v21q0 23 6.5 28.5t30.5 8.5q20 3 28.5 18t8.5 51q0 16 -8.5 24t-17.5 10t-29 3q-52 3 -52 51zM61 778v154q0 51 52 51h153q51 0 51 -51v-154q0 -51 -51 -51h-153q-52 0 -52 51z" />
<glyph unicode="&#x3c;" horiz-adv-x="897" d="M61 803v106q0 40 11.5 63.5t44.5 37.5l647 284q24 10 37.5 0t13.5 -37v-153q0 -47 -51 -70l-307 -143q-29 -13 -29 -32.5t29 -33.5l307 -145q51 -23 51 -70v-153q0 -27 -13.5 -37t-37.5 0l-647 285q-33 14 -44.5 36.5t-11.5 61.5z" />
<glyph unicode="=" horiz-adv-x="743" d="M72 592v133q0 51 51 51h498q51 0 51 -51v-133q0 -51 -51 -51h-498q-51 0 -51 51zM72 981v133q0 51 51 51h498q51 0 51 -51v-133q0 -51 -51 -51h-498q-51 0 -51 51z" />
<glyph unicode="&#x3e;" horiz-adv-x="897" d="M82 457v153q0 47 51 70l307 145q29 13 29 33t-29 33l-307 143q-51 23 -51 70v153q0 27 13.5 37t37.5 0l647 -284q33 -14 44.5 -37.5t11.5 -63.5v-106q0 -39 -11.5 -61.5t-44.5 -36.5l-647 -285q-24 -10 -37.5 0t-13.5 37z" />
<glyph unicode="?" horiz-adv-x="821" d="M41 1217v155q0 134 69.5 200t196.5 66h207q127 0 196.5 -66t69.5 -200v-321q0 -105 -46 -172t-128 -119q-60 -39 -72 -52q-30 -32 -33 -113q-1 -16 -1 -36v-119q0 -51 -51 -51h-136q-51 0 -51 51v170q0 119 41.5 184t134.5 115q64 35 85.5 75.5t21.5 135.5v144 q0 48 -8.5 77.5t-29 42t-40 16t-55.5 3.5h-2q-32 0 -51.5 -3.5t-41 -16t-31.5 -42t-10 -77.5v-47q0 -52 -51 -52h-133q-51 0 -51 52zM254 51v154q0 51 51 51h154q51 0 51 -51v-154q0 -51 -51 -51h-154q-51 0 -51 51z" />
<glyph unicode="@" horiz-adv-x="1394" d="M82 266v1106q0 134 69.5 200t196.5 66h699q127 0 196.5 -66t69.5 -200v-774v-14q-2 -126 -67 -196.5t-199 -70.5h-371q-134 0 -200 70t-66 197v471q0 127 66 196.5t200 69.5h43q134 0 200 -69.5t66 -196.5v-506q0 -10 1.5 -17t11 -13.5t26.5 -6.5h6q62 0 80 34.5 t18 112.5v635q0 48 -9.5 77t-31.5 42.5t-44.5 17t-61.5 3.5h-545q-41 0 -64 -3.5t-45 -17t-31 -42.5t-9 -77v-950q0 -48 9.5 -77t31.5 -42t44 -16.5t62 -3.5h828q51 0 51 -51v-103q0 -51 -51 -51h-914q-127 0 -196.5 66t-69.5 200zM604 628q0 -8 1 -28.5t3 -27t6 -20 t10.5 -18t15.5 -11.5t22 -9t30 -2h10q26 0 43.5 7.5t26.5 17t13.5 33t5 39.5t0.5 53v317q0 36 -0.5 51t-5 38.5t-13.5 33t-26.5 17t-43.5 7.5h-10q-17 0 -30 -2t-22 -9t-15.5 -11.5t-10.5 -18t-6 -20t-3 -26t-1 -27.5v-33v-317v-34z" />
<glyph unicode="A" horiz-adv-x="917" d="M43 51l244 1536q5 28 17 39.5t40 11.5h229q28 0 40.5 -12t17.5 -39l243 -1536q1 -5 1 -9q0 -16 -10 -28q-12 -14 -38 -14h-147q-48 0 -55 51q0 3 -8 41.5t-15 81.5q-5 27 -18 39t-43 12h-164q-31 0 -44 -12t-18 -39q-5 -32 -9.5 -57t-8 -42t-4.5 -24q-7 -51 -55 -51h-148 q-26 0 -38 14q-10 12 -10 28q0 4 1 9zM348 522q-1 -6 -1 -12q0 -20 8 -28q10 -12 42 -11h123q32 -1 42 11q8 9 8 28q0 6 -1 12q-47 375 -94 674q-1 10 -9 16q-5 3 -9 3l-5 -1q-8 -4 -10 -18q-47 -299 -94 -674z" />
<glyph unicode="B" horiz-adv-x="917" d="M102 72v1495q0 41 15.5 56t56.5 15h381q127 0 196.5 -66t69.5 -200v-360q0 -47 -35 -119q-9 -18 5 -35q65 -69 65 -164v-428q0 -134 -69.5 -200t-196.5 -66h-416q-34 0 -53 19t-19 53zM338 297q0 -34 13.5 -47.5t47.5 -13.5h72q33 0 52.5 2t40.5 9.5t32 22t18 40.5t7 65 v221q0 83 -30 110t-97 29h-95q-34 0 -47.5 -13.5t-13.5 -47.5v-377zM338 1032q0 -34 13.5 -47.5t47.5 -13.5h37q33 0 52.5 2t40.5 9.5t32 22t18 40.5t7 65v154q0 39 -7 65t-18 40.5t-32 22t-40.5 9.5t-52.5 2h-37q-34 0 -47.5 -14t-13.5 -48v-309z" />
<glyph unicode="C" horiz-adv-x="860" d="M82 266v1106q0 134 69.5 200t196.5 66h205q127 0 196.5 -66t69.5 -200v-155q0 -52 -51 -52h-133q-51 0 -51 52v47q0 88 -23 113.5t-110 25.5q-39 0 -59.5 -3.5t-40 -17t-27 -42t-7.5 -76.5v-889q0 -48 7.5 -76.5t27 -42t40 -17t59.5 -3.5q32 0 46.5 1t35 8t29 21t15.5 41 t7 68v47q0 51 51 51h133q27 0 39 -12t12 -39v-156q0 -134 -69.5 -200t-196.5 -66h-205q-127 0 -196.5 66t-69.5 200z" />
<glyph unicode="D" horiz-adv-x="921" d="M102 72v1495q0 41 15.5 56t56.5 15h399q127 0 197 -66t70 -200v-1106q0 -134 -70 -200t-197 -66h-399q-41 0 -56.5 15.5t-15.5 56.5zM338 297q0 -38 11.5 -49.5t49.5 -11.5h56q41 0 64 3.5t45 16.5t31 42t9 77v889q0 48 -9 77t-31 42t-45 16.5t-64 3.5h-56 q-38 0 -49.5 -12t-11.5 -50v-1044z" />
<glyph unicode="E" horiz-adv-x="739" d="M102 72v1495q0 41 15.5 56t56.5 15h453q51 0 51 -51v-133q0 -51 -51 -51h-228q-34 0 -47.5 -14t-13.5 -48v-309q0 -34 13.5 -47.5t47.5 -13.5h152q51 0 51 -51v-134q0 -51 -51 -51h-152q-34 0 -47.5 -13.5t-13.5 -47.5v-377q0 -34 13.5 -47.5t47.5 -13.5h228q51 0 51 -52 v-133q0 -51 -51 -51h-453q-41 0 -56.5 15.5t-15.5 56.5z" />
<glyph unicode="F" horiz-adv-x="718" d="M102 51v1516q0 41 15.5 56t56.5 15h453q51 0 51 -51v-133q0 -51 -51 -51h-228q-34 0 -47.5 -14t-13.5 -48v-309q0 -34 13.5 -47.5t47.5 -13.5h152q51 0 51 -51v-134q0 -51 -51 -51h-152q-34 0 -47.5 -13.5t-13.5 -47.5v-623q0 -51 -51 -51h-133q-52 0 -52 51z" />
<glyph unicode="G" horiz-adv-x="901" d="M82 266v1106q0 134 69.5 200t196.5 66h205q127 0 196.5 -66t69.5 -200v-155q0 -52 -51 -52h-133q-51 0 -51 52v47q0 88 -23 113.5t-110 25.5q-39 0 -59.5 -3.5t-40 -17t-27 -42t-7.5 -76.5v-889q0 -48 7.5 -76.5t27 -42t40 -17t59.5 -3.5q32 0 46.5 1t35 8t29 21t15.5 41 t7 68v299q0 34 -14 47.5t-48 13.5h-49q-51 0 -51 51v134q0 51 51 51h275q41 0 56 -15.5t15 -56.5v-633q0 -134 -69.5 -200t-196.5 -66h-205q-127 0 -196.5 66t-69.5 200z" />
<glyph unicode="H" horiz-adv-x="944" d="M102 51v1536q0 51 52 51h133q51 0 51 -51v-545q0 -38 17 -54.5t55 -16.5h125q38 0 54.5 16.5t16.5 54.5v545q0 51 51 51h134q51 0 51 -51v-1536q0 -51 -51 -51h-134q-51 0 -51 51v613q0 38 -16.5 54.5t-54.5 16.5h-125q-38 0 -55 -16.5t-17 -54.5v-613q0 -51 -51 -51 h-133q-52 0 -52 51z" />
<glyph unicode="I" horiz-adv-x="440" d="M102 51v1536q0 51 52 51h133q51 0 51 -51v-1536q0 -51 -51 -51h-133q-52 0 -52 51z" />
<glyph unicode="J" horiz-adv-x="860" d="M41 266v156q0 27 12 39t39 12h133q51 0 51 -51v-47q0 -48 7.5 -76.5t27 -42t40 -17t59.5 -3.5q32 0 46.5 1t35 8t29 21t15.5 41t7 68v966q0 34 -14 48t-48 14h-319q-51 0 -51 51v133q0 51 51 51h545q41 0 56 -15t15 -56v-1301q0 -134 -69.5 -200t-196.5 -66h-205 q-127 0 -196.5 66t-69.5 200z" />
<glyph unicode="K" horiz-adv-x="921" d="M102 51v1536q0 51 52 51h133q51 0 51 -51v-547q0 -20 12 -22.5t19 16.5l254 563q12 25 23.5 33t37.5 8h147q46 0 46 -23q0 -8 -5 -18l-313 -710q-7 -17 -7 -28t7 -30l346 -788q5 -11 5 -19q0 -9 -6 -13q-12 -9 -42 -9h-147q-26 0 -38 8t-24 33l-284 637q-7 19 -19 17.5 t-12 -21.5v-623q0 -51 -51 -51h-133q-52 0 -52 51z" />
<glyph unicode="L" horiz-adv-x="718" d="M102 72v1515q0 51 52 51h133q51 0 51 -51v-1290q0 -34 13.5 -47.5t47.5 -13.5h228q51 0 51 -52v-133q0 -51 -51 -51h-453q-41 0 -56.5 15.5t-15.5 56.5z" />
<glyph unicode="M" horiz-adv-x="1060" d="M102 51v1536q0 51 52 51h122q30 0 43.5 -9t32.5 -38q123 -193 158 -250q9 -14 20.5 -14.5t20.5 14.5q52 87 158 250q16 27 30.5 37t44.5 10h123q51 0 51 -51v-1536q0 -51 -51 -51h-133q-51 0 -51 51v1069q0 46 -16 41q-8 -2 -17 -16q-20 -33 -66.5 -110.5t-66.5 -108.5 q-12 -20 -27.5 -20t-27.5 20q-9 16 -34 56.5t-50.5 82.5t-48.5 80q-21 33 -28 5q-3 -11 -3 -30v-1069q0 -51 -51 -51h-133q-52 0 -52 51z" />
<glyph unicode="N" horiz-adv-x="1011" d="M102 51v1536q0 51 52 51h145q73 0 90 -65q55 -194 264 -914q6 -23 13 -26.5t10.5 5.5t3.5 21l-6 928q0 51 51 51h133q51 0 51 -51v-1536q0 -51 -51 -51h-139q-72 0 -90 66q-199 731 -264 946q-7 25 -17 23q-10 -3 -10 -38v-946q0 -51 -51 -51h-133q-52 0 -52 51z" />
<glyph unicode="O" d="M82 266v1106q0 134 69.5 200t196.5 66h207q127 0 196.5 -66t69.5 -200v-1106q0 -134 -69.5 -200t-196.5 -66h-207q-127 0 -196.5 66t-69.5 200zM317 395q0 -95 28 -127t99 -32h14h-1q73 0 101 32t28 127v848q0 95 -28 127.5t-101 32.5h-2h2h2h3h3h2h2h2h1h1h2h1h1h1h1h1 h1h1h-1h-1h-1h-1h-1h-1h-1h-1h-1h-1h-1h-1h-1h-1h-1h-1h-1h-1h-1h-1h-1h-1h-1h-1h-1h-1h-1h-1h-10q-70 0 -98.5 -32.5t-28.5 -127.5v-848z" />
<glyph unicode="P" horiz-adv-x="862" d="M102 51v1516q0 41 15.5 56t56.5 15h381q127 0 196.5 -66t69.5 -200v-371q0 -134 -69.5 -200t-196.5 -66h-156q-34 0 -47.5 -13.5t-13.5 -47.5v-623q0 -51 -51 -51h-133q-52 0 -52 51zM338 1032q0 -34 13.5 -47.5t47.5 -13.5h45q36 0 52 1t37.5 7.5t30.5 20t15.5 38.5 t6.5 64v170q0 39 -6.5 64t-15.5 38.5t-30.5 20t-37.5 7.5t-52 1h-45q-34 0 -47.5 -14t-13.5 -48v-309z" />
<glyph unicode="Q" horiz-adv-x="911" d="M82 266v1106q0 134 69.5 200t196.5 66h207q127 0 196.5 -66t69.5 -200v-1106q0 -109 -20 -153q-13 -32 0 -60q77 -165 78 -166q5 -15 5 -25t-5 -15q-10 -11 -35 -11h-139q-24 0 -37 12t-27 39q-19 38 -43 88q-5 13 -12 19t-23 6h-49h-166q-127 0 -196.5 66t-69.5 200z M317 395q0 -95 28 -127t99 -32h13q73 0 101 32t28 127v1v1v1v1v1v1v1v1v1v1v1v1v1v1v1v1v1v1v1v1v1v1v1v1v1v1v1v1v1v1v1v1v1v1v1v1v1v1v1v1v1v1v1v1v1v1v1v1v1v1v1v1v1v1v1v1v1v1v1v1v1v1v1v1v1v1v1v1v1v1v1v1v1v1v1v1v1v1v1v1v1v1v1v1v1v1v1v1v1v1v1v1v1v1v1v1v1v1v1v1v1 v1v1v1v1v1v1v1v1v1v1v1v1v1v1v1v1v1v1v1v1v1v1v1v1v1v1v1v1v1v1v1v1v1v1v1v1v1v1v1v1v1v1v1v1v1v1v1v1v1v1v1v1v1v1v1v1v1v1v1v1v1v1v1v1v1v1v1v1v1v1v1v1v1v1v1v1v1v1v1v1v1v1v1v1v1v1v1v1v1v1v1v1v1v1v1v1v1v1v1v1v1v1v1v1v1v1v1v1v1v1v1v1v1v1v1v1v1v1v1v1v1v1v1v1v1v1v1 v1v1v1v1v1v1v1v1v1v1v1v1v1v1v1v1v1v1v1v1v1v1v1v1v1v1v1v1v1v1v1v1v1v1v1v1v1v1v1v1v1v1v1v1v1v1v1v1v1v1v1v1v1v1v1v1v1v1v1v1v1v1v1v1v1v1v1v1v1v1v1v1v1v1v1v1v1v1v1v1v1v1v1v1v1v1v1v1v1v1v1v1v1v1v1v1v1v1v1v1v1v1v1v1v1v1v1v1v1v1v1v1v1v1v1v1v1v1v1v1v1v1v1v1v1v1v1 v1v1v1v1v1v1v1v1v1v1v1v1v1v1v1v1v1v1v1v1v1v1v1v1v1v1v1v1v1v1v1v1v1v1v1v1v1v1v1v1v1v1v1v1v1v1v1v1v1v1v1v1v1v1v1v1v1v1v1v1v1v1v1v1v1v1v1v1v1v1v1v1v1v1v1v1v1v1v1v1v1v1v1v1v1v1v1v1v1v1v1v1v1v1v1v1v1v1v1v1v1v1v1v1v1v1v1v1v1v1v1v1v1v1v1v1v1v1v1v1v1v1v1v1v1v1v1 v1v1v1v1v1v1v1v1v1v1v1v1v1v1v1v1v1v1v1v1v1v1v1v1v1v1v1v1v1v1v1v1v1v1v1v1v1v1v1v1v1v1v1v1v1v1v1v1v1v1v1v1v1v1v1v1v1v1v1v1v1v1v1v1v1v1v1v1v1v1v1v1v1v1v1v1v1v1v1v1v1v1v1v1v1v1v1v1v1v1v1v1v1v1v1v1v1v1v1v1v1v1v1v1v1v1v1v1v1v1v1v1v1v1v1v1v1v1v1v1v1v1v1v1v1v1v1 v1v1v1v1v1v1v1v1v1v1v1v1v1v1v1v1v1v1v1v1v1v1v1v1v1v1v1v1v1v1v1v1v1v1v1v1v1v1v1v1v1v1v1v1v1v1v1v1v1v1v1v1v1v1v1v1v1v1v1v1v1v1v1v1v1v1v1v1v1v1v1v1v1v1v1v1v1v1v1v1v1v1v1v1v1v1v1v1v1v1v1v1v1v1v1v1v1v1v1v1v1v1v1v1v1v1v1v1v1v1v1v1v1v1v1v1v1v1v1v1v1v1v1v1v1v1v1 v1v1v1v1v1v1v1v1v1v1v1v1v1v1v1v1v1v1v1v1v1v1v1v1v1v1v1v1v1v1v1v1v1v1v1v1v1v1v1v1v1v1v1v1v1v1v1v1v1v1v1v1v1v1v1v1v1v1v1v1v1v1v1v1v1v1v1v1v1v1v1v1v1v1v1v1v1v1v1v1v1v1v1v1v1v1v1v1v1v1v1v1v1v1v1v1v1v1v1v1v1v1v1v9q0 95 -28 127.5t-101 32.5h-13 q-70 0 -98.5 -32.5t-28.5 -127.5v-848z" />
<glyph unicode="R" horiz-adv-x="911" d="M102 51v1516q0 41 15.5 56t56.5 15h381q127 0 196.5 -66t69.5 -200v-309q0 -62 -21.5 -109.5t-54.5 -72.5q-15 -10 -18 -19.5t0 -32.5q12 -74 42 -269.5t53.5 -348t25.5 -160.5q1 -7 1 -13q0 -38 -48 -38h-144q-48 0 -57 51l-102 643q-3 23 -13.5 32t-33.5 9h-52 q-34 0 -47.5 -13.5t-13.5 -47.5v-623q0 -51 -51 -51h-133q-52 0 -52 51zM338 1032q0 -34 13.5 -47.5t47.5 -13.5h37q33 0 52.5 2t40.5 9.5t32 22t18 40.5t7 65v154q0 39 -7 65t-18 40.5t-32 22t-40.5 9.5t-52.5 2h-37q-34 0 -47.5 -14t-13.5 -48v-309z" />
<glyph unicode="S" horiz-adv-x="862" d="M61 266v156q0 51 52 51h133q51 0 51 -51v-47q0 -83 31.5 -111t103.5 -28q71 0 102 28t31 111v219q0 49 -6.5 77t-24 41.5t-37.5 17t-59 3.5h-110q-127 0 -197 66.5t-70 201.5v371q0 134 70 200t197 66h207q127 0 196.5 -66t69.5 -200v-155q0 -52 -51 -52h-134 q-51 0 -51 52v47q0 83 -31 111t-102 28q-72 0 -103.5 -28t-31.5 -111v-154q0 -38 7.5 -64.5t18 -40.5t31.5 -21.5t39.5 -9t50.5 -1.5h91q127 0 196.5 -66t69.5 -200v-441q0 -134 -69.5 -200t-196.5 -66h-207q-127 0 -197 66t-70 200z" />
<glyph unicode="T" horiz-adv-x="739" d="M20 1454v133q0 51 52 51h596q51 0 51 -51v-133q0 -51 -51 -51h-129q-28 -1 -40 -16t-12 -46v-1290q0 -51 -51 -51h-133q-51 0 -51 51v1290q0 34 -14 48t-48 14h-118q-52 0 -52 51z" />
<glyph unicode="U" d="M82 266v1321q0 51 51 51h133q51 0 51 -51v-1192q0 -95 28 -127t99 -32h13q73 0 101 32t28 127v1192q0 51 51 51h133q51 0 51 -51v-1321q0 -134 -69.5 -200t-196.5 -66h-207q-127 0 -196.5 66t-69.5 200z" />
<glyph unicode="V" horiz-adv-x="933" d="M43 1591q-1 5 -1 9q0 38 48 38h160q41 0 47 -47q112 -800 154 -1067q2 -13 9 -18t14 0t9 18q71 460 154 1067q6 47 47 47h160q23 0 37 -13q11 -10 11 -25q0 -4 -1 -9q-4 -20 -117 -763t-117 -771q-7 -57 -57 -57h-266q-51 0 -58 57z" />
<glyph unicode="W" horiz-adv-x="1060" d="M102 51v1536q0 51 52 51h133q51 0 51 -51v-1069q0 -44 14 -41q8 3 17 17q23 38 48.5 80t50.5 82.5t34 56.5q12 20 27.5 20t27.5 -20q20 -31 66.5 -108.5t66.5 -110.5q20 -31 29 -9q4 11 4 33v1069q0 51 51 51h133q51 0 51 -51v-1536q0 -51 -51 -51h-123q-30 0 -44.5 10 t-30.5 37q-106 163 -158 250q-9 15 -20.5 14.5t-20.5 -14.5q-35 -57 -158 -250q-19 -29 -32.5 -38t-43.5 -9h-122q-52 0 -52 51z" />
<glyph unicode="X" horiz-adv-x="876" d="M23 47q198 754 202 770q4 18 4 36.5t-4 37.5l-172 700q-6 21 7 34t40 13h166q37 0 47 -47l107 -487q3 -13 10 -18t13.5 0t9.5 18l108 487q10 47 47 47h166q26 0 38.5 -12.5t8.5 -34.5q-158 -643 -172 -700q-4 -18 -4 -36.5t4 -37.5l203 -770q2 -7 2 -13q0 -12 -8 -21 q-14 -13 -41 -13h-166q-37 0 -47 47l-139 586q-3 13 -9.5 18t-13.5 0t-10 -18l-137 -586q-10 -47 -47 -47h-166q-48 0 -48 38q0 4 1 9z" />
<glyph unicode="Y" horiz-adv-x="837" d="M14 1591q-4 10 -4 18q0 29 51 29h156q20 0 29 -11t18 -36l137 -407q4 -13 10.5 -18t12.5 0t10 18l139 407q9 25 18.5 36t29.5 11h155q30 0 43 -12q8 -7 8 -18q0 -8 -4 -17q-2 -5 -41.5 -105.5t-83 -210t-88.5 -222.5t-63 -154q-10 -23 -10 -63v-785q0 -51 -52 -51h-133 q-51 0 -51 51v785q0 40 -10 63q-36 85 -149 368t-128 324z" />
<glyph unicode="Z" horiz-adv-x="759" d="M51 51v74q0 47 29 147q35 124 102.5 336t143.5 448.5t100 311.5q6 9 0.5 22t-25.5 13h-299q-51 0 -51 51v133q0 51 51 51h555q52 0 52 -51v-74q0 -17 -1.5 -31.5t-5.5 -30t-6.5 -24.5t-9.5 -29.5t-10 -29.5q-127 -385 -342 -1096q-10 -36 24 -36h299q52 0 52 -52v-133 q0 -51 -52 -51h-555q-51 0 -51 51z" />
<glyph unicode="[" horiz-adv-x="595" d="M102 -61v1761q0 41 15.5 56.5t56.5 15.5h330q51 0 51 -52v-133q0 -51 -51 -51h-105q-34 0 -47.5 -13.5t-13.5 -47.5v-1311q0 -34 13.5 -48t47.5 -14h105q51 0 51 -51v-133q0 -51 -51 -51h-330q-41 0 -56.5 15.5t-15.5 56.5z" />
<glyph unicode="\" horiz-adv-x="690" d="M43 1587q-6 24 6 37.5t39 13.5h143q46 0 58 -51q41 -177 106 -460t123 -532t129 -544q6 -24 -6 -37.5t-39 -13.5h-143q-26 0 -39 12t-19 39q-73 321 -358 1536z" />
<glyph unicode="]" horiz-adv-x="595" d="M41 51q0 51 51 51h105q34 0 47.5 14t13.5 48v1311q0 34 -13.5 47.5t-47.5 13.5h-105q-51 0 -51 51v133q0 52 51 52h330q41 0 56.5 -15.5t15.5 -56.5v-1761q0 -41 -15.5 -56.5t-56.5 -15.5h-330q-51 0 -51 51v133z" />
<glyph unicode="^" horiz-adv-x="782" d="M74 1454l139 201q26 30 44 37.5t50 7.5h168q21 0 28.5 -0.5t22 -4t25 -13.5t22.5 -27l138 -201q14 -17 10 -26t-14.5 -12t-30.5 -3h-144q-10 0 -19 4.5t-17 14t-14 18t-15 23.5t-14 22l-27 41q-31 50 -66 0l-26 -41q-4 -6 -13.5 -21t-15.5 -23t-15 -18t-18.5 -15 t-19.5 -5h-143q-71 0 -35 41z" />
<glyph unicode="_" horiz-adv-x="620" d="M10 0q0 51 51 51h498q51 0 51 -51v-133q0 -51 -51 -51h-498q-51 0 -51 51v133z" />
<glyph unicode="`" horiz-adv-x="421" d="M66 1935q-7 24 4.5 38t38.5 14h127q45 0 61 -52q9 -28 18.5 -57t18 -56t22.5 -71q15 -51 -41 -51h-127q-26 0 -39.5 12t-21.5 39q-14 44 -33.5 102t-27.5 82z" />
<glyph unicode="a" horiz-adv-x="917" d="M43 51l244 1536q5 28 17 39.5t40 11.5h229q28 0 40.5 -12t17.5 -39l243 -1536q1 -5 1 -9q0 -16 -10 -28q-12 -14 -38 -14h-147q-48 0 -55 51q0 3 -8 41.5t-15 81.5q-5 27 -18 39t-43 12h-164q-31 0 -44 -12t-18 -39q-5 -32 -9.5 -57t-8 -42t-4.5 -24q-7 -51 -55 -51h-148 q-26 0 -38 14q-10 12 -10 28q0 4 1 9zM348 522q-1 -6 -1 -12q0 -20 8 -28q10 -12 42 -11h123q32 -1 42 11q8 9 8 28q0 6 -1 12q-47 375 -94 674q-1 10 -9 16q-5 3 -9 3l-5 -1q-8 -4 -10 -18q-47 -299 -94 -674z" />
<glyph unicode="b" horiz-adv-x="917" d="M102 72v1495q0 41 15.5 56t56.5 15h381q127 0 196.5 -66t69.5 -200v-360q0 -47 -35 -119q-9 -18 5 -35q65 -69 65 -164v-428q0 -134 -69.5 -200t-196.5 -66h-416q-34 0 -53 19t-19 53zM338 297q0 -34 13.5 -47.5t47.5 -13.5h72q33 0 52.5 2t40.5 9.5t32 22t18 40.5t7 65 v221q0 83 -30 110t-97 29h-95q-34 0 -47.5 -13.5t-13.5 -47.5v-377zM338 1032q0 -34 13.5 -47.5t47.5 -13.5h37q33 0 52.5 2t40.5 9.5t32 22t18 40.5t7 65v154q0 39 -7 65t-18 40.5t-32 22t-40.5 9.5t-52.5 2h-37q-34 0 -47.5 -14t-13.5 -48v-309z" />
<glyph unicode="c" horiz-adv-x="860" d="M82 266v1106q0 134 69.5 200t196.5 66h205q127 0 196.5 -66t69.5 -200v-155q0 -52 -51 -52h-133q-51 0 -51 52v47q0 88 -23 113.5t-110 25.5q-39 0 -59.5 -3.5t-40 -17t-27 -42t-7.5 -76.5v-889q0 -48 7.5 -76.5t27 -42t40 -17t59.5 -3.5q32 0 46.5 1t35 8t29 21t15.5 41 t7 68v47q0 51 51 51h133q27 0 39 -12t12 -39v-156q0 -134 -69.5 -200t-196.5 -66h-205q-127 0 -196.5 66t-69.5 200z" />
<glyph unicode="d" horiz-adv-x="921" d="M102 72v1495q0 41 15.5 56t56.5 15h399q127 0 197 -66t70 -200v-1106q0 -134 -70 -200t-197 -66h-399q-41 0 -56.5 15.5t-15.5 56.5zM338 297q0 -38 11.5 -49.5t49.5 -11.5h56q41 0 64 3.5t45 16.5t31 42t9 77v889q0 48 -9 77t-31 42t-45 16.5t-64 3.5h-56 q-38 0 -49.5 -12t-11.5 -50v-1044z" />
<glyph unicode="e" horiz-adv-x="739" d="M102 72v1495q0 41 15.5 56t56.5 15h453q51 0 51 -51v-133q0 -51 -51 -51h-228q-34 0 -47.5 -14t-13.5 -48v-309q0 -34 13.5 -47.5t47.5 -13.5h152q51 0 51 -51v-134q0 -51 -51 -51h-152q-34 0 -47.5 -13.5t-13.5 -47.5v-377q0 -34 13.5 -47.5t47.5 -13.5h228q51 0 51 -52 v-133q0 -51 -51 -51h-453q-41 0 -56.5 15.5t-15.5 56.5z" />
<glyph unicode="f" horiz-adv-x="718" d="M102 51v1516q0 41 15.5 56t56.5 15h453q51 0 51 -51v-133q0 -51 -51 -51h-228q-34 0 -47.5 -14t-13.5 -48v-309q0 -34 13.5 -47.5t47.5 -13.5h152q51 0 51 -51v-134q0 -51 -51 -51h-152q-34 0 -47.5 -13.5t-13.5 -47.5v-623q0 -51 -51 -51h-133q-52 0 -52 51z" />
<glyph unicode="g" horiz-adv-x="901" d="M82 266v1106q0 134 69.5 200t196.5 66h205q127 0 196.5 -66t69.5 -200v-155q0 -52 -51 -52h-133q-51 0 -51 52v47q0 88 -23 113.5t-110 25.5q-39 0 -59.5 -3.5t-40 -17t-27 -42t-7.5 -76.5v-889q0 -48 7.5 -76.5t27 -42t40 -17t59.5 -3.5q32 0 46.5 1t35 8t29 21t15.5 41 t7 68v299q0 34 -14 47.5t-48 13.5h-49q-51 0 -51 51v134q0 51 51 51h275q41 0 56 -15.5t15 -56.5v-633q0 -134 -69.5 -200t-196.5 -66h-205q-127 0 -196.5 66t-69.5 200z" />
<glyph unicode="h" horiz-adv-x="944" d="M102 51v1536q0 51 52 51h133q51 0 51 -51v-545q0 -38 17 -54.5t55 -16.5h125q38 0 54.5 16.5t16.5 54.5v545q0 51 51 51h134q51 0 51 -51v-1536q0 -51 -51 -51h-134q-51 0 -51 51v613q0 38 -16.5 54.5t-54.5 16.5h-125q-38 0 -55 -16.5t-17 -54.5v-613q0 -51 -51 -51 h-133q-52 0 -52 51z" />
<glyph unicode="i" horiz-adv-x="440" d="M102 51v1536q0 51 52 51h133q51 0 51 -51v-1536q0 -51 -51 -51h-133q-52 0 -52 51z" />
<glyph unicode="j" horiz-adv-x="860" d="M41 266v156q0 27 12 39t39 12h133q51 0 51 -51v-47q0 -48 7.5 -76.5t27 -42t40 -17t59.5 -3.5q32 0 46.5 1t35 8t29 21t15.5 41t7 68v966q0 34 -14 48t-48 14h-319q-51 0 -51 51v133q0 51 51 51h545q41 0 56 -15t15 -56v-1301q0 -134 -69.5 -200t-196.5 -66h-205 q-127 0 -196.5 66t-69.5 200z" />
<glyph unicode="k" horiz-adv-x="921" d="M102 51v1536q0 51 52 51h133q51 0 51 -51v-547q0 -20 12 -22.5t19 16.5l254 563q12 25 23.5 33t37.5 8h147q46 0 46 -23q0 -8 -5 -18l-313 -710q-7 -17 -7 -28t7 -30l346 -788q5 -11 5 -19q0 -9 -6 -13q-12 -9 -42 -9h-147q-26 0 -38 8t-24 33l-284 637q-7 19 -19 17.5 t-12 -21.5v-623q0 -51 -51 -51h-133q-52 0 -52 51z" />
<glyph unicode="l" horiz-adv-x="718" d="M102 72v1515q0 51 52 51h133q51 0 51 -51v-1290q0 -34 13.5 -47.5t47.5 -13.5h228q51 0 51 -52v-133q0 -51 -51 -51h-453q-41 0 -56.5 15.5t-15.5 56.5z" />
<glyph unicode="m" horiz-adv-x="1060" d="M102 51v1536q0 51 52 51h122q30 0 43.5 -9t32.5 -38q123 -193 158 -250q9 -14 20.5 -14.5t20.5 14.5q52 87 158 250q16 27 30.5 37t44.5 10h123q51 0 51 -51v-1536q0 -51 -51 -51h-133q-51 0 -51 51v1069q0 46 -16 41q-8 -2 -17 -16q-20 -33 -66.5 -110.5t-66.5 -108.5 q-12 -20 -27.5 -20t-27.5 20q-9 16 -34 56.5t-50.5 82.5t-48.5 80q-21 33 -28 5q-3 -11 -3 -30v-1069q0 -51 -51 -51h-133q-52 0 -52 51z" />
<glyph unicode="n" horiz-adv-x="1011" d="M102 51v1536q0 51 52 51h145q73 0 90 -65q55 -194 264 -914q6 -23 13 -26.5t10.5 5.5t3.5 21l-6 928q0 51 51 51h133q51 0 51 -51v-1536q0 -51 -51 -51h-139q-72 0 -90 66q-199 731 -264 946q-7 25 -17 23q-10 -3 -10 -38v-946q0 -51 -51 -51h-133q-52 0 -52 51z" />
<glyph unicode="o" d="M82 266v1106q0 134 69.5 200t196.5 66h207q127 0 196.5 -66t69.5 -200v-1106q0 -134 -69.5 -200t-196.5 -66h-207q-127 0 -196.5 66t-69.5 200zM317 395q0 -95 28 -127t99 -32h14h-1q73 0 101 32t28 127v848q0 95 -28 127.5t-101 32.5h-2h2h2h3h3h2h2h2h1h1h2h1h1h1h1h1 h1h1h-1h-1h-1h-1h-1h-1h-1h-1h-1h-1h-1h-1h-1h-1h-1h-1h-1h-1h-1h-1h-1h-1h-1h-1h-1h-1h-1h-1h-10q-70 0 -98.5 -32.5t-28.5 -127.5v-848z" />
<glyph unicode="p" horiz-adv-x="862" d="M102 51v1516q0 41 15.5 56t56.5 15h381q127 0 196.5 -66t69.5 -200v-371q0 -134 -69.5 -200t-196.5 -66h-156q-34 0 -47.5 -13.5t-13.5 -47.5v-623q0 -51 -51 -51h-133q-52 0 -52 51zM338 1032q0 -34 13.5 -47.5t47.5 -13.5h45q36 0 52 1t37.5 7.5t30.5 20t15.5 38.5 t6.5 64v170q0 39 -6.5 64t-15.5 38.5t-30.5 20t-37.5 7.5t-52 1h-45q-34 0 -47.5 -14t-13.5 -48v-309z" />
<glyph unicode="q" horiz-adv-x="911" d="M82 266v1106q0 134 69.5 200t196.5 66h207q127 0 196.5 -66t69.5 -200v-1106q0 -109 -20 -153q-13 -32 0 -60q77 -165 78 -166q5 -15 5 -25t-5 -15q-10 -11 -35 -11h-139q-24 0 -37 12t-27 39q-19 38 -43 88q-5 13 -12 19t-23 6h-49h-166q-127 0 -196.5 66t-69.5 200z M317 395q0 -95 28 -127t99 -32h13q73 0 101 32t28 127v1v1v1v1v1v1v1v1v1v1v1v1v1v1v1v1v1v1v1v1v1v1v1v1v1v1v1v1v1v1v1v1v1v1v1v1v1v1v1v1v1v1v1v1v1v1v1v1v1v1v1v1v1v1v1v1v1v1v1v1v1v1v1v1v1v1v1v1v1v1v1v1v1v1v1v1v1v1v1v1v1v1v1v1v1v1v1v1v1v1v1v1v1v1v1v1v1v1v1v1v1 v1v1v1v1v1v1v1v1v1v1v1v1v1v1v1v1v1v1v1v1v1v1v1v1v1v1v1v1v1v1v1v1v1v1v1v1v1v1v1v1v1v1v1v1v1v1v1v1v1v1v1v1v1v1v1v1v1v1v1v1v1v1v1v1v1v1v1v1v1v1v1v1v1v1v1v1v1v1v1v1v1v1v1v1v1v1v1v1v1v1v1v1v1v1v1v1v1v1v1v1v1v1v1v1v1v1v1v1v1v1v1v1v1v1v1v1v1v1v1v1v1v1v1v1v1v1v1 v1v1v1v1v1v1v1v1v1v1v1v1v1v1v1v1v1v1v1v1v1v1v1v1v1v1v1v1v1v1v1v1v1v1v1v1v1v1v1v1v1v1v1v1v1v1v1v1v1v1v1v1v1v1v1v1v1v1v1v1v1v1v1v1v1v1v1v1v1v1v1v1v1v1v1v1v1v1v1v1v1v1v1v1v1v1v1v1v1v1v1v1v1v1v1v1v1v1v1v1v1v1v1v1v1v1v1v1v1v1v1v1v1v1v1v1v1v1v1v1v1v1v1v1v1v1v1 v1v1v1v1v1v1v1v1v1v1v1v1v1v1v1v1v1v1v1v1v1v1v1v1v1v1v1v1v1v1v1v1v1v1v1v1v1v1v1v1v1v1v1v1v1v1v1v1v1v1v1v1v1v1v1v1v1v1v1v1v1v1v1v1v1v1v1v1v1v1v1v1v1v1v1v1v1v1v1v1v1v1v1v1v1v1v1v1v1v1v1v1v1v1v1v1v1v1v1v1v1v1v1v1v1v1v1v1v1v1v1v1v1v1v1v1v1v1v1v1v1v1v1v1v1v1v1 v1v1v1v1v1v1v1v1v1v1v1v1v1v1v1v1v1v1v1v1v1v1v1v1v1v1v1v1v1v1v1v1v1v1v1v1v1v1v1v1v1v1v1v1v1v1v1v1v1v1v1v1v1v1v1v1v1v1v1v1v1v1v1v1v1v1v1v1v1v1v1v1v1v1v1v1v1v1v1v1v1v1v1v1v1v1v1v1v1v1v1v1v1v1v1v1v1v1v1v1v1v1v1v1v1v1v1v1v1v1v1v1v1v1v1v1v1v1v1v1v1v1v1v1v1v1v1 v1v1v1v1v1v1v1v1v1v1v1v1v1v1v1v1v1v1v1v1v1v1v1v1v1v1v1v1v1v1v1v1v1v1v1v1v1v1v1v1v1v1v1v1v1v1v1v1v1v1v1v1v1v1v1v1v1v1v1v1v1v1v1v1v1v1v1v1v1v1v1v1v1v1v1v1v1v1v1v1v1v1v1v1v1v1v1v1v1v1v1v1v1v1v1v1v1v1v1v1v1v1v1v1v1v1v1v1v1v1v1v1v1v1v1v1v1v1v1v1v1v1v1v1v1v1v1 v1v1v1v1v1v1v1v1v1v1v1v1v1v1v1v1v1v1v1v1v1v1v1v1v1v1v1v1v1v1v1v1v1v1v1v1v1v1v1v1v1v1v1v1v1v1v1v1v1v1v1v1v1v1v1v1v1v1v1v1v1v1v1v1v1v1v1v1v1v1v1v1v1v1v1v1v1v1v1v1v1v1v1v1v1v1v1v1v1v1v1v1v1v1v1v1v1v1v1v1v1v1v1v9q0 95 -28 127.5t-101 32.5h-13 q-70 0 -98.5 -32.5t-28.5 -127.5v-848z" />
<glyph unicode="r" horiz-adv-x="911" d="M102 51v1516q0 41 15.5 56t56.5 15h381q127 0 196.5 -66t69.5 -200v-309q0 -62 -21.5 -109.5t-54.5 -72.5q-15 -10 -18 -19.5t0 -32.5q12 -74 42 -269.5t53.5 -348t25.5 -160.5q1 -7 1 -13q0 -38 -48 -38h-144q-48 0 -57 51l-102 643q-3 23 -13.5 32t-33.5 9h-52 q-34 0 -47.5 -13.5t-13.5 -47.5v-623q0 -51 -51 -51h-133q-52 0 -52 51zM338 1032q0 -34 13.5 -47.5t47.5 -13.5h37q33 0 52.5 2t40.5 9.5t32 22t18 40.5t7 65v154q0 39 -7 65t-18 40.5t-32 22t-40.5 9.5t-52.5 2h-37q-34 0 -47.5 -14t-13.5 -48v-309z" />
<glyph unicode="s" horiz-adv-x="862" d="M61 266v156q0 51 52 51h133q51 0 51 -51v-47q0 -83 31.5 -111t103.5 -28q71 0 102 28t31 111v219q0 49 -6.5 77t-24 41.5t-37.5 17t-59 3.5h-110q-127 0 -197 66.5t-70 201.5v371q0 134 70 200t197 66h207q127 0 196.5 -66t69.5 -200v-155q0 -52 -51 -52h-134 q-51 0 -51 52v47q0 83 -31 111t-102 28q-72 0 -103.5 -28t-31.5 -111v-154q0 -38 7.5 -64.5t18 -40.5t31.5 -21.5t39.5 -9t50.5 -1.5h91q127 0 196.5 -66t69.5 -200v-441q0 -134 -69.5 -200t-196.5 -66h-207q-127 0 -197 66t-70 200z" />
<glyph unicode="t" horiz-adv-x="739" d="M20 1454v133q0 51 52 51h596q51 0 51 -51v-133q0 -51 -51 -51h-129q-28 -1 -40 -16t-12 -46v-1290q0 -51 -51 -51h-133q-51 0 -51 51v1290q0 34 -14 48t-48 14h-118q-52 0 -52 51z" />
<glyph unicode="u" d="M82 266v1321q0 51 51 51h133q51 0 51 -51v-1192q0 -95 28 -127t99 -32h13q73 0 101 32t28 127v1192q0 51 51 51h133q51 0 51 -51v-1321q0 -134 -69.5 -200t-196.5 -66h-207q-127 0 -196.5 66t-69.5 200z" />
<glyph unicode="v" horiz-adv-x="933" d="M43 1591q-1 5 -1 9q0 38 48 38h160q41 0 47 -47q112 -800 154 -1067q2 -13 9 -18t14 0t9 18q71 460 154 1067q6 47 47 47h160q23 0 37 -13q11 -10 11 -25q0 -4 -1 -9q-4 -20 -117 -763t-117 -771q-7 -57 -57 -57h-266q-51 0 -58 57z" />
<glyph unicode="w" horiz-adv-x="1060" d="M102 51v1536q0 51 52 51h133q51 0 51 -51v-1069q0 -44 14 -41q8 3 17 17q23 38 48.5 80t50.5 82.5t34 56.5q12 20 27.5 20t27.5 -20q20 -31 66.5 -108.5t66.5 -110.5q20 -31 29 -9q4 11 4 33v1069q0 51 51 51h133q51 0 51 -51v-1536q0 -51 -51 -51h-123q-30 0 -44.5 10 t-30.5 37q-106 163 -158 250q-9 15 -20.5 14.5t-20.5 -14.5q-35 -57 -158 -250q-19 -29 -32.5 -38t-43.5 -9h-122q-52 0 -52 51z" />
<glyph unicode="x" horiz-adv-x="876" d="M23 47q198 754 202 770q4 18 4 36.5t-4 37.5l-172 700q-6 21 7 34t40 13h166q37 0 47 -47l107 -487q3 -13 10 -18t13.5 0t9.5 18l108 487q10 47 47 47h166q26 0 38.5 -12.5t8.5 -34.5q-158 -643 -172 -700q-4 -18 -4 -36.5t4 -37.5l203 -770q2 -7 2 -13q0 -12 -8 -21 q-14 -13 -41 -13h-166q-37 0 -47 47l-139 586q-3 13 -9.5 18t-13.5 0t-10 -18l-137 -586q-10 -47 -47 -47h-166q-48 0 -48 38q0 4 1 9z" />
<glyph unicode="y" horiz-adv-x="837" d="M14 1591q-4 10 -4 18q0 29 51 29h156q20 0 29 -11t18 -36l137 -407q4 -13 10.5 -18t12.5 0t10 18l139 407q9 25 18.5 36t29.5 11h155q30 0 43 -12q8 -7 8 -18q0 -8 -4 -17q-2 -5 -41.5 -105.5t-83 -210t-88.5 -222.5t-63 -154q-10 -23 -10 -63v-785q0 -51 -52 -51h-133 q-51 0 -51 51v785q0 40 -10 63q-36 85 -149 368t-128 324z" />
<glyph unicode="z" horiz-adv-x="759" d="M51 51v74q0 47 29 147q35 124 102.5 336t143.5 448.5t100 311.5q6 9 0.5 22t-25.5 13h-299q-51 0 -51 51v133q0 51 51 51h555q52 0 52 -51v-74q0 -17 -1.5 -31.5t-5.5 -30t-6.5 -24.5t-9.5 -29.5t-10 -29.5q-127 -385 -342 -1096q-10 -36 24 -36h299q52 0 52 -52v-133 q0 -51 -52 -51h-555q-51 0 -51 51z" />
<glyph unicode="{" horiz-adv-x="688" d="M61 786v134q0 51 52 51h20q38 0 50 11.5t12 49.5v473q0 134 69.5 200.5t196.5 66.5h135q51 0 51 -52v-133q0 -51 -51 -51h-18q-40 0 -62 -3.5t-44.5 -16.5t-32 -42t-9.5 -77v-396q0 -114 -41 -147q41 -38 41 -149v-463q0 -48 9.5 -77t31.5 -42.5t45 -17t62 -3.5h18 q51 0 51 -51v-133q0 -51 -51 -51h-135q-127 0 -196.5 66t-69.5 200v541q0 38 -12 49.5t-50 11.5h-20q-52 0 -52 51z" />
<glyph unicode="|" horiz-adv-x="440" d="M102 -82v1802q0 52 52 52h133q51 0 51 -52v-1802q0 -51 -51 -51h-133q-52 0 -52 51z" />
<glyph unicode="}" horiz-adv-x="688" d="M41 51q0 51 51 51h19q39 0 61.5 3.5t44.5 17t31.5 42.5t9.5 77v463q0 111 41 149q-41 33 -41 147v396q0 48 -9.5 77t-31.5 42t-44 16.5t-62 3.5h-19q-51 0 -51 51v133q0 52 51 52h135q127 0 197 -66.5t70 -200.5v-473q0 -38 11.5 -49.5t49.5 -11.5h20q52 0 52 -51v-134 q0 -51 -52 -51h-20q-38 0 -49.5 -11.5t-11.5 -49.5v-541q0 -134 -70 -200t-197 -66h-135q-51 0 -51 51v133z" />
<glyph unicode="~" horiz-adv-x="796" d="M68 836q-12 25 8 47q32 34 96.5 70t126.5 36q48 0 108.5 -40t94.5 -40q24 0 43.5 10t41 27t31.5 23q27 15 48 -11q8 -10 33.5 -46t29.5 -44q7 -11 6 -22t-14 -25q-30 -32 -95 -65t-128 -33q-39 0 -74.5 20t-67.5 40t-61 20q-24 0 -44 -10t-41.5 -27t-31.5 -23 q-26 -15 -47 11q-55 66 -63 82z" />
<glyph unicode="&#xa1;" horiz-adv-x="462" d="M102 -195q0 -51 52 -51h155q51 0 51 51l-12 1147q0 52 -51 52h-131q-51 0 -51 -52zM104 1208v154q0 51 52 51h153q51 0 51 -51v-154q0 -51 -51 -51h-153q-52 0 -52 51z" />
<glyph unicode="&#xa2;" horiz-adv-x="860" d="M82 266v1106q0 221 211 258q24 5 32.5 13t8.5 30v47q0 52 51 52h133q51 0 51 -52v-47q0 -22 9 -31t32 -12q90 -13 149.5 -77.5t59.5 -180.5v-155q0 -52 -51 -52h-133q-51 0 -51 52v47q0 49 -6 77t-23.5 41.5t-37.5 17t-60 3.5h-13q-73 0 -100 -27.5t-27 -120.5v-880 q0 -48 7.5 -77t26 -42t38 -16.5t55.5 -3.5h13q37 0 57 3.5t38 17t25 42t7 76.5v47q0 51 51 51h133q27 0 39 -12t12 -39v-156q0 -122 -58.5 -188t-150.5 -76q-23 -3 -32 -12t-9 -31v-41q0 -51 -51 -51h-133q-51 0 -51 51v41q1 22 -8.5 31t-32.5 12q-91 10 -151 75.5 t-60 188.5z" />
<glyph unicode="&#xa3;" horiz-adv-x="1056" d="M61 51v133q0 52 52 52h20q34 0 48 13.5t14 47.5v377q0 34 -14 47.5t-48 13.5h-20q-52 0 -52 51v134q0 51 52 51h20q34 0 48 13.5t14 47.5v340q0 134 69.5 200t196.5 66h207q127 0 196.5 -66t69.5 -200v-155q0 -52 -51 -52h-133q-52 0 -52 52v47q0 49 -6 77t-24 41.5 t-38.5 17t-60.5 3.5h-12q-39 0 -59 -3.5t-37.5 -17t-24 -41.5t-6.5 -77v-232q0 -34 14 -47.5t48 -13.5h153q51 0 51 -51v-134q0 -51 -51 -51h-153q-34 0 -48 -13.5t-14 -47.5v-377q0 -34 14 -47.5t48 -13.5h391q51 0 51 -52v-133q0 -51 -51 -51h-770q-52 0 -52 51z" />
<glyph unicode="&#xa5;" horiz-adv-x="882" d="M35 1597q-7 23 8 32t45 9h137q28 0 39.5 -6t18.5 -28l133 -400q8 -26 15.5 -35.5t15.5 -1.5t18 37l135 400q7 22 18 28t39 6h150q56 0 41 -41q-188 -486 -270 -677q-11 -26 -11 -54v-10q0 -25 5.5 -33t27.5 -8h113q51 0 51 -51v-72q0 -51 -51 -51h-113q-21 0 -30.5 -7 t-10.5 -24v-20q0 -23 9 -32t32 -9h113q51 0 51 -51v-72q0 -51 -51 -51h-113q-23 0 -32 -9t-9 -32v-283q0 -27 -12 -39t-39 -12h-133q-51 0 -51 51v283q0 23 -9 32t-32 9h-113q-51 0 -51 51v72q0 51 51 51h113q23 0 32 9t9 32v10q0 23 -9 32t-32 9h-113q-51 0 -51 51v72 q0 51 51 51h113q22 0 27 8t5 33v25q-1 13 -10 39q-40 93 -149 366.5t-121 310.5z" />
<glyph unicode="&#xa7;" horiz-adv-x="862" d="M61 20v197q0 51 52 51h133q51 0 51 -51v-47q0 -49 6 -77t24 -41.5t38.5 -17t60.5 -3.5h12q39 0 59 3.5t37.5 17t24 41.5t6.5 77v102q0 48 -9.5 77t-31.5 42.5t-44.5 17t-61.5 3.5h-131q-104 0 -165 57.5t-61 169.5v369q0 61 33 120q17 30 0 54q-33 42 -33 123v313 q0 112 61 168.5t165 56.5h288q104 0 165 -56.5t61 -168.5v-197q0 -51 -51 -51h-134q-51 0 -51 51v47q0 49 -6 77t-24 42t-38.5 17.5t-60.5 3.5h-12q-39 0 -59 -3.5t-37.5 -17.5t-24 -42t-6.5 -77v-104q0 -38 7.5 -64.5t18 -40.5t31.5 -21.5t39.5 -9t50.5 -1.5h131 q104 0 165 -57t61 -169v-368q0 -62 -33 -121q-17 -31 0 -53q33 -42 33 -121v-318q0 -112 -61 -168.5t-165 -56.5h-288q-104 0 -165 56.5t-61 168.5zM297 788q0 -83 24.5 -109t104.5 -26h12q39 0 59 3.5t37.5 17.5t24 42t6.5 77v55q0 42 -3 64t-15.5 41.5t-38.5 26.5t-70 7 h-14q-39 0 -59 -3.5t-37.5 -17t-24 -41.5t-6.5 -77v-60z" />
<glyph unicode="&#xa8;" horiz-adv-x="710" d="M61 1751v143q0 52 52 52h143q51 0 51 -52v-143q0 -51 -51 -51h-143q-52 0 -52 51zM403 1751v143q0 52 52 52h143q51 0 51 -52v-143q0 -51 -51 -51h-143q-52 0 -52 51z" />
<glyph unicode="&#xa9;" horiz-adv-x="1146" d="M61 1329q0 141 68 259.5t185.5 186.5t256.5 68q215 0 364.5 -149.5t149.5 -364.5q0 -139 -68 -256.5t-186.5 -185.5t-259.5 -68q-212 0 -361 149t-149 361zM207 1327q0 -170 96 -266t266 -96q171 0 271 96.5t100 265.5q0 170 -100.5 270.5t-270.5 100.5 q-169 0 -265.5 -100t-96.5 -271zM403 1159v346q0 56 30.5 85.5t84.5 29.5h105q53 0 83.5 -29.5t30.5 -85.5v-63q0 -19 -18 -19h-74q-18 0 -18 19v22q0 22 -7.5 33.5t-17.5 13.5t-31 2h2h-6q-20 0 -29.5 -2t-16.5 -13.5t-7 -33.5v-264q0 -22 7 -33.5t16.5 -13.5t29.5 -2h7h-3 q21 0 31 2t17.5 13.5t7.5 33.5v23q0 18 18 18h74q18 0 18 -18v-64q0 -56 -30.5 -85.5t-83.5 -29.5h-105q-54 0 -84.5 29.5t-30.5 85.5z" />
<glyph unicode="&#xab;" horiz-adv-x="1683" d="M61 793v127q0 67 45 86l666 292q9 7 25 0t16 -30v-174q0 -36 -41 -56l-330 -153q-19 -9 -20 -26t20 -28l330 -155q41 -20 41 -55v-175q0 -23 -16 -30t-25 0l-666 293q-45 19 -45 84zM850 793v127q0 67 45 86l666 292q9 7 25 0t16 -30v-174q0 -36 -41 -56l-330 -153 q-19 -9 -20 -26t20 -28l330 -155q41 -20 41 -55v-175q0 -23 -16 -30t-25 0l-666 293q-45 19 -45 84z" />
<glyph unicode="&#xad;" horiz-adv-x="681" d="M41 786v134q0 51 51 51h498q51 0 51 -51v-134q0 -51 -51 -51h-498q-51 0 -51 51z" />
<glyph unicode="&#xae;" horiz-adv-x="1146" d="M61 1329q0 141 68 259.5t185.5 186.5t256.5 68q215 0 364.5 -149.5t149.5 -364.5q0 -139 -68 -256.5t-186.5 -185.5t-259.5 -68q-212 0 -361 149t-149 361zM207 1327q0 -170 96 -266t266 -96q171 0 271 96.5t100 265.5q0 170 -100.5 270.5t-270.5 100.5 q-169 0 -265.5 -100t-96.5 -271zM408 1083v488q0 26 11.5 37.5t37.5 11.5h172q56 0 88.5 -30.5t32.5 -90.5v-80q0 -26 -5.5 -45t-11 -27t-16.5 -20q-14 -14 -10 -33q9 -41 28 -119.5t21 -89.5q8 -41 -29 -41h-53q-13 0 -20 6t-9 11t-6 22l-39 158q0 1 -1 4q-10 14 -17 15 h-50q-14 0 -14 -19v-158q0 -39 -39 -39h-33q-38 0 -38 39zM518 1401q0 -17 14 -17h50q16 0 24.5 1t17.5 6t13 17t4 32v14q0 35 -14 45t-45 10h-50q-14 0 -14 -14v-94z" />
<glyph unicode="&#xaf;" horiz-adv-x="681" d="M61 1761v123q0 51 52 51h456q52 0 52 -51v-123q0 -51 -52 -51h-456q-52 0 -52 51z" />
<glyph unicode="&#xb0;" horiz-adv-x="462" d="M41 1530q0 92 49 141t141 49t141.5 -49t49.5 -141t-49.5 -141.5t-141.5 -49.5t-141 49.5t-49 141.5zM168 1530q0 -28 17.5 -46t45.5 -18q27 0 45.5 18.5t18.5 45.5q0 26 -19 44.5t-45 18.5q-27 0 -45 -18t-18 -45z" />
<glyph unicode="&#xb1;" horiz-adv-x="796" d="M61 449v133q0 51 52 51h571q51 0 51 -51v-133q0 -52 -51 -52h-571q-52 0 -52 52zM61 1010v129q0 26 12.5 36.5t39.5 10.5h114q34 0 46 11.5t12 45.5v115q0 51 51 51h125q51 0 51 -51v-115q0 -34 11.5 -45.5t45.5 -11.5h115q51 0 51 -51v-125q0 -52 -51 -52h-115 q-34 0 -45.5 -11.5t-11.5 -45.5v-115q0 -51 -51 -51h-125q-51 0 -51 51v115q0 34 -12 45.5t-46 11.5h-114q-52 0 -52 52z" />
<glyph unicode="&#xb2;" horiz-adv-x="712" d="M61 891v178q0 47 11.5 83.5t29 62.5t51 50.5t66.5 43t85 45.5q4 2 6.5 3t6.5 3t7 4q19 10 47.5 23.5t39.5 19.5t28 16.5t23 18.5t13.5 21.5t9.5 29t2 37.5v31q0 73 -23 90.5t-104 17.5q-75 0 -97.5 -17.5t-22.5 -90.5v-7q0 -51 -52 -51h-71q-51 0 -51 51v54 q0 115 65.5 175t179.5 60h105q114 0 180 -62t66 -184v-114q0 -50 -13.5 -88.5t-33.5 -62.5t-50 -44t-56 -31t-59.5 -25.5t-52.5 -25.5q-49 -29 -76.5 -48t-39 -37t-13.5 -28t-2 -32v-12v-15q0 -23 9 -32t32 -9h314q51 0 51 -51v-72q0 -51 -51 -51h-488q-41 0 -56.5 15.5 t-15.5 56.5z" />
<glyph unicode="&#xb3;" horiz-adv-x="731" d="M61 1034v74q0 51 52 51h61q51 0 51 -51v-12q0 -72 30 -90.5t103 -18.5q33 0 47.5 0.5t32 5t23.5 11t12 22t7 35.5t1 53v100q0 38 -11.5 50t-49.5 12h-86q-51 0 -51 51v66q0 51 51 51h86q38 0 49.5 11.5t11.5 49.5v43q0 33 -1 53t-7 35.5t-12 22t-23.5 11t-32 5t-47.5 0.5 q-38 0 -57.5 -2.5t-39.5 -12.5t-28 -32.5t-8 -60.5v-13q0 -51 -51 -51h-61q-52 0 -52 51v74q0 107 63 161t173 54h131q113 0 167 -54.5t54 -178.5v-97q0 -114 -41 -147q41 -38 41 -149v-164q0 -124 -54 -179t-167 -55h-131q-110 0 -173 54t-63 161z" />
<glyph unicode="&#xb4;" horiz-adv-x="419" d="M66 1751q14 44 22.5 71t18 56t18.5 57q16 52 61 52h127q26 0 37 -13.5t4 -38.5q-7 -22 -26 -80.5t-33 -103.5q-8 -27 -22 -39t-40 -12h-127q-55 0 -40 51z" />
<glyph unicode="&#xb7;" horiz-adv-x="337" d="M41 838v153q0 51 51 51h154q51 0 51 -51v-153q0 -52 -51 -52h-154q-51 0 -51 52z" />
<glyph unicode="&#xb8;" horiz-adv-x="409" d="M61 -266q0 25 10 35t35 10h11h12.5t11.5 0.5t12 2t9.5 4.5t8.5 7.5t5 11t2 15.5q0 34 -10.5 42.5t-65.5 12.5q-20 3 -20 23v122q0 21 20 21h115q21 0 21 -21v-22q0 -12 1 -20t1.5 -13t4.5 -8.5t6.5 -5t10.5 -5t12 -5.5q38 -20 56 -52.5t18 -93.5q0 -57 -20.5 -95 t-57.5 -54.5t-75.5 -22t-88.5 -2.5q-45 3 -45 47v66z" />
<glyph unicode="&#xb9;" horiz-adv-x="661" d="M61 1720v72q0 51 52 51h254q41 0 56 -15t15 -56v-748q1 -17 10.5 -24t30.5 -7h70q51 0 51 -51v-72q0 -51 -51 -51h-395q-52 0 -52 51v72q0 51 52 51h69q23 0 32 9t9 32v594q0 23 -9 32t-32 9h-110q-52 0 -52 51z" />
<glyph unicode="&#xbb;" horiz-adv-x="1683" d="M82 446v175q0 35 41 55l330 155q21 11 20 28t-20 26l-330 153q-41 20 -41 56v174q0 23 16 30t25 0l665 -292q46 -19 46 -86v-127q0 -65 -46 -84l-665 -293q-9 -7 -25 0t-16 30zM870 446v175q0 35 41 55l330 155q21 11 20 28t-20 26l-330 153q-41 20 -41 56v174 q0 23 16 30t25 0l666 -292q45 -19 45 -86v-127q0 -65 -45 -84l-666 -293q-9 -7 -25 0t-16 30z" />
<glyph unicode="&#xbc;" horiz-adv-x="1748" d="M41 1513v72q0 51 51 51h254q41 0 56.5 -15t15.5 -56v-748q1 -17 10.5 -24t30.5 -7h69q52 0 52 -51v-71q0 -52 -52 -52h-395q-51 0 -51 52v71q0 51 51 51h70q23 0 32 9t9 32v594q0 23 -9 32t-32 9h-111q-51 0 -51 51zM530 51q103 332 245 791t231 745q8 26 21 38.5 t38 12.5h102q27 0 38.5 -13.5t4.5 -37.5q-118 -377 -207 -674.5t-141.5 -468.5t-126.5 -393q-10 -28 -22 -39.5t-37 -11.5h-103q-27 0 -38.5 13.5t-4.5 37.5zM969.5 347q1.5 35 17.5 65l270 542q38 72 107 72h160q51 0 51 -51v-504q0 -23 9 -32t32 -9h41q51 0 51 -51v-68 q0 -51 -51 -51h-41q-23 0 -32 -9t-9 -32v-166q0 -51 -51 -51h-68q-51 0 -51 51v166q0 23 -9 32t-32 9h-330q-33 0 -49.5 26t-15 61zM1186 467q-22 -45 35 -45h143q23 0 32 9t9 32v354q-1 25 -11 23.5t-20 -21.5z" />
<glyph unicode="&#xbd;" horiz-adv-x="1785" d="M41 1513v72q0 51 51 51h254q41 0 56.5 -15t15.5 -56v-748q1 -17 10.5 -24t30.5 -7h69q52 0 52 -51v-71q0 -52 -52 -52h-395q-51 0 -51 52v71q0 51 51 51h70q23 0 32 9t9 32v594q0 23 -9 32t-32 9h-111q-51 0 -51 51zM530 51q103 332 245 791t231 745q8 26 21 38.5 t38 12.5h102q27 0 38.5 -13.5t4.5 -37.5q-118 -377 -207 -674.5t-141.5 -468.5t-126.5 -393q-10 -28 -22 -39.5t-37 -11.5h-103q-27 0 -38.5 13.5t-4.5 37.5zM1135 72v178q0 58 13.5 99t53 75.5t70.5 53t106 57.5q4 2 6.5 3.5t6 3t6.5 3.5q19 10 47 23.5t39.5 19.5t29 16.5 t23.5 18.5t13.5 21.5t9.5 29t2 37.5v30q0 39 -4.5 60t-21.5 32.5t-37.5 14t-63.5 2.5q-75 0 -98 -18t-23 -91v-6q0 -51 -51 -51h-72q-51 0 -51 51v53q0 116 66 176t179 60h105q114 0 180 -62t66 -184v-114q0 -50 -13.5 -88.5t-33.5 -62.5t-50 -44t-56 -31t-59.5 -25.5 t-52.5 -25.5q-49 -29 -76.5 -48.5t-39 -37.5t-13.5 -28t-2 -32v-12v-14q0 -23 9 -32t32 -9h314q51 0 51 -51v-72q0 -51 -51 -51h-488q-41 0 -56 15.5t-15 56.5z" />
<glyph unicode="&#xbe;" horiz-adv-x="1798" d="M41 829v74q0 27 12 39t39 12h62q51 0 51 -51v-12q0 -72 30 -90.5t103 -18.5q33 0 47.5 0.5t32 5t23.5 11t12 22t7 35.5t1 53v101q0 38 -12 49.5t-50 11.5h-86q-51 0 -51 51v66q0 51 51 51h86q38 0 50 11.5t12 49.5v43q0 33 -1 53t-7 35.5t-12 22t-23.5 11t-32 5 t-47.5 0.5q-38 0 -57.5 -2.5t-39.5 -12.5t-28 -32.5t-8 -60.5v-12q0 -52 -51 -52h-62q-51 0 -51 52v73q0 107 63 161t172 54h132q113 0 167 -54.5t54 -178.5v-96q0 -115 -41 -148q41 -38 41 -149v-164q0 -124 -54 -179t-167 -55h-132q-109 0 -172 54t-63 161zM575 51 q103 332 245 791t231 745q8 26 21 38.5t38 12.5h102q27 0 38.5 -13.5t4.5 -37.5q-118 -377 -207 -674.5t-141.5 -468.5t-126.5 -393q-10 -28 -22 -39.5t-37 -11.5h-103q-27 0 -38.5 13.5t-4.5 37.5zM1018.5 347q1.5 35 17.5 65l271 542q38 72 106 72h160q51 0 51 -51v-504 q0 -23 9 -32t32 -9h41q51 0 51 -51v-68q0 -51 -51 -51h-41q-23 0 -32 -9t-9 -32v-166q0 -51 -51 -51h-68q-51 0 -51 51v166q0 23 -9 32t-32 9h-330q-33 0 -49.5 26t-15 61zM1235 467q-23 -45 35 -45h143q23 0 32 9t9 32v354q-1 25 -11 23.5t-20 -21.5z" />
<glyph unicode="&#xbf;" horiz-adv-x="821" d="M41 23v321q0 105 46 172t128 119q6 4 17 11q51 33 66 53q24 36 24 137v118q0 52 51 52h135q51 0 51 -52v-170q0 -119 -41.5 -184t-134.5 -115q-64 -35 -85.5 -75.5t-21.5 -135.5v-143q0 -48 8.5 -77.5t29.5 -42t40.5 -16t55.5 -3.5h2q32 0 51 3.5t40.5 16t31.5 42 t10 77.5v47q0 51 51 51h133q51 0 51 -51v-155q0 -134 -69.5 -200.5t-196.5 -66.5h-207q-127 0 -196.5 66.5t-69.5 200.5zM311 1208v154q0 51 51 51h154q51 0 51 -51v-154q0 -51 -51 -51h-154q-51 0 -51 51z" />
<glyph unicode="&#xc0;" horiz-adv-x="917" d="M43 51l244 1536q5 28 17 39.5t40 11.5h229q28 0 40.5 -12t17.5 -39l243 -1536q3 -22 -9 -36.5t-38 -14.5h-147q-48 0 -55 51q0 3 -8 41.5t-15 81.5q-5 27 -18 39t-43 12h-164q-31 0 -44 -12t-18 -39q-5 -32 -9.5 -57t-8 -42t-4.5 -24q-7 -51 -55 -51h-148q-26 0 -38 14.5 t-9 36.5zM270 1935q-7 24 4.5 38t38.5 14h127q46 0 62 -52q9 -28 18.5 -57t18 -56t22.5 -71q15 -51 -41 -51h-127q-26 0 -39.5 12t-21.5 39q-14 43 -34 101t-28 83zM348 522q-3 -28 7 -39.5t42 -11.5h123q32 0 42 11.5t7 39.5q-47 375 -94 674q-1 10 -8.5 15.5t-15 2 t-9.5 -17.5q-47 -299 -94 -674z" />
<glyph unicode="&#xc1;" horiz-adv-x="917" d="M43 51l244 1536q5 28 17 39.5t40 11.5h229q28 0 40.5 -12t17.5 -39l243 -1536q3 -22 -9 -36.5t-38 -14.5h-147q-48 0 -55 51q0 3 -8 41.5t-15 81.5q-5 27 -18 39t-43 12h-164q-31 0 -44 -12t-18 -39q-5 -32 -9.5 -57t-8 -42t-4.5 -24q-7 -51 -55 -51h-148q-26 0 -38 14.5 t-9 36.5zM348 522q-3 -28 7 -39.5t42 -11.5h123q32 0 42 11.5t7 39.5q-47 375 -94 674q-1 10 -8.5 15.5t-15 2t-9.5 -17.5q-47 -299 -94 -674zM362 1751q18 57 34.5 106.5t25.5 77.5q16 52 61 52h127q26 0 37 -13.5t4 -38.5q-7 -22 -26 -80.5t-33 -103.5q-8 -27 -22 -39 t-40 -12h-127q-56 0 -41 51z" />
<glyph unicode="&#xc2;" horiz-adv-x="917" d="M43 51l244 1536q5 28 17 39.5t40 11.5h229q28 0 40.5 -12t17.5 -39l243 -1536q3 -22 -9 -36.5t-38 -14.5h-147q-48 0 -55 51q0 3 -8 41.5t-15 81.5q-5 27 -18 39t-43 12h-164q-31 0 -44 -12t-18 -39q-5 -32 -9.5 -57t-8 -42t-4.5 -24q-7 -51 -55 -51h-148q-26 0 -38 14.5 t-9 36.5zM145 1741l140 201q26 30 44 37.5t50 7.5h168q21 0 28.5 -0.5t22 -4t25 -13.5t22.5 -27l137 -201q15 -26 5.5 -33.5t-39.5 -7.5h-144q-10 0 -19 4.5t-17.5 14.5t-14 18t-15 23t-14.5 22l-26 41q-31 50 -66 0l-26 -41q-4 -6 -13.5 -21t-15.5 -23t-15 -18t-18.5 -15 t-19.5 -5h-144q-71 0 -35 41zM348 522q-3 -28 7 -39.5t42 -11.5h123q32 0 42 11.5t7 39.5q-47 375 -94 674q-1 10 -8.5 15.5t-15 2t-9.5 -17.5q-47 -299 -94 -674z" />
<glyph unicode="&#xc3;" horiz-adv-x="917" d="M43 51l244 1536q5 28 17 39.5t40 11.5h229q28 0 40.5 -12t17.5 -39l243 -1536q3 -22 -9 -36.5t-38 -14.5h-147q-48 0 -55 51q0 3 -8 41.5t-15 81.5q-5 27 -18 39t-43 12h-164q-31 0 -44 -12t-18 -39q-5 -32 -9.5 -57t-8 -42t-4.5 -24q-7 -51 -55 -51h-148q-26 0 -38 14.5 t-9 36.5zM129 1808q-12 25 8 47q33 35 97 71t126 36q39 0 74.5 -20t67.5 -40t61 -20q24 0 44 10t41.5 27t31.5 23q26 15 47 -11q9 -10 34.5 -46t29.5 -44q12 -24 -9 -47q-30 -32 -95 -65t-128 -33q-49 0 -109 40t-94 40q-24 0 -43.5 -10t-41 -27t-31.5 -23q-27 -15 -47 10 q-57 69 -64 82zM348 522q-3 -28 7 -39.5t42 -11.5h123q32 0 42 11.5t7 39.5q-47 375 -94 674q-1 10 -8.5 15.5t-15 2t-9.5 -17.5q-47 -299 -94 -674z" />
<glyph unicode="&#xc4;" horiz-adv-x="917" d="M43 51l244 1536q5 28 17 39.5t40 11.5h229q28 0 40.5 -12t17.5 -39l243 -1536q3 -22 -9 -36.5t-38 -14.5h-147q-48 0 -55 51q0 3 -8 41.5t-15 81.5q-5 27 -18 39t-43 12h-164q-31 0 -44 -12t-18 -39q-5 -32 -9.5 -57t-8 -42t-4.5 -24q-7 -51 -55 -51h-148q-26 0 -38 14.5 t-9 36.5zM168 1751v143q0 52 51 52h143q52 0 52 -52v-143q0 -51 -52 -51h-143q-51 0 -51 51zM348 522q-3 -28 7 -39.5t42 -11.5h123q32 0 42 11.5t7 39.5q-47 375 -94 674q-1 10 -8.5 15.5t-15 2t-9.5 -17.5q-47 -299 -94 -674zM510 1751v143q0 52 51 52h144q51 0 51 -52 v-143q0 -51 -51 -51h-144q-51 0 -51 51z" />
<glyph unicode="&#xc5;" horiz-adv-x="917" d="M43 51l244 1536q5 28 17 39.5t40 11.5h229q28 0 40.5 -12t17.5 -39l243 -1536q3 -22 -9 -36.5t-38 -14.5h-147q-48 0 -55 51q0 3 -8 41.5t-15 81.5q-5 27 -18 39t-43 12h-164q-31 0 -44 -12t-18 -39q-5 -32 -9.5 -57t-8 -42t-4.5 -24q-7 -51 -55 -51h-148q-26 0 -38 14.5 t-9 36.5zM266 1872q0 92 49.5 141t141.5 49t141 -49t49 -141t-49 -141.5t-141 -49.5t-141.5 49.5t-49.5 141.5zM348 522q-3 -28 7 -39.5t42 -11.5h123q32 0 42 11.5t7 39.5q-47 375 -94 674q-1 10 -8.5 15.5t-15 2t-9.5 -17.5q-47 -299 -94 -674zM393 1872q0 -28 18 -46 t46 -18q27 0 45 18t18 46q0 26 -18.5 44.5t-44.5 18.5q-27 0 -45.5 -18.5t-18.5 -44.5z" />
<glyph unicode="&#xc6;" horiz-adv-x="1216" d="M25 51l436 1536q13 51 65 51h578q51 0 51 -51v-133q0 -51 -51 -51h-227q-34 0 -48 -14t-14 -48v-309q0 -34 14 -47.5t48 -13.5h151q51 0 51 -51v-134q0 -51 -51 -51h-151q-34 0 -48 -13.5t-14 -47.5v-377q0 -34 14 -47.5t48 -13.5h227q51 0 51 -52v-133q0 -51 -51 -51 h-453q-41 0 -56 15.5t-15 56.5v123q0 34 -14 47.5t-48 13.5h-123q-27 0 -41 -11.5t-22 -39.5q-7 -25 -16.5 -61t-15.5 -58t-9 -35q-12 -51 -60 -51h-165q-56 0 -41 51zM401 553q-7 -29 4 -40t41 -11h72q34 0 48 13.5t14 47.5v524q0 14 -7.5 17t-15.5 -3t-10 -14 q-19 -69 -42.5 -148.5t-46 -163.5t-57.5 -222z" />
<glyph unicode="&#xc7;" horiz-adv-x="860" d="M82 225v1147q0 134 69.5 200t196.5 66h205q127 0 196.5 -66t69.5 -200v-155q0 -52 -51 -52h-133q-51 0 -51 52v47q0 49 -6.5 77t-25 41.5t-38.5 17t-59 3.5h-13q-34 0 -53 -3.5t-38 -16.5t-26.5 -42t-7.5 -77v-889q0 -48 7.5 -77t26 -42t37.5 -16.5t54 -3.5h13 q37 0 57 3.5t39 17t26 42t7 76.5v47q0 51 51 51h133q27 0 39 -12t12 -39v-197q0 -64 -28.5 -112t-72.5 -71.5t-88.5 -33.5t-84.5 -8q-19 0 -19 -18q0 -13 6 -21.5t11.5 -11.5t19.5 -8q76 -30 76 -146q0 -191 -242 -174q-45 3 -45 47v66q0 25 10 35t35 10h11h12.5t11.5 0.5 t12 2t9.5 4.5t8.5 7.5t5 11t2 15.5q0 34 -10.5 42.5t-65.5 12.5q-20 3 -20 23v57q0 41 -29 41q-64 0 -122 24t-99 78t-41 127z" />
<glyph unicode="&#xc8;" horiz-adv-x="739" d="M102 72v1495q0 41 15.5 56t56.5 15h453q51 0 51 -51v-133q0 -51 -51 -51h-228q-34 0 -47.5 -14t-13.5 -48v-309q0 -34 13.5 -47.5t47.5 -13.5h152q51 0 51 -51v-134q0 -51 -51 -51h-152q-34 0 -47.5 -13.5t-13.5 -47.5v-377q0 -34 13.5 -47.5t47.5 -13.5h228q51 0 51 -52 v-133q0 -51 -51 -51h-453q-41 0 -56.5 15.5t-15.5 56.5zM195 1935q-7 24 4.5 38t38.5 14h127q45 0 61 -52q9 -28 18.5 -57t18 -56t22.5 -71q15 -51 -41 -51h-127q-26 0 -39.5 12t-21.5 39q-14 44 -33.5 102t-27.5 82z" />
<glyph unicode="&#xc9;" horiz-adv-x="739" d="M102 72v1495q0 41 15.5 56t56.5 15h453q51 0 51 -51v-133q0 -51 -51 -51h-228q-34 0 -47.5 -14t-13.5 -48v-309q0 -34 13.5 -47.5t47.5 -13.5h152q51 0 51 -51v-134q0 -51 -51 -51h-152q-34 0 -47.5 -13.5t-13.5 -47.5v-377q0 -34 13.5 -47.5t47.5 -13.5h228q51 0 51 -52 v-133q0 -51 -51 -51h-453q-41 0 -56.5 15.5t-15.5 56.5zM270 1751q18 57 34.5 106.5t25.5 77.5q16 52 61 52h127q26 0 37 -13.5t4 -38.5q-7 -22 -26 -80.5t-33 -103.5q-8 -27 -22 -39t-40 -12h-127q-56 0 -41 51z" />
<glyph unicode="&#xca;" horiz-adv-x="739" d="M74 1741l139 201q26 30 44 37.5t50 7.5h168q21 0 28.5 -0.5t22 -4t25 -13.5t22.5 -27l138 -201q14 -17 10 -26t-14.5 -12t-30.5 -3h-144q-10 0 -19 4.5t-17 14t-14 18t-15 23.5t-14 22l-27 41q-31 50 -66 0l-26 -41q-4 -6 -13.5 -21t-15.5 -23t-15 -18t-18.5 -15 t-19.5 -5h-143q-71 0 -35 41zM102 72v1495q0 41 15.5 56t56.5 15h453q51 0 51 -51v-133q0 -51 -51 -51h-228q-34 0 -47.5 -14t-13.5 -48v-309q0 -34 13.5 -47.5t47.5 -13.5h152q51 0 51 -51v-134q0 -51 -51 -51h-152q-34 0 -47.5 -13.5t-13.5 -47.5v-377q0 -34 13.5 -47.5 t47.5 -13.5h228q51 0 51 -52v-133q0 -51 -51 -51h-453q-41 0 -56.5 15.5t-15.5 56.5z" />
<glyph unicode="&#xcb;" horiz-adv-x="739" d="M94 1751v143q0 52 51 52h144q51 0 51 -52v-143q0 -51 -51 -51h-144q-51 0 -51 51zM102 72v1495q0 41 15.5 56t56.5 15h453q51 0 51 -51v-133q0 -51 -51 -51h-228q-34 0 -47.5 -14t-13.5 -48v-309q0 -34 13.5 -47.5t47.5 -13.5h152q51 0 51 -51v-134q0 -51 -51 -51h-152 q-34 0 -47.5 -13.5t-13.5 -47.5v-377q0 -34 13.5 -47.5t47.5 -13.5h228q51 0 51 -52v-133q0 -51 -51 -51h-453q-41 0 -56.5 15.5t-15.5 56.5zM436 1751v143q0 52 51 52h144q51 0 51 -52v-143q0 -51 -51 -51h-144q-51 0 -51 51z" />
<glyph unicode="&#xcc;" horiz-adv-x="440" d="M25 1935q-7 24 4.5 38t38.5 14h127q45 0 61 -52q9 -28 18.5 -57t18 -56t22.5 -71q15 -51 -41 -51h-127q-26 0 -39.5 12t-21.5 39q-14 44 -33.5 102t-27.5 82zM102 51v1536q0 51 52 51h133q51 0 51 -51v-1536q0 -51 -51 -51h-133q-52 0 -52 51z" />
<glyph unicode="&#xcd;" horiz-adv-x="440" d="M102 51v1536q0 51 52 51h133q51 0 51 -51v-1536q0 -51 -51 -51h-133q-52 0 -52 51zM111 1751q14 44 22.5 71t18 56t18.5 57q16 52 61 52h127q26 0 37 -13.5t4 -38.5q-7 -22 -26 -80.5t-33 -103.5q-8 -27 -21.5 -39t-39.5 -12h-127q-56 0 -41 51z" />
<glyph unicode="&#xce;" horiz-adv-x="440" d="M-100 1741l139 201q26 30 44 37.5t50 7.5h168q21 0 28.5 -0.5t22 -4t25 -13.5t22.5 -27l138 -201q14 -17 10 -26t-14.5 -12t-30.5 -3h-144q-10 0 -19 4.5t-17 14t-14 18t-15 23.5t-14 22l-27 41q-31 50 -66 0l-26 -41q-4 -6 -13.5 -21t-15.5 -23t-15 -18t-18.5 -15 t-19.5 -5h-144q-70 0 -34 41zM102 51v1536q0 51 52 51h133q51 0 51 -51v-1536q0 -51 -51 -51h-133q-52 0 -52 51z" />
<glyph unicode="&#xcf;" horiz-adv-x="440" d="M-80 1751v143q0 52 51 52h144q51 0 51 -52v-143q0 -51 -51 -51h-144q-51 0 -51 51zM102 51v1536q0 51 52 51h133q51 0 51 -51v-1536q0 -51 -51 -51h-133q-52 0 -52 51zM262 1751v143q0 52 51 52h144q51 0 51 -52v-143q0 -51 -51 -51h-144q-51 0 -51 51z" />
<glyph unicode="&#xd0;" horiz-adv-x="964" d="M10 786v134q0 51 51 51h41q23 0 32 9t9 32v555q0 41 15.5 56t56.5 15h401q127 0 197 -66t70 -200v-1106q0 -134 -70 -200t-197 -66h-401q-41 0 -56.5 15.5t-15.5 56.5v622q0 23 -9 32t-32 9h-41q-51 0 -51 51zM379 293q0 -34 11.5 -45.5t45.5 -11.5h62q41 0 63.5 3.5 t44 16.5t30.5 42t9 77v889q0 48 -9 77t-30.5 42t-44 16.5t-63.5 3.5h-62q-34 0 -45.5 -11.5t-11.5 -45.5v-334q0 -23 9 -32t32 -9h41q51 0 51 -51v-134q0 -51 -51 -51h-41q-23 0 -32 -9t-9 -32v-401z" />
<glyph unicode="&#xd1;" horiz-adv-x="1011" d="M102 51v1536q0 51 52 51h145q73 0 90 -65q55 -194 264 -914q6 -23 13 -26.5t10.5 5.5t3.5 21l-6 928q0 51 51 51h133q51 0 51 -51v-1536q0 -51 -51 -51h-139q-72 0 -90 66q-199 731 -264 946q-7 25 -17 23q-10 -3 -10 -38v-946q0 -51 -51 -51h-133q-52 0 -52 51z M178 1808q-12 25 8 47q32 35 97 71t127 36q48 0 108 -40t94 -40q24 0 44 10t41.5 27t31.5 23q26 15 47 -11q9 -10 34.5 -46t29.5 -44q12 -24 -9 -47q-30 -32 -95 -65t-128 -33q-48 0 -108 40t-94 40q-24 0 -44 -10t-41.5 -27t-31.5 -23q-27 -15 -47 10q-58 69 -64 82z" />
<glyph unicode="&#xd2;" d="M82 266v1106q0 134 69.5 200t196.5 66h207q127 0 196.5 -66t69.5 -200v-1106q0 -134 -69.5 -200t-196.5 -66h-207q-127 0 -196.5 66t-69.5 200zM248 1935q-7 24 4.5 38t38.5 14h127q45 0 61 -52q9 -28 25.5 -77.5t34.5 -106.5q15 -51 -41 -51h-127q-26 0 -40 12t-22 39 q-14 44 -33.5 102t-27.5 82zM317 395q0 -95 28 -127t99 -32h14h-1q73 0 101 32t28 127v848q0 95 -28 127.5t-101 32.5h-2h2h2h3h3h2h2h2h1h1h2h1h1h1h1h1h1h1h-1h-1h-1h-1h-1h-1h-1h-1h-1h-1h-1h-1h-1h-1h-1h-1h-1h-1h-1h-1h-1h-1h-1h-1h-1h-1h-1h-1h-10q-70 0 -98.5 -32.5 t-28.5 -127.5v-848z" />
<glyph unicode="&#xd3;" d="M82 266v1106q0 134 69.5 200t196.5 66h207q127 0 196.5 -66t69.5 -200v-1106q0 -134 -69.5 -200t-196.5 -66h-207q-127 0 -196.5 66t-69.5 200zM317 395q0 -95 28 -127t99 -32h14h-1q73 0 101 32t28 127v848q0 95 -28 127.5t-101 32.5h-2h2h2h3h3h2h2h2h1h1h2h1h1h1h1h1 h1h1h-1h-1h-1h-1h-1h-1h-1h-1h-1h-1h-1h-1h-1h-1h-1h-1h-1h-1h-1h-1h-1h-1h-1h-1h-1h-1h-1h-1h-10q-70 0 -98.5 -32.5t-28.5 -127.5v-848zM350 1751q18 57 34.5 106.5t25.5 77.5q16 52 61 52h127q26 0 37 -13.5t4 -38.5q-7 -22 -26 -80.5t-33 -103.5q-8 -27 -22 -39t-40 -12 h-127q-56 0 -41 51z" />
<glyph unicode="&#xd4;" d="M82 266v1106q0 134 69.5 200t196.5 66h207q127 0 196.5 -66t69.5 -200v-1106q0 -134 -69.5 -200t-196.5 -66h-207q-127 0 -196.5 66t-69.5 200zM133 1741l139 201q26 30 44.5 37.5t50.5 7.5h168q21 0 28.5 -0.5t22 -4t25 -13.5t22.5 -27l137 -201q14 -17 10 -26 t-14.5 -12t-30.5 -3h-143q-10 0 -19 4.5t-17.5 14.5t-14 18t-15 23t-14.5 22l-27 41q-31 50 -65 0l-27 -41q-4 -6 -13.5 -21t-15.5 -23t-15 -18t-18.5 -15t-19.5 -5h-143q-71 0 -35 41zM317 395q0 -95 28 -127t99 -32h14h-1q73 0 101 32t28 127v848q0 95 -28 127.5 t-101 32.5h-2h2h2h3h3h2h2h2h1h1h2h1h1h1h1h1h1h1h-1h-1h-1h-1h-1h-1h-1h-1h-1h-1h-1h-1h-1h-1h-1h-1h-1h-1h-1h-1h-1h-1h-1h-1h-1h-1h-1h-1h-10q-70 0 -98.5 -32.5t-28.5 -127.5v-848z" />
<glyph unicode="&#xd5;" d="M82 266v1106q0 134 69.5 200t196.5 66h207q127 0 196.5 -66t69.5 -200v-1106q0 -134 -69.5 -200t-196.5 -66h-207q-127 0 -196.5 66t-69.5 200zM121 1808q-12 25 8 47q33 35 97 71t126 36q39 0 74.5 -20t67.5 -40t61 -20q24 0 44 10t41.5 27t31.5 23q26 15 47 -11 q8 -10 33.5 -46t29.5 -44q7 -11 6 -22t-14 -25q-30 -32 -95 -65t-128 -33q-39 0 -74.5 20t-67.5 40t-61 20q-24 0 -44 -10t-41.5 -27t-31.5 -23q-27 -15 -47 10q-55 66 -63 82zM317 395q0 -95 28 -127t99 -32h14h-1q73 0 101 32t28 127v848q0 95 -28 127.5t-101 32.5h-2h2h2 h3h3h2h2h2h1h1h2h1h1h1h1h1h1h1h-1h-1h-1h-1h-1h-1h-1h-1h-1h-1h-1h-1h-1h-1h-1h-1h-1h-1h-1h-1h-1h-1h-1h-1h-1h-1h-1h-1h-10q-70 0 -98.5 -32.5t-28.5 -127.5v-848z" />
<glyph unicode="&#xd6;" d="M82 266v1106q0 134 69.5 200t196.5 66h207q127 0 196.5 -66t69.5 -200v-1106q0 -134 -69.5 -200t-196.5 -66h-207q-127 0 -196.5 66t-69.5 200zM158 1751v143q0 52 51 52h143q51 0 51 -52v-143q0 -51 -51 -51h-143q-51 0 -51 51zM317 395q0 -95 28 -127t99 -32h14h-1 q73 0 101 32t28 127v848q0 95 -28 127.5t-101 32.5h-2h2h2h3h3h2h2h2h1h1h2h1h1h1h1h1h1h1h-1h-1h-1h-1h-1h-1h-1h-1h-1h-1h-1h-1h-1h-1h-1h-1h-1h-1h-1h-1h-1h-1h-1h-1h-1h-1h-1h-1h-10q-70 0 -98.5 -32.5t-28.5 -127.5v-848zM500 1751v143q0 52 51 52h143q51 0 51 -52 v-143q0 -51 -51 -51h-143q-51 0 -51 51z" />
<glyph unicode="&#xd7;" horiz-adv-x="630" d="M78 692q-29 29 2 60l88 88q15 15 15 25.5t-15 25.5l-90 88q-28 29 0 57l65 66q29 29 58 0l88 -88q17 -17 26.5 -17t26.5 17l88 88q28 28 57 0l66 -66q29 -28 0 -57l-88 -88q-17 -15 -17 -25.5t17 -25.5l88 -90q27 -31 0 -58l-66 -63q-29 -29 -57 0l-88 88 q-17 15 -26.5 15t-26.5 -15l-88 -88q-29 -29 -58 0z" />
<glyph unicode="&#xd8;" d="M82 236v1136q0 134 69.5 200t196.5 66h115h61q2 9 3 14t3.5 11.5t4.5 15.5q5 22 14.5 31.5t30.5 9.5h92q40 0 30 -43l-14 -63q53 -17 93 -80t40 -133v-1135q0 -134 -69.5 -200t-196.5 -66h-115h-69l-11 -41q-5 -24 -11.5 -32.5t-26.5 -8.5h-89q-42 0 -36 43l12 66 q-47 12 -87 76t-40 133zM317 520q0 -25 2.5 -33t6.5 1.5t8 31.5q37 210 74.5 450t66.5 406q3 17 -1.5 22t-16.5 5h-13q-39 0 -59 -3.5t-37.5 -17t-24 -41.5t-6.5 -77v-744zM419 258.5q1 -5.5 1 -9.5t3 -6.5t4.5 -4t5 -2t4.5 -0.5h4h3h13q40 0 60.5 3.5t38.5 17t24 41.5t6 77 v766q0 34 -5 32q-5 -4 -10 -34q-36 -199 -151 -867q-2 -8 -1 -13.5z" />
<glyph unicode="&#xd9;" d="M82 266v1321q0 51 51 51h133q51 0 51 -51v-1192q0 -95 28 -127t99 -32h13q73 0 101 32t28 127v1192q0 51 51 51h133q51 0 51 -51v-1321q0 -134 -69.5 -200t-196.5 -66h-207q-127 0 -196.5 66t-69.5 200zM260 1935q-7 24 4.5 38t38.5 14h127q46 0 62 -52q9 -28 18.5 -57 t18 -56t22.5 -71q15 -51 -41 -51h-127q-26 0 -39.5 12t-21.5 39q-14 43 -34 101t-28 83z" />
<glyph unicode="&#xda;" d="M82 266v1321q0 51 51 51h133q51 0 51 -51v-1192q0 -95 28 -127t99 -32h13q73 0 101 32t28 127v1192q0 51 51 51h133q51 0 51 -51v-1321q0 -134 -69.5 -200t-196.5 -66h-207q-127 0 -196.5 66t-69.5 200zM348 1751q18 57 34.5 106.5t25.5 77.5q16 52 61 52h127 q26 0 37 -13.5t4 -38.5q-7 -22 -26 -80.5t-33 -103.5q-8 -27 -22 -39t-40 -12h-127q-56 0 -41 51z" />
<glyph unicode="&#xdb;" d="M82 266v1321q0 51 51 51h133q51 0 51 -51v-1192q0 -95 28 -127t99 -32h13q73 0 101 32t28 127v1192q0 51 51 51h133q51 0 51 -51v-1321q0 -134 -69.5 -200t-196.5 -66h-207q-127 0 -196.5 66t-69.5 200zM133 1741l139 201q26 30 44.5 37.5t50.5 7.5h168q21 0 28.5 -0.5 t22 -4t25 -13.5t22.5 -27l137 -201q14 -17 10 -26t-14.5 -12t-30.5 -3h-143q-10 0 -19 4.5t-17.5 14.5t-14 18t-15 23t-14.5 22l-27 41q-31 50 -65 0l-27 -41q-4 -6 -13.5 -21t-15.5 -23t-15 -18t-18.5 -15t-19.5 -5h-143q-71 0 -35 41z" />
<glyph unicode="&#xdc;" d="M82 266v1321q0 51 51 51h133q51 0 51 -51v-1192q0 -95 28 -127t99 -32h13q73 0 101 32t28 127v1192q0 51 51 51h133q51 0 51 -51v-1321q0 -134 -69.5 -200t-196.5 -66h-207q-127 0 -196.5 66t-69.5 200zM158 1751v143q0 52 51 52h143q51 0 51 -52v-143q0 -51 -51 -51 h-143q-51 0 -51 51zM500 1751v143q0 52 51 52h143q51 0 51 -52v-143q0 -51 -51 -51h-143q-51 0 -51 51z" />
<glyph unicode="&#xdd;" horiz-adv-x="837" d="M14 1591q-17 47 47 47h156q20 0 29 -11t18 -36l137 -407q4 -13 10.5 -18t12.5 0t10 18l139 407q9 25 18.5 36t29.5 11h155q30 0 43 -12t4 -35q-2 -5 -41.5 -105.5t-83 -210t-88.5 -222.5t-63 -154q-10 -23 -10 -63v-785q0 -51 -52 -51h-133q-51 0 -51 51v785q0 40 -10 63 q-36 85 -149 368t-128 324zM309 1751q18 57 34.5 106.5t25.5 77.5q16 52 61 52h127q26 0 37 -13.5t4 -38.5q-7 -22 -26 -80.5t-33 -103.5q-8 -27 -22 -39t-40 -12h-127q-56 0 -41 51z" />
<glyph unicode="&#xde;" horiz-adv-x="882" d="M102 51v1536q0 51 52 51h133q51 0 51 -51v-229q0 -34 13.5 -48t47.5 -14h176q127 0 197 -66t70 -200v-422q0 -134 -70 -200t-197 -66h-176q-31 0 -45.5 -11.5t-15.5 -39.5v-240q0 -51 -51 -51h-133q-52 0 -52 51zM338 629q1 -28 15.5 -39.5t45.5 -11.5h58q41 0 64 3.5 t45 16.5t31 42t9 77v205q0 48 -9 77t-31 42t-45 16.5t-64 3.5h-58q-34 0 -47.5 -14t-13.5 -48v-370z" />
<glyph unicode="&#xdf;" horiz-adv-x="1724" d="M61 266v156q0 51 52 51h133q51 0 51 -51v-47q0 -83 31.5 -111t103.5 -28q71 0 102 28t31 111v219q0 49 -6.5 77t-24 41.5t-37.5 17t-59 3.5h-110q-127 0 -197 66.5t-70 201.5v371q0 134 70 200t197 66h207q127 0 196.5 -66t69.5 -200v-155q0 -52 -51 -52h-134 q-51 0 -51 52v47q0 83 -31 111t-102 28q-72 0 -103.5 -28t-31.5 -111v-154q0 -38 7.5 -64.5t18 -40.5t31.5 -21.5t39.5 -9t50.5 -1.5h91q127 0 196.5 -66t69.5 -200v-441q0 -134 -69.5 -200t-196.5 -66h-207q-127 0 -197 66t-70 200zM924 266v156q0 27 12 39t39 12h133 q51 0 51 -51v-47q0 -83 31.5 -111t103.5 -28q71 0 102 28t31 111v219q0 49 -6.5 77t-24 41.5t-37.5 17t-59 3.5h-110q-127 0 -196.5 66.5t-69.5 201.5v371q0 134 69.5 200t196.5 66h207q127 0 196.5 -66t69.5 -200v-155q0 -52 -51 -52h-133q-52 0 -52 52v47q0 83 -31 111 t-102 28q-72 0 -103.5 -28t-31.5 -111v-154q0 -48 9.5 -76.5t32 -41.5t44.5 -16t62 -3h90q127 0 196.5 -66t69.5 -200v-441q0 -134 -69.5 -200t-196.5 -66h-207q-127 0 -196.5 66t-69.5 200z" />
<glyph unicode="&#xe0;" horiz-adv-x="917" d="M43 51l244 1536q5 28 17 39.5t40 11.5h229q28 0 40.5 -12t17.5 -39l243 -1536q3 -22 -9 -36.5t-38 -14.5h-147q-48 0 -55 51q0 3 -8 41.5t-15 81.5q-5 27 -18 39t-43 12h-164q-31 0 -44 -12t-18 -39q-5 -32 -9.5 -57t-8 -42t-4.5 -24q-7 -51 -55 -51h-148q-26 0 -38 14.5 t-9 36.5zM270 1935q-7 24 4.5 38t38.5 14h127q46 0 62 -52q9 -28 18.5 -57t18 -56t22.5 -71q15 -51 -41 -51h-127q-26 0 -39.5 12t-21.5 39q-14 43 -34 101t-28 83zM348 522q-3 -28 7 -39.5t42 -11.5h123q32 0 42 11.5t7 39.5q-47 375 -94 674q-1 10 -8.5 15.5t-15 2 t-9.5 -17.5q-47 -299 -94 -674z" />
<glyph unicode="&#xe1;" horiz-adv-x="917" d="M43 51l244 1536q5 28 17 39.5t40 11.5h229q28 0 40.5 -12t17.5 -39l243 -1536q3 -22 -9 -36.5t-38 -14.5h-147q-48 0 -55 51q0 3 -8 41.5t-15 81.5q-5 27 -18 39t-43 12h-164q-31 0 -44 -12t-18 -39q-5 -32 -9.5 -57t-8 -42t-4.5 -24q-7 -51 -55 -51h-148q-26 0 -38 14.5 t-9 36.5zM348 522q-3 -28 7 -39.5t42 -11.5h123q32 0 42 11.5t7 39.5q-47 375 -94 674q-1 10 -8.5 15.5t-15 2t-9.5 -17.5q-47 -299 -94 -674zM362 1751q18 57 34.5 106.5t25.5 77.5q16 52 61 52h127q26 0 37 -13.5t4 -38.5q-7 -22 -26 -80.5t-33 -103.5q-8 -27 -22 -39 t-40 -12h-127q-56 0 -41 51z" />
<glyph unicode="&#xe2;" horiz-adv-x="917" d="M43 51l244 1536q5 28 17 39.5t40 11.5h229q28 0 40.5 -12t17.5 -39l243 -1536q3 -22 -9 -36.5t-38 -14.5h-147q-48 0 -55 51q0 3 -8 41.5t-15 81.5q-5 27 -18 39t-43 12h-164q-31 0 -44 -12t-18 -39q-5 -32 -9.5 -57t-8 -42t-4.5 -24q-7 -51 -55 -51h-148q-26 0 -38 14.5 t-9 36.5zM145 1741l140 201q26 30 44 37.5t50 7.5h168q21 0 28.5 -0.5t22 -4t25 -13.5t22.5 -27l137 -201q15 -26 5.5 -33.5t-39.5 -7.5h-144q-10 0 -19 4.5t-17.5 14.5t-14 18t-15 23t-14.5 22l-26 41q-31 50 -66 0l-26 -41q-4 -6 -13.5 -21t-15.5 -23t-15 -18t-18.5 -15 t-19.5 -5h-144q-71 0 -35 41zM348 522q-3 -28 7 -39.5t42 -11.5h123q32 0 42 11.5t7 39.5q-47 375 -94 674q-1 10 -8.5 15.5t-15 2t-9.5 -17.5q-47 -299 -94 -674z" />
<glyph unicode="&#xe3;" horiz-adv-x="917" d="M43 51l244 1536q5 28 17 39.5t40 11.5h229q28 0 40.5 -12t17.5 -39l243 -1536q3 -22 -9 -36.5t-38 -14.5h-147q-48 0 -55 51q0 3 -8 41.5t-15 81.5q-5 27 -18 39t-43 12h-164q-31 0 -44 -12t-18 -39q-5 -32 -9.5 -57t-8 -42t-4.5 -24q-7 -51 -55 -51h-148q-26 0 -38 14.5 t-9 36.5zM129 1808q-12 25 8 47q33 35 97 71t126 36q39 0 74.5 -20t67.5 -40t61 -20q24 0 44 10t41.5 27t31.5 23q26 15 47 -11q9 -10 34.5 -46t29.5 -44q12 -24 -9 -47q-30 -32 -95 -65t-128 -33q-49 0 -109 40t-94 40q-24 0 -43.5 -10t-41 -27t-31.5 -23q-27 -15 -47 10 q-57 69 -64 82zM348 522q-3 -28 7 -39.5t42 -11.5h123q32 0 42 11.5t7 39.5q-47 375 -94 674q-1 10 -8.5 15.5t-15 2t-9.5 -17.5q-47 -299 -94 -674z" />
<glyph unicode="&#xe4;" horiz-adv-x="917" d="M43 51l244 1536q5 28 17 39.5t40 11.5h229q28 0 40.5 -12t17.5 -39l243 -1536q3 -22 -9 -36.5t-38 -14.5h-147q-48 0 -55 51q0 3 -8 41.5t-15 81.5q-5 27 -18 39t-43 12h-164q-31 0 -44 -12t-18 -39q-5 -32 -9.5 -57t-8 -42t-4.5 -24q-7 -51 -55 -51h-148q-26 0 -38 14.5 t-9 36.5zM168 1751v143q0 52 51 52h143q52 0 52 -52v-143q0 -51 -52 -51h-143q-51 0 -51 51zM348 522q-3 -28 7 -39.5t42 -11.5h123q32 0 42 11.5t7 39.5q-47 375 -94 674q-1 10 -8.5 15.5t-15 2t-9.5 -17.5q-47 -299 -94 -674zM510 1751v143q0 52 51 52h144q51 0 51 -52 v-143q0 -51 -51 -51h-144q-51 0 -51 51z" />
<glyph unicode="&#xe5;" horiz-adv-x="917" d="M43 51l244 1536q5 28 17 39.5t40 11.5h229q28 0 40.5 -12t17.5 -39l243 -1536q3 -22 -9 -36.5t-38 -14.5h-147q-48 0 -55 51q0 3 -8 41.5t-15 81.5q-5 27 -18 39t-43 12h-164q-31 0 -44 -12t-18 -39q-5 -32 -9.5 -57t-8 -42t-4.5 -24q-7 -51 -55 -51h-148q-26 0 -38 14.5 t-9 36.5zM266 1872q0 92 49.5 141t141.5 49t141 -49t49 -141t-49 -141.5t-141 -49.5t-141.5 49.5t-49.5 141.5zM348 522q-3 -28 7 -39.5t42 -11.5h123q32 0 42 11.5t7 39.5q-47 375 -94 674q-1 10 -8.5 15.5t-15 2t-9.5 -17.5q-47 -299 -94 -674zM393 1872q0 -28 18 -46 t46 -18q27 0 45 18t18 46q0 26 -18.5 44.5t-44.5 18.5q-27 0 -45.5 -18.5t-18.5 -44.5z" />
<glyph unicode="&#xe6;" horiz-adv-x="1216" d="M25 51l436 1536q13 51 65 51h578q51 0 51 -51v-133q0 -51 -51 -51h-227q-34 0 -48 -14t-14 -48v-309q0 -34 14 -47.5t48 -13.5h151q51 0 51 -51v-134q0 -51 -51 -51h-151q-34 0 -48 -13.5t-14 -47.5v-377q0 -34 14 -47.5t48 -13.5h227q51 0 51 -52v-133q0 -51 -51 -51 h-453q-41 0 -56 15.5t-15 56.5v123q0 34 -14 47.5t-48 13.5h-123q-27 0 -41 -11.5t-22 -39.5q-7 -25 -16.5 -61t-15.5 -58t-9 -35q-12 -51 -60 -51h-165q-56 0 -41 51zM401 553q-7 -29 4 -40t41 -11h72q34 0 48 13.5t14 47.5v524q0 14 -7.5 17t-15.5 -3t-10 -14 q-19 -69 -42.5 -148.5t-46 -163.5t-57.5 -222z" />
<glyph unicode="&#xe7;" horiz-adv-x="860" d="M82 225v1147q0 134 69.5 200t196.5 66h205q127 0 196.5 -66t69.5 -200v-155q0 -52 -51 -52h-133q-51 0 -51 52v47q0 49 -6.5 77t-25 41.5t-38.5 17t-59 3.5h-13q-34 0 -53 -3.5t-38 -16.5t-26.5 -42t-7.5 -77v-889q0 -48 7.5 -77t26 -42t37.5 -16.5t54 -3.5h13 q37 0 57 3.5t39 17t26 42t7 76.5v47q0 51 51 51h133q27 0 39 -12t12 -39v-197q0 -64 -28.5 -112t-72.5 -71.5t-88.5 -33.5t-84.5 -8q-19 0 -19 -18q0 -13 6 -21.5t11.5 -11.5t19.5 -8q76 -30 76 -146q0 -191 -242 -174q-45 3 -45 47v66q0 25 10 35t35 10h11h12.5t11.5 0.5 t12 2t9.5 4.5t8.5 7.5t5 11t2 15.5q0 34 -10.5 42.5t-65.5 12.5q-20 3 -20 23v57q0 41 -29 41q-64 0 -122 24t-99 78t-41 127z" />
<glyph unicode="&#xe8;" horiz-adv-x="739" d="M102 72v1495q0 41 15.5 56t56.5 15h453q51 0 51 -51v-133q0 -51 -51 -51h-228q-34 0 -47.5 -14t-13.5 -48v-309q0 -34 13.5 -47.5t47.5 -13.5h152q51 0 51 -51v-134q0 -51 -51 -51h-152q-34 0 -47.5 -13.5t-13.5 -47.5v-377q0 -34 13.5 -47.5t47.5 -13.5h228q51 0 51 -52 v-133q0 -51 -51 -51h-453q-41 0 -56.5 15.5t-15.5 56.5zM195 1935q-7 24 4.5 38t38.5 14h127q45 0 61 -52q9 -28 18.5 -57t18 -56t22.5 -71q15 -51 -41 -51h-127q-26 0 -39.5 12t-21.5 39q-14 44 -33.5 102t-27.5 82z" />
<glyph unicode="&#xe9;" horiz-adv-x="739" d="M102 72v1495q0 41 15.5 56t56.5 15h453q51 0 51 -51v-133q0 -51 -51 -51h-228q-34 0 -47.5 -14t-13.5 -48v-309q0 -34 13.5 -47.5t47.5 -13.5h152q51 0 51 -51v-134q0 -51 -51 -51h-152q-34 0 -47.5 -13.5t-13.5 -47.5v-377q0 -34 13.5 -47.5t47.5 -13.5h228q51 0 51 -52 v-133q0 -51 -51 -51h-453q-41 0 -56.5 15.5t-15.5 56.5zM270 1751q18 57 34.5 106.5t25.5 77.5q16 52 61 52h127q26 0 37 -13.5t4 -38.5q-7 -22 -26 -80.5t-33 -103.5q-8 -27 -22 -39t-40 -12h-127q-56 0 -41 51z" />
<glyph unicode="&#xea;" horiz-adv-x="739" d="M74 1741l139 201q26 30 44 37.5t50 7.5h168q21 0 28.5 -0.5t22 -4t25 -13.5t22.5 -27l138 -201q14 -17 10 -26t-14.5 -12t-30.5 -3h-144q-10 0 -19 4.5t-17 14t-14 18t-15 23.5t-14 22l-27 41q-31 50 -66 0l-26 -41q-4 -6 -13.5 -21t-15.5 -23t-15 -18t-18.5 -15 t-19.5 -5h-143q-71 0 -35 41zM102 72v1495q0 41 15.5 56t56.5 15h453q51 0 51 -51v-133q0 -51 -51 -51h-228q-34 0 -47.5 -14t-13.5 -48v-309q0 -34 13.5 -47.5t47.5 -13.5h152q51 0 51 -51v-134q0 -51 -51 -51h-152q-34 0 -47.5 -13.5t-13.5 -47.5v-377q0 -34 13.5 -47.5 t47.5 -13.5h228q51 0 51 -52v-133q0 -51 -51 -51h-453q-41 0 -56.5 15.5t-15.5 56.5z" />
<glyph unicode="&#xeb;" horiz-adv-x="739" d="M94 1751v143q0 52 51 52h144q51 0 51 -52v-143q0 -51 -51 -51h-144q-51 0 -51 51zM102 72v1495q0 41 15.5 56t56.5 15h453q51 0 51 -51v-133q0 -51 -51 -51h-228q-34 0 -47.5 -14t-13.5 -48v-309q0 -34 13.5 -47.5t47.5 -13.5h152q51 0 51 -51v-134q0 -51 -51 -51h-152 q-34 0 -47.5 -13.5t-13.5 -47.5v-377q0 -34 13.5 -47.5t47.5 -13.5h228q51 0 51 -52v-133q0 -51 -51 -51h-453q-41 0 -56.5 15.5t-15.5 56.5zM436 1751v143q0 52 51 52h144q51 0 51 -52v-143q0 -51 -51 -51h-144q-51 0 -51 51z" />
<glyph unicode="&#xec;" horiz-adv-x="440" d="M25 1935q-7 24 4.5 38t38.5 14h127q45 0 61 -52q9 -28 18.5 -57t18 -56t22.5 -71q15 -51 -41 -51h-127q-26 0 -39.5 12t-21.5 39q-14 44 -33.5 102t-27.5 82zM102 51v1536q0 51 52 51h133q51 0 51 -51v-1536q0 -51 -51 -51h-133q-52 0 -52 51z" />
<glyph unicode="&#xed;" horiz-adv-x="440" d="M102 51v1536q0 51 52 51h133q51 0 51 -51v-1536q0 -51 -51 -51h-133q-52 0 -52 51zM111 1751q14 44 22.5 71t18 56t18.5 57q16 52 61 52h127q26 0 37 -13.5t4 -38.5q-7 -22 -26 -80.5t-33 -103.5q-8 -27 -21.5 -39t-39.5 -12h-127q-56 0 -41 51z" />
<glyph unicode="&#xee;" horiz-adv-x="440" d="M-100 1741l139 201q26 30 44 37.5t50 7.5h168q21 0 28.5 -0.5t22 -4t25 -13.5t22.5 -27l138 -201q14 -17 10 -26t-14.5 -12t-30.5 -3h-144q-10 0 -19 4.5t-17 14t-14 18t-15 23.5t-14 22l-27 41q-31 50 -66 0l-26 -41q-4 -6 -13.5 -21t-15.5 -23t-15 -18t-18.5 -15 t-19.5 -5h-144q-70 0 -34 41zM102 51v1536q0 51 52 51h133q51 0 51 -51v-1536q0 -51 -51 -51h-133q-52 0 -52 51z" />
<glyph unicode="&#xef;" horiz-adv-x="440" d="M-68 1751v143q0 52 52 52h143q51 0 51 -52v-143q0 -51 -51 -51h-143q-52 0 -52 51zM102 51v1536q0 51 52 51h133q51 0 51 -51v-1536q0 -51 -51 -51h-133q-52 0 -52 51zM274 1751v143q0 52 52 52h143q51 0 51 -52v-143q0 -51 -51 -51h-143q-52 0 -52 51z" />
<glyph unicode="&#xf0;" horiz-adv-x="964" d="M10 786v134q0 51 51 51h41q23 0 32 9t9 32v555q0 41 15.5 56t56.5 15h401q127 0 197 -66t70 -200v-1106q0 -134 -70 -200t-197 -66h-401q-41 0 -56.5 15.5t-15.5 56.5v622q0 23 -9 32t-32 9h-41q-51 0 -51 51zM379 293q0 -34 11.5 -45.5t45.5 -11.5h62q41 0 63.5 3.5 t44 16.5t30.5 42t9 77v889q0 48 -9 77t-30.5 42t-44 16.5t-63.5 3.5h-62q-34 0 -45.5 -11.5t-11.5 -45.5v-334q0 -23 9 -32t32 -9h41q51 0 51 -51v-134q0 -51 -51 -51h-41q-23 0 -32 -9t-9 -32v-401z" />
<glyph unicode="&#xf1;" horiz-adv-x="1011" d="M102 51v1536q0 51 52 51h145q73 0 90 -65q55 -194 264 -914q6 -23 13 -26.5t10.5 5.5t3.5 21l-6 928q0 51 51 51h133q51 0 51 -51v-1536q0 -51 -51 -51h-139q-72 0 -90 66q-199 731 -264 946q-7 25 -17 23q-10 -3 -10 -38v-946q0 -51 -51 -51h-133q-52 0 -52 51z M178 1808q-12 25 8 47q32 35 97 71t127 36q48 0 108 -40t94 -40q24 0 44 10t41.5 27t31.5 23q26 15 47 -11q9 -10 34.5 -46t29.5 -44q12 -24 -9 -47q-30 -32 -95 -65t-128 -33q-48 0 -108 40t-94 40q-24 0 -44 -10t-41.5 -27t-31.5 -23q-27 -15 -47 10q-58 69 -64 82z" />
<glyph unicode="&#xf2;" d="M82 266v1106q0 134 69.5 200t196.5 66h207q127 0 196.5 -66t69.5 -200v-1106q0 -134 -69.5 -200t-196.5 -66h-207q-127 0 -196.5 66t-69.5 200zM248 1935q-7 24 4.5 38t38.5 14h127q45 0 61 -52q9 -28 25.5 -77.5t34.5 -106.5q15 -51 -41 -51h-127q-26 0 -40 12t-22 39 q-14 44 -33.5 102t-27.5 82zM317 395q0 -95 28 -127t99 -32h14h-1q73 0 101 32t28 127v848q0 95 -28 127.5t-101 32.5h-2h2h2h3h3h2h2h2h1h1h2h1h1h1h1h1h1h1h-1h-1h-1h-1h-1h-1h-1h-1h-1h-1h-1h-1h-1h-1h-1h-1h-1h-1h-1h-1h-1h-1h-1h-1h-1h-1h-1h-1h-10q-70 0 -98.5 -32.5 t-28.5 -127.5v-848z" />
<glyph unicode="&#xf3;" d="M82 266v1106q0 134 69.5 200t196.5 66h207q127 0 196.5 -66t69.5 -200v-1106q0 -134 -69.5 -200t-196.5 -66h-207q-127 0 -196.5 66t-69.5 200zM317 395q0 -95 28 -127t99 -32h14h-1q73 0 101 32t28 127v848q0 95 -28 127.5t-101 32.5h-2h2h2h3h3h2h2h2h1h1h2h1h1h1h1h1 h1h1h-1h-1h-1h-1h-1h-1h-1h-1h-1h-1h-1h-1h-1h-1h-1h-1h-1h-1h-1h-1h-1h-1h-1h-1h-1h-1h-1h-1h-10q-70 0 -98.5 -32.5t-28.5 -127.5v-848zM350 1751q18 57 34.5 106.5t25.5 77.5q16 52 61 52h127q26 0 37 -13.5t4 -38.5q-7 -22 -26 -80.5t-33 -103.5q-8 -27 -22 -39t-40 -12 h-127q-56 0 -41 51z" />
<glyph unicode="&#xf4;" d="M82 266v1106q0 134 69.5 200t196.5 66h207q127 0 196.5 -66t69.5 -200v-1106q0 -134 -69.5 -200t-196.5 -66h-207q-127 0 -196.5 66t-69.5 200zM133 1741l139 201q26 30 44.5 37.5t50.5 7.5h168q21 0 28.5 -0.5t22 -4t25 -13.5t22.5 -27l137 -201q14 -17 10 -26 t-14.5 -12t-30.5 -3h-143q-10 0 -19 4.5t-17.5 14.5t-14 18t-15 23t-14.5 22l-27 41q-31 50 -65 0l-27 -41q-4 -6 -13.5 -21t-15.5 -23t-15 -18t-18.5 -15t-19.5 -5h-143q-71 0 -35 41zM317 395q0 -95 28 -127t99 -32h14h-1q73 0 101 32t28 127v848q0 95 -28 127.5 t-101 32.5h-2h2h2h3h3h2h2h2h1h1h2h1h1h1h1h1h1h1h-1h-1h-1h-1h-1h-1h-1h-1h-1h-1h-1h-1h-1h-1h-1h-1h-1h-1h-1h-1h-1h-1h-1h-1h-1h-1h-1h-1h-10q-70 0 -98.5 -32.5t-28.5 -127.5v-848z" />
<glyph unicode="&#xf5;" d="M82 266v1106q0 134 69.5 200t196.5 66h207q127 0 196.5 -66t69.5 -200v-1106q0 -134 -69.5 -200t-196.5 -66h-207q-127 0 -196.5 66t-69.5 200zM121 1808q-12 25 8 47q33 35 97 71t126 36q39 0 74.5 -20t67.5 -40t61 -20q24 0 44 10t41.5 27t31.5 23q26 15 47 -11 q8 -10 33.5 -46t29.5 -44q7 -11 6 -22t-14 -25q-30 -32 -95 -65t-128 -33q-39 0 -74.5 20t-67.5 40t-61 20q-24 0 -44 -10t-41.5 -27t-31.5 -23q-27 -15 -47 10q-55 66 -63 82zM317 395q0 -95 28 -127t99 -32h14h-1q73 0 101 32t28 127v848q0 95 -28 127.5t-101 32.5h-2h2h2 h3h3h2h2h2h1h1h2h1h1h1h1h1h1h1h-1h-1h-1h-1h-1h-1h-1h-1h-1h-1h-1h-1h-1h-1h-1h-1h-1h-1h-1h-1h-1h-1h-1h-1h-1h-1h-1h-1h-10q-70 0 -98.5 -32.5t-28.5 -127.5v-848z" />
<glyph unicode="&#xf6;" d="M82 266v1106q0 134 69.5 200t196.5 66h207q127 0 196.5 -66t69.5 -200v-1106q0 -134 -69.5 -200t-196.5 -66h-207q-127 0 -196.5 66t-69.5 200zM158 1751v143q0 52 51 52h143q51 0 51 -52v-143q0 -51 -51 -51h-143q-51 0 -51 51zM317 395q0 -95 28 -127t99 -32h14h-1 q73 0 101 32t28 127v848q0 95 -28 127.5t-101 32.5h-2h2h2h3h3h2h2h2h1h1h2h1h1h1h1h1h1h1h-1h-1h-1h-1h-1h-1h-1h-1h-1h-1h-1h-1h-1h-1h-1h-1h-1h-1h-1h-1h-1h-1h-1h-1h-1h-1h-1h-1h-10q-70 0 -98.5 -32.5t-28.5 -127.5v-848zM500 1751v143q0 52 51 52h143q51 0 51 -52 v-143q0 -51 -51 -51h-143q-51 0 -51 51z" />
<glyph unicode="&#xf7;" horiz-adv-x="802" d="M72 786v134q0 51 51 51h557q51 0 51 -51v-134q0 -51 -51 -51h-557q-51 0 -51 51zM283 438v144q0 51 51 51h143q51 0 51 -51v-144q0 -51 -51 -51h-143q-51 0 -51 51zM283 1124v144q0 51 51 51h143q51 0 51 -51v-144q0 -51 -51 -51h-143q-51 0 -51 51z" />
<glyph unicode="&#xf8;" d="M82 236v1136q0 134 69.5 200t196.5 66h115h61q2 9 3 14t3.5 11.5t4.5 15.5q5 22 14.5 31.5t30.5 9.5h92q40 0 30 -43l-14 -63q53 -17 93 -80t40 -133v-1135q0 -134 -69.5 -200t-196.5 -66h-115h-69l-11 -41q-5 -24 -11.5 -32.5t-26.5 -8.5h-89q-42 0 -36 43l12 66 q-47 12 -87 76t-40 133zM317 520q0 -25 2.5 -33t6.5 1.5t8 31.5q37 210 74.5 450t66.5 406q3 17 -1.5 22t-16.5 5h-13q-39 0 -59 -3.5t-37.5 -17t-24 -41.5t-6.5 -77v-744zM419 258.5q1 -5.5 1 -9.5t3 -6.5t4.5 -4t5 -2t4.5 -0.5h4h3h13q40 0 60.5 3.5t38.5 17t24 41.5t6 77 v766q0 34 -5 32q-5 -4 -10 -34q-36 -199 -151 -867q-2 -8 -1 -13.5z" />
<glyph unicode="&#xf9;" d="M82 266v1321q0 51 51 51h133q51 0 51 -51v-1192q0 -95 28 -127t99 -32h13q73 0 101 32t28 127v1192q0 51 51 51h133q51 0 51 -51v-1321q0 -134 -69.5 -200t-196.5 -66h-207q-127 0 -196.5 66t-69.5 200zM260 1935q-7 24 4.5 38t38.5 14h127q46 0 62 -52q9 -28 18.5 -57 t18 -56t22.5 -71q15 -51 -41 -51h-127q-26 0 -39.5 12t-21.5 39q-14 43 -34 101t-28 83z" />
<glyph unicode="&#xfa;" d="M82 266v1321q0 51 51 51h133q51 0 51 -51v-1192q0 -95 28 -127t99 -32h13q73 0 101 32t28 127v1192q0 51 51 51h133q51 0 51 -51v-1321q0 -134 -69.5 -200t-196.5 -66h-207q-127 0 -196.5 66t-69.5 200zM348 1751q18 57 34.5 106.5t25.5 77.5q16 52 61 52h127 q26 0 37 -13.5t4 -38.5q-7 -22 -26 -80.5t-33 -103.5q-8 -27 -22 -39t-40 -12h-127q-56 0 -41 51z" />
<glyph unicode="&#xfb;" d="M82 266v1321q0 51 51 51h133q51 0 51 -51v-1192q0 -95 28 -127t99 -32h13q73 0 101 32t28 127v1192q0 51 51 51h133q51 0 51 -51v-1321q0 -134 -69.5 -200t-196.5 -66h-207q-127 0 -196.5 66t-69.5 200zM133 1741l139 201q26 30 44.5 37.5t50.5 7.5h168q21 0 28.5 -0.5 t22 -4t25 -13.5t22.5 -27l137 -201q14 -17 10 -26t-14.5 -12t-30.5 -3h-143q-10 0 -19 4.5t-17.5 14.5t-14 18t-15 23t-14.5 22l-27 41q-31 50 -65 0l-27 -41q-4 -6 -13.5 -21t-15.5 -23t-15 -18t-18.5 -15t-19.5 -5h-143q-71 0 -35 41z" />
<glyph unicode="&#xfc;" d="M82 266v1321q0 51 51 51h133q51 0 51 -51v-1192q0 -95 28 -127t99 -32h13q73 0 101 32t28 127v1192q0 51 51 51h133q51 0 51 -51v-1321q0 -134 -69.5 -200t-196.5 -66h-207q-127 0 -196.5 66t-69.5 200zM158 1751v143q0 52 51 52h143q51 0 51 -52v-143q0 -51 -51 -51 h-143q-51 0 -51 51zM500 1751v143q0 52 51 52h143q51 0 51 -52v-143q0 -51 -51 -51h-143q-51 0 -51 51z" />
<glyph unicode="&#xfd;" horiz-adv-x="837" d="M14 1591q-17 47 47 47h156q20 0 29 -11t18 -36l137 -407q4 -13 10.5 -18t12.5 0t10 18l139 407q9 25 18.5 36t29.5 11h155q30 0 43 -12t4 -35q-2 -5 -41.5 -105.5t-83 -210t-88.5 -222.5t-63 -154q-10 -23 -10 -63v-785q0 -51 -52 -51h-133q-51 0 -51 51v785q0 40 -10 63 q-36 85 -149 368t-128 324zM309 1751q18 57 34.5 106.5t25.5 77.5q16 52 61 52h127q26 0 37 -13.5t4 -38.5q-7 -22 -26 -80.5t-33 -103.5q-8 -27 -22 -39t-40 -12h-127q-56 0 -41 51z" />
<glyph unicode="&#xfe;" horiz-adv-x="882" d="M102 51v1536q0 51 52 51h133q51 0 51 -51v-229q0 -34 13.5 -48t47.5 -14h176q127 0 197 -66t70 -200v-422q0 -134 -70 -200t-197 -66h-176q-31 0 -45.5 -11.5t-15.5 -39.5v-240q0 -51 -51 -51h-133q-52 0 -52 51zM338 629q1 -28 15.5 -39.5t45.5 -11.5h58q41 0 64 3.5 t45 16.5t31 42t9 77v205q0 48 -9 77t-31 42t-45 16.5t-64 3.5h-58q-34 0 -47.5 -14t-13.5 -48v-370z" />
<glyph unicode="&#xff;" horiz-adv-x="837" d="M14 1591q-17 47 47 47h156q20 0 29 -11t18 -36l137 -407q4 -13 10.5 -18t12.5 0t10 18l139 407q9 25 18.5 36t29.5 11h155q30 0 43 -12t4 -35q-2 -5 -41.5 -105.5t-83 -210t-88.5 -222.5t-63 -154q-10 -23 -10 -63v-785q0 -51 -52 -51h-133q-51 0 -51 51v785q0 40 -10 63 q-36 85 -149 368t-128 324zM125 1751v143q0 52 51 52h143q52 0 52 -52v-143q0 -51 -52 -51h-143q-51 0 -51 51zM467 1751v143q0 52 51 52h144q51 0 51 -52v-143q0 -51 -51 -51h-144q-51 0 -51 51z" />
<glyph unicode="&#x152;" horiz-adv-x="1222" d="M82 266v1106q0 134 69.5 200t196.5 66h762q51 0 51 -51v-133q0 -51 -51 -51h-227q-34 0 -48 -14t-14 -48v-319q0 -51 62 -51h151q51 0 51 -51v-134q0 -51 -51 -51h-151q-34 0 -48 -13.5t-14 -47.5v-377q0 -34 14 -47.5t48 -13.5h227q51 0 51 -52v-133q0 -51 -51 -51h-762 q-127 0 -196.5 66t-69.5 200zM317 375q0 -39 7 -65t18 -40.5t32 -22t40.5 -9.5t52.5 -2h57q31 0 46 12t16 39v1054q0 34 -14 48t-48 14h-57q-33 0 -52.5 -2t-40.5 -9.5t-32 -22t-18 -40.5t-7 -65v-889z" />
<glyph unicode="&#x153;" horiz-adv-x="1222" d="M82 266v1106q0 134 69.5 200t196.5 66h762q51 0 51 -51v-133q0 -51 -51 -51h-227q-34 0 -48 -14t-14 -48v-319q0 -51 62 -51h151q51 0 51 -51v-134q0 -51 -51 -51h-151q-34 0 -48 -13.5t-14 -47.5v-377q0 -34 14 -47.5t48 -13.5h227q51 0 51 -52v-133q0 -51 -51 -51h-762 q-127 0 -196.5 66t-69.5 200zM317 375q0 -39 7 -65t18 -40.5t32 -22t40.5 -9.5t52.5 -2h57q31 0 46 12t16 39v1054q0 34 -14 48t-48 14h-57q-33 0 -52.5 -2t-40.5 -9.5t-32 -22t-18 -40.5t-7 -65v-889z" />
<glyph unicode="&#x178;" horiz-adv-x="837" d="M14 1591q-17 47 47 47h156q20 0 29 -11t18 -36l137 -407q4 -13 10.5 -18t12.5 0t10 18l139 407q9 25 18.5 36t29.5 11h155q30 0 43 -12t4 -35q-2 -5 -41.5 -105.5t-83 -210t-88.5 -222.5t-63 -154q-10 -23 -10 -63v-785q0 -51 -52 -51h-133q-51 0 -51 51v785q0 40 -10 63 q-36 85 -149 368t-128 324zM125 1751v143q0 52 51 52h143q52 0 52 -52v-143q0 -51 -52 -51h-143q-51 0 -51 51zM467 1751v143q0 52 51 52h144q51 0 51 -52v-143q0 -51 -51 -51h-144q-51 0 -51 51z" />
<glyph unicode="&#x2c6;" horiz-adv-x="782" d="M74 1741l139 201q26 30 44 37.5t50 7.5h168q21 0 28.5 -0.5t22 -4t25 -13.5t22.5 -27l138 -201q14 -17 10 -26t-14.5 -12t-30.5 -3h-144q-10 0 -19 4.5t-17 14t-14 18t-15 23.5t-14 22l-27 41q-31 50 -66 0l-26 -41q-4 -6 -13.5 -21t-15.5 -23t-15 -18t-18.5 -15 t-19.5 -5h-143q-71 0 -35 41z" />
<glyph unicode="&#x2dc;" horiz-adv-x="796" d="M68 1808q-12 25 8 47q33 35 97 71t126 36q48 0 108.5 -40t94.5 -40q24 0 43.5 10t41 27t31.5 23q27 15 48 -11q8 -10 33.5 -46t29.5 -44q7 -11 6 -22t-14 -25q-30 -32 -95 -65t-128 -33q-39 0 -74.5 20t-67.5 40t-61 20q-24 0 -44 -10t-41.5 -27t-31.5 -23 q-27 -15 -47 10q-55 66 -63 82z" />
<glyph unicode="&#x2000;" horiz-adv-x="1031" />
<glyph unicode="&#x2001;" horiz-adv-x="2062" />
<glyph unicode="&#x2002;" horiz-adv-x="1031" />
<glyph unicode="&#x2003;" horiz-adv-x="2062" />
<glyph unicode="&#x2004;" horiz-adv-x="687" />
<glyph unicode="&#x2005;" horiz-adv-x="515" />
<glyph unicode="&#x2006;" horiz-adv-x="343" />
<glyph unicode="&#x2007;" horiz-adv-x="343" />
<glyph unicode="&#x2008;" horiz-adv-x="257" />
<glyph unicode="&#x2009;" horiz-adv-x="412" />
<glyph unicode="&#x200a;" horiz-adv-x="114" />
<glyph unicode="&#x2010;" horiz-adv-x="681" d="M41 786v134q0 51 51 51h498q51 0 51 -51v-134q0 -51 -51 -51h-498q-51 0 -51 51z" />
<glyph unicode="&#x2011;" horiz-adv-x="681" d="M41 786v134q0 51 51 51h498q51 0 51 -51v-134q0 -51 -51 -51h-498q-51 0 -51 51z" />
<glyph unicode="&#x2012;" horiz-adv-x="681" d="M41 786v134q0 51 51 51h498q51 0 51 -51v-134q0 -51 -51 -51h-498q-51 0 -51 51z" />
<glyph unicode="&#x2013;" horiz-adv-x="815" d="M41 786v134q0 51 51 51h631q51 0 51 -51v-134q0 -51 -51 -51h-631q-51 0 -51 51z" />
<glyph unicode="&#x2014;" horiz-adv-x="948" d="M41 786v134q0 51 51 51h764q51 0 51 -51v-134q0 -51 -51 -51h-764q-51 0 -51 51z" />
<glyph unicode="&#x2018;" horiz-adv-x="378" d="M61 1327v266q0 154 187 148q21 0 29 -11t8 -34v-21q0 -23 -6.5 -28.5t-30.5 -8.5q-20 -3 -28.5 -18t-8.5 -51q0 -16 8.5 -24t17.5 -10t29 -3q27 -2 39 -13.5t12 -37.5v-154q0 -51 -51 -51h-153q-52 0 -52 51z" />
<glyph unicode="&#x2019;" horiz-adv-x="378" d="M61 1536v154q0 51 52 51h153q51 0 51 -51v-267q0 -153 -186 -147q-21 0 -29 11t-8 34v20q0 23 6.5 28.5t30.5 8.5q19 3 28 18.5t9 51.5q0 16 -8.5 24t-17.5 10t-29 3q-52 3 -52 51z" />
<glyph unicode="&#x201a;" horiz-adv-x="378" d="M61 51v154q0 51 52 51h153q51 0 51 -51v-266q0 -154 -186 -148q-21 0 -29 11t-8 34v21q0 23 6.5 28.5t30.5 8.5q20 3 28.5 18t8.5 51q0 16 -8.5 24t-17.5 10t-29 3q-52 3 -52 51z" />
<glyph unicode="&#x201c;" horiz-adv-x="716" d="M61 1327v266q0 154 187 148q21 0 29 -11t8 -34v-21q0 -23 -6.5 -28.5t-30.5 -8.5q-20 -3 -28.5 -18t-8.5 -51q0 -16 8.5 -24t17.5 -10t29 -3q27 -2 39 -13.5t12 -37.5v-154q0 -51 -51 -51h-153q-52 0 -52 51zM399 1327v266q0 154 187 148q21 0 29 -11t8 -34v-21 q0 -23 -6.5 -28.5t-30.5 -8.5q-20 -3 -28.5 -18t-8.5 -51q0 -16 8.5 -24t17.5 -10t29 -3q27 -2 39 -13.5t12 -37.5v-154q0 -51 -51 -51h-153q-52 0 -52 51z" />
<glyph unicode="&#x201d;" horiz-adv-x="716" d="M61 1536v154q0 51 52 51h153q51 0 51 -51v-267q0 -153 -186 -147q-21 0 -29 11t-8 34v20q0 23 6.5 28.5t30.5 8.5q19 3 28 18.5t9 51.5q0 16 -8.5 24t-17.5 10t-29 3q-52 3 -52 51zM399 1536v154q0 51 52 51h153q51 0 51 -51v-267q0 -153 -186 -147q-21 0 -29 11t-8 34 v20q0 23 6.5 28.5t30.5 8.5q19 3 28 18.5t9 51.5q0 16 -8.5 24t-17.5 10t-29 3q-52 3 -52 51z" />
<glyph unicode="&#x201e;" horiz-adv-x="716" d="M61 51v154q0 51 52 51h153q51 0 51 -51v-266q0 -154 -186 -148q-21 0 -29 11t-8 34v21q0 23 6.5 28.5t30.5 8.5q20 3 28.5 18t8.5 51q0 16 -8.5 24t-17.5 10t-29 3q-52 3 -52 51zM399 51v154q0 51 52 51h153q51 0 51 -51v-266q0 -154 -186 -148q-21 0 -29 11t-8 34v21 q0 23 6.5 28.5t30.5 8.5q20 3 28.5 18t8.5 51q0 16 -8.5 24t-17.5 10t-29 3q-52 3 -52 51z" />
<glyph unicode="&#x2022;" horiz-adv-x="565" d="M102 856q0 76 52 128t129 52t128.5 -52t51.5 -128t-51.5 -128t-128.5 -52t-129 52t-52 128z" />
<glyph unicode="&#x2026;" horiz-adv-x="1136" d="M61 51v154q0 51 52 51h153q51 0 51 -51v-154q0 -51 -51 -51h-153q-52 0 -52 51zM440 51v154q0 51 52 51h153q51 0 51 -51v-154q0 -51 -51 -51h-153q-52 0 -52 51zM819 51v154q0 51 51 51h154q51 0 51 -51v-154q0 -51 -51 -51h-154q-51 0 -51 51z" />
<glyph unicode="&#x202f;" horiz-adv-x="412" />
<glyph unicode="&#x2039;" horiz-adv-x="897" d="M61 803v106q0 40 11.5 63.5t44.5 37.5l647 284q24 10 37.5 0t13.5 -37v-153q0 -47 -51 -70l-307 -143q-29 -13 -29 -32.5t29 -33.5l307 -145q51 -23 51 -70v-153q0 -27 -13.5 -37t-37.5 0l-647 285q-33 14 -44.5 36.5t-11.5 61.5z" />
<glyph unicode="&#x203a;" horiz-adv-x="897" d="M82 457v153q0 47 51 70l307 145q29 13 29 33t-29 33l-307 143q-51 23 -51 70v153q0 27 13.5 37t37.5 0l647 -284q33 -14 44.5 -37.5t11.5 -63.5v-106q0 -39 -11.5 -61.5t-44.5 -36.5l-647 -285q-24 -10 -37.5 0t-13.5 37z" />
<glyph unicode="&#x205f;" horiz-adv-x="515" />
<glyph unicode="&#x20ac;" horiz-adv-x="1056" d="M61 582v133q0 51 52 51h41q23 0 32 9t9 32v31q0 23 -9 32t-32 9h-41q-52 0 -52 51v133q0 51 52 51h41q23 0 32 9t9 32v217q0 134 69.5 200t196.5 66h207q127 0 196.5 -66t69.5 -200v-155q0 -52 -51 -52h-133q-52 0 -52 52v47q0 49 -6 77t-24 41.5t-38.5 17t-60.5 3.5h-12 q-39 0 -59 -3.5t-37.5 -17t-24 -41.5t-6.5 -77v-109q0 -23 9 -32t32 -9h133q51 0 51 -51v-133q0 -51 -51 -51h-153q-23 0 -32 -9t-9 -32v-31q0 -23 9 -32t32 -9h153q51 0 51 -51v-133q0 -52 -51 -52h-133q-23 0 -32 -9t-9 -32v-114q0 -49 6.5 -77t24 -41.5t37.5 -17t59 -3.5 h12q40 0 60.5 3.5t38.5 17t24 41.5t6 77v47q0 51 52 51h133q27 0 39 -12t12 -39v-156q0 -134 -69.5 -200t-196.5 -66h-207q-127 0 -196.5 66t-69.5 200v223q0 23 -9 32t-32 9h-41q-52 0 -52 52z" />
<glyph unicode="&#x2122;" horiz-adv-x="1513" d="M20 1720v72q0 51 52 51h473q51 0 51 -51v-72q0 -51 -51 -51h-119q-17 -1 -24 -10.5t-7 -30.5v-758q0 -51 -51 -51h-72q-51 0 -51 51v758q0 23 -9 32t-32 9h-108q-52 0 -52 51zM698 870v922q0 51 52 51h71q29 0 43 -26q27 -45 93.5 -156.5t80.5 -134.5q17 -26 33 0 q5 9 74 124t100 167q16 26 43 26h72q51 0 51 -51v-922q0 -51 -51 -51h-72q-51 0 -51 51v562q0 67 -27 27l-2 -3q-53 -86 -127 -203q-12 -20 -27.5 -20t-27.5 20q-15 25 -57.5 92t-69.5 111q-27 42 -27 -24v-562q0 -51 -51 -51h-71q-52 0 -52 51z" />
<glyph unicode="&#x25fc;" horiz-adv-x="1638" d="M0 0v1638h1638v-1638h-1638z" />
</font>
</defs>
</svg>
