<?xml version="1.0" encoding="UTF-8"?> <svg xmlns="http://www.w3.org/2000/svg" xmlns:xlink="http://www.w3.org/1999/xlink" version="1.1" id="Capa_1" x="0px" y="0px" viewBox="0 0 800 800" style="enable-background:new 0 0 800 800;" xml:space="preserve"><style type="text/css">.st0{fill:#FFFFFF;}</style> <g><g><polygon class="st0" points="582,179 582.8,185 574,186.8 572.8,199.4 583.4,199.4 597.5,198 604.8,189.4 597,186.3 592.8,181.5 586.4,171.2 583.4,156.6 571.4,159 568.1,164.1 568.1,169.9 573.8,173.9"></polygon><polygon class="st0" points="571.8,183.9 572.5,176 565.5,173 555.6,175.2 548.3,186.9 548.3,194.5 556.8,194.5"></polygon><path class="st0" d="M369.7,217.4l-2.2,5.6H357v5.4h2.5c0,0,0.1,1.1,0.4,2.7l6.4-0.5l4-2.5l1-5l5.2-0.4l2-4.2l-4.8-1L369.7,217.4z"></path><polygon class="st0" points="342.7,227.2 342.3,232.5 349.9,231.9 350.7,226.5 346.1,223"></polygon><path class="st0" d="M797.9,395.9c-0.1-11.6-0.7-23.2-1.8-34.6c-3.7-37.9-12.8-74.3-26.3-108.4c-1-2.5-1.9-5.1-3-7.6 c-18.1-42.8-43.5-81.7-74.6-115.3c-2-2.2-4.1-4.4-6.2-6.5c-5.9-6.1-11.9-12.1-18.2-17.8C597,41.3,503,2,400,2 C296.1,2,201.5,42,130.5,107.4C114,122.7,98.8,139.3,85,157.1C33,224.4,2,308.6,2,400c0,219.5,178.6,398,398,398 c154.4,0,288.4-88.4,354.4-217.2c14.1-27.5,25.1-56.9,32.5-87.6c1.9-7.8,3.5-15.6,4.9-23.6c4-22.6,6.2-45.9,6.2-69.6 C798,398.6,797.9,397.3,797.9,395.9z M723,236.8l2.3-2.6c3,5.9,5.9,11.9,8.6,17.9l-3.8-0.1l-7.1,1V236.8z M665.5,167.4l0.1-17.8 c6.3,6.6,12.3,13.5,18,20.5l-7.2,10.7l-25.1-0.2l-1.6-5.2L665.5,167.4z M185.4,123.2v-0.7h8l0.7-2.7h13v5.7l-3.7,5h-18 L185.4,123.2L185.4,123.2z M198.1,141c0,0,8-1.4,8.7-1.4c0.7,0,0,8,0,8l-18,1.1l-3.4-4.1L198.1,141z M748.4,298.9h-29.1 l-17.7-13.2l-18.7,1.8v11.4h-5.9l-6.4-4.6l-32.3-8.2v-21l-41,3.2l-12.7,6.8h-16.3l-8-0.8l-19.8,11v20.6l-40.4,29.1l3.4,12.4h8.2 l-2.1,11.9l-5.8,2.1l-0.3,31l34.9,39.7h15.2l0.9-2.4h27.3l7.9-7.3h15.5l8.5,8.5l23.1,2.4l-3.1,30.7l25.6,45.2l-13.5,25.8l0.9,12.1 l10.6,10.6v29.2l13.9,18.8v24.3h12C616.2,712.5,514.2,765.2,400,765.2C198.6,765.3,34.7,601.4,34.7,400c0-50.7,10.4-99,29.2-142.9 v-11.4L77,229.8c4.5-8.6,9.4-16.9,14.6-25l0.6,6.6L77,229.8c-4.7,8.9-9.1,17.9-13.1,27.3v20.8l15.2,7.3V314l14.6,24.8l11.8,1.8 l1.5-8.5l-14-21.5l-2.7-20.9h8.2l3.5,21.5l20.2,29.4l-5.2,9.5l12.8,19.6l31.9,7.9v-5.2l12.8,1.8l-1.2,9.1l10,1.8l15.5,4.2 l21.9,24.9l27.9,2.1l2.7,22.8l-19.1,13.4l-0.9,20.3l-2.7,12.4l27.6,34.6l2.1,11.9c0,0,10,2.7,11.2,2.7c1.2,0,22.5,16.1,22.5,16.1 v62.5l7.6,2.1l-5.2,28.8l12.8,17l-2.4,28.6l16.8,29.6l21.6,18.9l21.7,0.4l2.1-7l-16-13.5l0.9-6.7l2.9-8.2l0.6-8.3l-10.8-0.3 l-5.5-6.8l9-8.6l1.2-6.5l-10-2.9l0.6-6.1l14.3-2.2l21.7-10.4l7.3-13.4l22.8-29.1l-5.2-22.8l7-12.1l20.9,0.6l14.1-11.2l4.6-44 l15.6-19.9l2.7-12.8l-14.3-4.6l-9.4-15.4l-32.2-0.3l-25.5-9.7l-1.2-18.2l-8.5-14.9l-23.1-0.3l-13.3-20.9l-11.8-5.8l-0.6,6.4 l-21.5,1.3l-7.9-11l-22.5-4.6L255.4,410l-29.1-4.9l-2.1-32.8l-21.3-3.6l8.5-16.1l-2.4-9.2L181,361.9l-17.6-2.1l-6.3-13.7l3.8-14.2 l9.7-17.9l22.3-11.3l43.1,0l-0.1,13.1l15.5,7.2l-1.2-22.5l11.2-11.2l22.5-14.8l1.5-10.4l22.5-23.4l23.9-13.2l-2.1-1.7l16.2-15.2 l5.9,1.6l2.7,3.4l6.1-6.8l1.5-0.7l-6.7-0.9l-6.8-2.3v-6.5l3.6-3h8l3.7,1.6l3.2,6.4l3.9-0.6v-0.6l1.1,0.4l11.2-1.7l1.6-5.5l6.4,1.6 v5.9l-5.9,4.1h0l0.9,6.5l20.3,6.3c0,0,0,0.1,0,0.2l4.7-0.4l0.3-8.8l-16.1-7.3l-0.9-4.2l13.3-4.6l0.6-12.8l-13.9-8.5l-0.9-21.5 l-19.1,9.4h-7l1.8-16.4l-26-6.1l-10.8,8.1v24.8l-19.4,6.1l-7.8,16.2l-8.4,1.4v-20.7l-18.2-2.5l-9.1-5.9l-3.7-13.4l32.6-19.1 l15.9-4.8l1.6,10.7l8.9-0.5l0.7-5.4l9.3-1.3l0.2-1.9l-4-1.7l-0.9-5.7l11.4-1l6.9-7.2l0.4-0.5l0.1,0l2.1-2.2l24-3l10.6,9 l-27.8,14.8l35.4,8.3l4.6-11.8h15.5l5.5-10.3l-10.9-2.7v-13l-34.3-15.2l-23.7,2.7l-13.4,7l0.9,17l-14-2.1l-2.1-9.4l13.4-12.1 l-24.3-1.2l-7,2.1l-3,8.2l9.1,1.5l-1.8,9.1l-15.5,0.9l-2.4,6.1l-22.4,0.6c0,0-0.6-12.7-1.5-12.7c-0.9,0,17.6-0.3,17.6-0.3 l13.4-13.1l-7.3-3.7l-9.7,9.4l-16.1-0.9l-9.7-13.4h-20.6l-21.5,16.1h19.7l1.8,5.8l-5.1,4.8l21.9,0.6l3.3,7.9l-24.6-0.9l-1.2-6.1 l-15.5-3.3l-8.2-4.6l-18.4,0.1C245.7,60.7,319.9,34.7,400,34.7c92.4,0,176.8,34.5,241.1,91.2l-4.3,7.8l-16.8,6.6l-7.1,7.7l1.6,9 l8.7,1.2l5.2,13.1l15-6l2.5,17.5h-4.5l-12.3-1.8l-13.7,2.3L602.2,202l-18.9,3l-2.7,16.2l8,1.9l-2.3,10.4l-18.8-3.8l-17.2,3.8 l-3.7,9.6l3,20.1l10.1,4.7l16.9-0.1l11.4-1l3.5-9.1l17.9-23.2l11.8,2.4l11.6-10.5l2.2,8.2l28.5,19.2l-3.5,4.7l-12.9-0.7l4.9,7 l7.9,1.7l9.3-3.9l-0.2-11.2l4.1-2.1l-3.3-3.5l-19-10.6l-5-14.1h15.8l5.1,5l13.6,11.7l0.6,14.2l14.1,15l5.3-20.6l9.8-5.3l1.8,16.8 l9.5,10.5l19-0.3c3.7,9.5,7,19.1,9.9,29L748.4,298.9z M219.1,182.8l9.6-4.6l8.6,2.1l-3,11.6l-9.3,3L219.1,182.8z M269.8,210.1v7.5 H248l-8.2-2.3l2-5.2l10.5-4.3h14.3v4.3H269.8z M279.9,220.6v7.3l-5.5,3.5l-6.8,1.3c0,0,0-10.9,0-12.1H279.9z M273.7,217.7V209 l7.5,6.8L273.7,217.7z M277.1,235.2v7.1l-5.2,5.2h-11.6l1.8-8l5.5-0.5l1.1-2.7L277.1,235.2z M248.2,220.6h12.1l-15.5,21.6 l-6.4-3.4l1.4-9.1L248.2,220.6z M297.6,232.7v7.1H286l-3.2-4.6v-6.6h0.9L297.6,232.7z M286.9,223l3.3-3.5l5.6,3.5l-4.5,3.7 L286.9,223z M754.3,317.4l1.1-1.3c0.5,2.1,1,4.1,1.4,6.2L754.3,317.4z"></path><path class="st0" d="M63.9,245.7V257c4-9.3,8.4-18.4,13.1-27.3L63.9,245.7z"></path></g></g></svg> 