<svg id="a" xmlns="http://www.w3.org/2000/svg" viewBox="0 0 160 111.76"><path d="M6.44,103.48v4.81h-.87v-.8l-.69.7c-.18.08-.51.23-1.05.23-1.29,0-2.31-.88-2.31-2.23s1.03-2.31,2.37-2.31c.8,0,1.4.37,1.68.74v-1.02c0-1.03-.59-1.58-1.47-1.58-.73,0-1.29.39-1.42,1.1h-.88c.08-1.16,1.14-1.88,2.31-1.88s2.32.65,2.32,2.23ZM5.64,106.16c0-.85-.72-1.53-1.62-1.53s-1.6.65-1.6,1.51.69,1.53,1.6,1.53,1.62-.67,1.62-1.51Z" fill="#ebebeb" stroke-width="0"></path><path d="M13.74,98.77h2.54c.43,0,.88-.01,1.32.06,2.29.41,3.81,2.56,3.59,4.8-.11,1.5-.79,2.35-1.87,3.38-.97.97-1.83,1.53-3.16,1.59h-2.43v-9.83ZM17.11,107.68c.84-.04,1.64-.34,2.32-.84.58-.79.88-1.71.9-2.67.01-.96-.28-1.9-.83-2.67-.8-1.14-2.13-1.85-3.52-1.85h-1.17v8.05c1.97,0,2.09,0,2.3-.01" fill="#ebebeb" stroke-width="0"></path><path d="M22.56,104.96c-.39-2.23,1.14-4.58,3.01-5.7.8-.51,1.77-.74,2.72-.67,1.92.17,3.52,1.54,4.02,3.44.77,2.89-2.22,6.74-5.28,6.74-2.26,0-4.09-1.66-4.47-3.81M30.6,106.97h0c.55-.73.87-1.61.93-2.51.11-1.88-.86-3.62-2.43-4.45-1.54-.81-3.34-.66-4.76.38-.84,1.14-1.14,2.56-.81,3.92.49,2.08,2.27,3.55,4.4,3.55.97,0,1.89-.31,2.68-.88" fill="#ebebeb" stroke-width="0"></path><polygon points="47.87 98.77 49.09 98.77 53.95 106.1 53.95 98.77 54.51 98.77 54.51 108.6 53.9 108.6 48.43 100.17 48.43 108.6 47.87 108.6 47.87 98.77" fill="#ebebeb" stroke-width="0"></polygon><polygon points="59.09 99.5 56.05 99.5 56.05 98.77 63.52 98.77 63.52 99.5 60.48 99.5 60.48 108.6 59.09 108.6 59.09 99.5" fill="#ebebeb" stroke-width="0"></polygon><path d="M63.78,104.96c-.39-2.23,1.14-4.58,3.01-5.7.8-.51,1.77-.74,2.72-.67,1.92.17,3.52,1.54,4.02,3.44.77,2.89-2.22,6.74-5.28,6.74-2.26,0-4.09-1.66-4.47-3.81M71.82,106.97h0c.55-.73.87-1.61.93-2.51.11-1.88-.86-3.62-2.43-4.45-1.54-.81-3.34-.66-4.76.38-.84,1.14-1.14,2.56-.81,3.92.49,2.08,2.27,3.55,4.39,3.55.97,0,1.9-.31,2.68-.88" fill="#ebebeb" stroke-width="0"></path><polygon points="33.34 98.75 34.72 98.75 37.12 108.13 39.48 98.75 40.71 98.75 43.02 108.13 45.8 98.75 46.4 98.75 43.46 108.58 41.85 108.58 39.68 100.28 37.55 108.58 35.95 108.58 33.34 98.75" fill="#ebebeb" stroke-width="0"></polygon><polygon points="89.18 98.77 90.39 98.77 95.25 106.1 95.25 98.77 95.82 98.77 95.82 108.6 95.2 108.6 89.74 100.17 89.74 108.6 89.18 108.6 89.18 98.77" fill="#ebebeb" stroke-width="0"></polygon><polygon points="74.65 98.75 76.03 98.75 78.42 108.13 80.79 98.75 82.01 98.75 84.32 108.13 87.11 98.75 87.71 98.75 84.76 108.58 83.15 108.58 80.98 100.28 78.86 108.58 77.25 108.58 74.65 98.75" fill="#ebebeb" stroke-width="0"></polygon><path d="M101.12,105.1c0-1.05.51-1.91,1.28-2.71l.81-.8c.25-.16.74-.34,1.38-.34,1.16,0,2.08.55,2.56,1.17l-.63.61c-.4-.48-1.09-.94-1.98-.94-1.42,0-2.54,1.24-2.54,2.81s1.11,2.65,2.56,2.65c1.16,0,1.82-.65,2.12-.98l.59.61c-.62.73-1.54,1.25-2.72,1.25-1.95,0-3.41-1.43-3.41-3.33Z" fill="#ebebeb" stroke-width="0"></path><path d="M108.45,104.95c0-.89.33-1.76,1.11-2.53l.88-.88c.23-.14.7-.29,1.35-.29,1.94,0,3.56,1.51,3.56,3.48,0,.87-.3,1.73-1.11,2.53l-.89.88c-.29.14-.76.29-1.35.29-1.94,0-3.55-1.53-3.55-3.48ZM114.52,105.02c0-1.61-1.31-2.99-2.85-2.99-1.27,0-2.38,1.06-2.38,2.61s1.29,3,2.82,3c1.28,0,2.41-1.09,2.41-2.63Z" fill="#ebebeb" stroke-width="0"></path><path d="M126.83,103.71v4.58h-.85v-4.31c0-.95-.54-1.95-1.72-1.95s-1.71.98-1.71,1.95v4.31h-.83v-4.31c0-.95-.54-1.95-1.72-1.95s-1.71.98-1.71,1.95v4.31h-.85v-6.91h.85v.99l.89-.89c.12-.07.44-.23,1.02-.23,1.03,0,1.77.56,2.09,1.33l1.11-1.1c.18-.11.54-.23,1.06-.23,1.49,0,2.35,1.16,2.35,2.46Z" fill="#ebebeb" stroke-width="0"></path><path d="M136.05,104.74c0,.85-.29,1.73-1.13,2.59l-.81.83c-.25.14-.69.28-1.24.28-1.14,0-2.12-.54-2.67-1.35v3.62h-.85v-9.31h.85v1.29l1.16-1.18c.26-.15.73-.25,1.24-.25,1.93,0,3.45,1.51,3.45,3.49ZM135.21,105.03c-.03-1.99-1.47-3-2.74-3-1.36,0-2.37,1.1-2.35,2.64.04,1.98,1.49,2.97,2.76,2.97s2.35-1.09,2.32-2.61Z" fill="#ebebeb" stroke-width="0"></path><path d="M142.52,103.48v4.81h-.87v-.8l-.69.7c-.18.08-.51.23-1.05.23-1.29,0-2.31-.88-2.31-2.23s1.03-2.31,2.37-2.31c.8,0,1.4.37,1.68.74v-1.02c0-1.03-.59-1.58-1.47-1.58-.73,0-1.29.39-1.42,1.1h-.88c.08-1.16,1.14-1.88,2.31-1.88s2.32.65,2.32,2.23ZM141.72,106.16c0-.85-.72-1.53-1.62-1.53s-1.6.65-1.6,1.51.69,1.53,1.6,1.53,1.62-.67,1.62-1.51Z" fill="#ebebeb" stroke-width="0"></path><path d="M150.52,104.05v4.24h-.85v-3.98c0-1.4-.67-2.28-1.87-2.28-1.13,0-1.91.88-1.91,2.28v3.98h-.85v-6.91h.85v1.1l1-1.02c.19-.08.55-.22,1.1-.22,1.6,0,2.53,1.1,2.53,2.81Z" fill="#ebebeb" stroke-width="0"></path><path d="M158.47,101.39l-2.67,6.92c-.21.52-.37.87-.72,1.22l-.89.92h-1.58v-.84h1.17c.52,0,.77-.22.98-.77l.48-1.29h-.65l-2.65-6.16h.96l2.48,5.79,2.15-5.79h.95Z" fill="#ebebeb" stroke-width="0"></path><path d="M43.86,27.18h-.13c-14.45.85-25.48,13.23-24.65,27.68.77,13.28,11.37,23.88,24.65,24.65.72.08,1.36-.44,1.44-1.15,0-.05,0-.1,0-.15V28.5c0-.73-.59-1.32-1.32-1.32Z" fill="#ebebeb" stroke-width="0"></path><path d="M76.42,1.07h-.13c-.71,0-1.29.58-1.29,1.29v50.65c-.01.18-.01.36,0,.54,2.13,23.82,21.36,25.97,25.56,26.1.42.03.78-.28.81-.69,0-.02,0-.05,0-.07V26.86c-1.7-22.07-19.73-25.32-24.95-25.79Z" fill="#ebebeb" stroke-width="0"></path><path d="M71.71,27.18h-.13c-14.45.83-25.48,13.22-24.65,27.67.77,13.28,11.37,23.88,24.65,24.65.72.08,1.36-.44,1.44-1.15,0-.05,0-.1,0-.15V28.5c0-.73-.59-1.32-1.32-1.32Z" fill="#ebebeb" stroke-width="0"></path><path d="M105.35,27.34c-.72,0-1.3.58-1.31,1.3,0,0,0,0,0,.01l-.07-.03v50.28c0,.42.33.77.75.78,0,0,.02,0,.03,0,14.46-.4,25.86-12.45,25.46-26.92-.38-13.67-11.21-24.75-24.87-25.44Z" fill="#ebebeb" stroke-width="0"></path><path d="M133.58,68.21h-.01c-3.13,0-5.66,2.55-5.65,5.68,0,3.13,2.55,5.66,5.68,5.65,3.13,0,5.66-2.55,5.65-5.68,0-3.13-2.54-5.65-5.67-5.65Z" fill="#ebebeb" stroke-width="0"></path></svg>