<svg id="Checkbox" xmlns="http://www.w3.org/2000/svg" width="29.185" height="29.902" viewBox="0 0 29.185 29.902">
  <g id="Group_37" data-name="Group 37" transform="translate(0 0)">
    <g id="Group_35" data-name="Group 35">
      <path id="Path_111" data-name="Path 111" d="M32.153,5.041a.928.928,0,0,1-.218.613c-.342.429-.746.8-1.057,1.256-.155.214-.373.429-.56.643-.342.4-.684.8-1,1.226-.124.184-.311.306-.435.49-.187.245-.435.46-.622.7a6.837,6.837,0,0,0-.591.735c-.124.184-.311.337-.435.521-.155.245-.4.429-.56.674-.311.4-.653.735-.964,1.164-.124.184-.311.306-.435.49-.187.245-.435.46-.622.7a6.838,6.838,0,0,0-.591.735c-.124.184-.311.337-.435.521-.155.245-.4.429-.56.674-.311.4-.653.735-.964,1.164-.155.214-.342.4-.5.582-.373.4-.746.8-1.088,1.226a3.565,3.565,0,0,0-.746.766c-.311.368-.653.735-.933,1.134-.187.245-.435.46-.622.7a6.837,6.837,0,0,0-.591.735c-.124.184-.311.337-.435.521-.155.245-.4.429-.56.674-.311.4-.653.735-.964,1.164-.124.184-.311.337-.435.521a7.4,7.4,0,0,1-.653.735c-.031.031-.093.061-.093.123-.093.337-.4.337-.653.429a.64.64,0,0,1-.56-.153c-.28-.245-.529-.49-.84-.735-.466-.368-.871-.766-1.337-1.134l-1.306-1.1c-.218-.184-.435-.4-.653-.582l-1.306-1.1c-.435-.368-.871-.735-1.306-1.134-.435-.368-.871-.735-1.306-1.134-.435-.368-.871-.735-1.306-1.134-.28-.245-.529-.49-.809-.7a.338.338,0,0,1-.124-.337v-.245a.553.553,0,0,1,.187-.429,8.328,8.328,0,0,0,.871-.95c.5-.582,1.026-1.164,1.586-1.716a3.833,3.833,0,0,0,.28-.368,1.05,1.05,0,0,1,.622-.521.7.7,0,0,1,.56.031,3.285,3.285,0,0,1,.342.214c.311.276.622.582.933.827.342.276.622.613.964.889.373.306.715.613,1.057.889.435.368.9.766,1.337,1.134.187.184.4.337.591.521.093.092.124.214.249.276a1.685,1.685,0,0,0,.684.092c.031,0,.093,0,.093-.031a2.168,2.168,0,0,0,.5-.429c.124-.214.311-.4.435-.582.093-.123.187-.214.28-.337s.155-.214.249-.337c.373-.4.746-.8,1.088-1.226.249-.306.529-.613.777-.919.4-.46.777-.919,1.182-1.379s.777-.95,1.182-1.409c.28-.337.56-.643.84-.98.155-.214.4-.368.529-.643.031-.061.093-.061.155-.092a.822.822,0,0,0,.187-.153c.062-.092.062-.245.218-.306a.554.554,0,0,0,.249-.276,1.324,1.324,0,0,1,.28-.306c.031-.031.093-.092.093-.123-.031-.153.093-.214.155-.276a4.084,4.084,0,0,0,.653-.8c.031-.061.093-.061.155-.092.124-.061.28-.092.218-.306,0-.031.062-.092.093-.153.373-.4.746-.8,1.088-1.226.28-.368.653-.7.9-1.1.031-.031.093-.061.124-.092.062-.061.155-.092.187-.184a5.23,5.23,0,0,1,.809-1.042c.311-.337.591-.7.9-1.042.155-.184.28-.368.435-.552a1.006,1.006,0,0,1,.653-.306.64.64,0,0,1,.622.245,5.076,5.076,0,0,0,.777.643,6.2,6.2,0,0,1,.5.429c.249.184.466.429.715.613a6.908,6.908,0,0,0,.746.582,3.852,3.852,0,0,1,.653.582A.739.739,0,0,1,32.153,5.041ZM12.467,23.088A.484.484,0,0,0,12.281,23a.236.236,0,0,0-.155.031c-.031.061,0,.123.093.123.062,0,.093-.031,0-.46v-.184a.1.1,0,0,1-.062-.031c-.031.153-.218.276-.187.46,0,.031.062.061.062.061a.109.109,0,0,0,.062-.031C12.187,22.843,12.218,22.72,12.467,23.088ZM28.67,6.7a.485.485,0,0,0-.093.245c0,.061.093.123.093.184.031.153.062.306.093.429-.187.184-.093.46-.218.643v.061c.031,0,.093.031.124,0a.64.64,0,0,0,.124-.184c.062-.092.093-.245.155-.306.155-.123.124-.276.218-.429a.12.12,0,0,0-.093-.184.29.29,0,0,1-.218-.337c0-.031-.093-.092-.466,1.44h-.155c-.062,0-.093.031-.155.031a.158.158,0,0,1,.062.123c0,.123.249.276-.031.337-.031,0-.031.061-.031.092a1.073,1.073,0,0,0,.155.245.115.115,0,0,0,.093.031c0-.031.062-.092.031-.123a.275.275,0,0,1,.062-.429c.093-.061.155-.153.093-.245C28.514,8.289,28.39,8.289,28.67,6.7ZM24.16,10.924c0-.184,0-.184-.187-.214-.062,0-.124-.061-.155-.061-.062-.031-.124-.092-.155-.061a.515.515,0,0,1-.373-.061.178.178,0,0,0-.28.153c0,.061.031.092.031.123a.155.155,0,0,0,.093-.031c.187-.061.249-.061.373.123.093.123-.062.153-.124.245-.031.061-.093.092-.093.153a.506.506,0,0,1-.249.4c-.062.061-.124.123-.031.214a.453.453,0,0,1,.187.4.4.4,0,0,0,.093.245c.031.031.124.031.218.061.031,0,.093.061.124.061.093.031.187.092.311-.031a.233.233,0,0,1,.311-.031c.093.061.187.153.311.031.093-.092.187-.184.155-.337s-.062-.276-.093-.429a.03.03,0,0,0-.031-.031c-.031,0-.031.031-.062.061a.91.91,0,0,0-.124.306.873.873,0,0,1-.373.245,1.918,1.918,0,0,1-.373-.153c-.062-.031-.124-.123-.187-.184.093-.061.124-.214.28-.184h.124a.2.2,0,0,0,.155-.184c0-.123-.062-.153-.155-.184h-.124c-.155-.031-.155-.031-.124-.214,0-.092,0-.214.062-.245a1.058,1.058,0,0,1,.311,0,.306.306,0,0,1,.031.092c0,.031.031.061.062.123.031-.031.093-.061.093-.123A1.169,1.169,0,0,1,24.16,10.924ZM13,20.024a.647.647,0,0,0-.031-.184c-.124-.276.031-.582-.093-.858.093-.092.093-.184-.062-.153a.662.662,0,0,1-.5-.184c-.093-.092-.155-.092-.155.061,0,.061-.093.153-.062.153.124.092.031.276.187.368.062.031.155.061.187.123.031.031-.031.123-.093.184-.093.092-.062.184-.062.276a.589.589,0,0,1-.093.4.364.364,0,0,0-.062.245c0,.184,0,.337-.28.337-.062,0-.249.061-.187.245s-.093.276-.218.337c-.093.061-.187.092-.155.214a.306.306,0,0,0,.031.092.115.115,0,0,0,.093-.031c.124-.092.187-.245.373-.214.124.031.155-.061.218-.153a.372.372,0,0,1,.155-.153c.031-.031.124.031.155.061.062.031.062.092.155,0a.187.187,0,0,0,.031-.214c0-.031-.062-.061-.093-.123-.093-.092-.28-.214-.062-.368v-.46c0-.061,0-.092.093-.123.062,0,.124-.092.187-.153.031,0,.124.031.124.061v.337c0,.061.062.092.124.123.031-.061.093-.092.124-.153C13.027,20.177,13,20.116,13,20.024Zm4.229-.919h.342c.031,0,.062-.061.124-.092-.031-.031-.062-.031-.093-.061-.218-.123-.5-.153-.684-.337-.093-.092-.218-.123-.155-.276.031-.123,0-.306.218-.306.031,0,.093-.061.124-.092a.107.107,0,0,1,.031-.061c-.031-.031-.031-.061-.062-.061h-.124c-.124,0-.249,0-.187.184.031.092-.062.092-.124.153-.187.153-.311,0-.435-.061A.429.429,0,0,1,16.075,18c-.031.061-.062.092-.093.153-.031.092,0,.214-.031.306a.286.286,0,0,1-.4.245c-.249-.061-.28-.061-.373.123,0,.031-.031.092,0,.092a.115.115,0,0,0,.093.031.237.237,0,0,0,.124-.061c.187-.061.28,0,.311.184v.184c0,.031.062.031.093.031a.109.109,0,0,0,.062-.031.9.9,0,0,1,.155-.4.427.427,0,0,1,.218-.245c.062-.061.155,0,.249.061.031.031.062,0,.124,0,.124,0,.218.061.218.184s.093.184.218.184C17.07,19.1,17.163,19.1,17.225,19.1Zm1.586-5.025c.311,0,.311,0,.187-.276v-.031c-.062-.092-.062-.153.031-.245a.261.261,0,0,1,.249-.061c.124.031.187-.031.28-.123a.645.645,0,0,1,.529-.214h.249c.124,0,.187-.092.187-.214,0-.092-.155-.276-.249-.245-.031,0-.062,0-.062.031a.514.514,0,0,1-.5.214c-.031,0-.093,0-.093.031-.093.245-.218.153-.373.061a.309.309,0,0,0-.342.092.98.98,0,0,1-.342.368c-.093.061-.218.245-.124.337C18.469,13.957,18.594,14.172,18.811,14.08ZM6.963,16.837c.062.061.093.061.124.123a.514.514,0,0,1,.031.214.306.306,0,0,0,.031.092.4.4,0,0,0,.187-.031c.062-.031.124-.092.062-.184-.031-.031-.062-.031-.062-.061a.3.3,0,0,1,.373-.153.237.237,0,0,1,.124.061.316.316,0,0,0,.093-.031.182.182,0,0,0-.031-.123.237.237,0,0,0-.124-.061c-.155.031-.249-.061-.373-.123a.706.706,0,0,0-.84.061c-.062.031-.062.031-.093-.031a1.712,1.712,0,0,1-.093-.552c0-.061.031-.153-.062-.153a.4.4,0,0,0-.187.031c-.062.031-.093.092-.155.123q-.187.184,0,.276a.428.428,0,0,1,.311.368c0,.092.093.184.155.276.093.153.155.153.28.031C6.838,16.96,6.869,16.9,6.963,16.837Zm2.83,3.187v.123c0,.061-.031.153.093.153.093,0,.124-.031.155-.123,0-.092.031-.276.155-.245.28.031.4-.184.622-.276.062-.031.124-.061.031-.123l-.124-.123c-.093-.092-.093-.153,0-.214l.093-.092c.031-.031.031-.061.062-.123-.062,0-.124-.031-.155,0-.062.031-.093.092-.124.123s-.062.092-.093.092a.31.31,0,0,1-.155-.123c-.031-.061,0-.153,0-.214a.473.473,0,0,0-.342-.337.237.237,0,0,0-.124.061.306.306,0,0,1,.031.092c.031.031.155-.031.062.092a1.863,1.863,0,0,1-.249.245c-.031.031-.093.061-.093.123v.153c.031-.031.062-.031.124-.061.093-.031.187-.092.28.031.031.061.124.092.155.153a.562.562,0,0,1,.062.214.165.165,0,0,1-.218.123H9.917c-.124-.031-.155.061-.155.153C9.793,19.932,9.793,19.963,9.793,20.024ZM26.026,8.381c0-.153-.031-.184-.155-.123a1.464,1.464,0,0,1-.622.184.066.066,0,0,0-.062.061c0,.123-.031.214.093.306.155.123.155.123.031.245a1.492,1.492,0,0,1-.342.276c-.124.061-.124.123,0,.245a1.889,1.889,0,0,0,.311.214c.187.153.249.153.373-.031a1.822,1.822,0,0,0,.187-.337.494.494,0,0,0-.218-.521c-.031-.031-.093-.153-.062-.153.093-.061.124-.214.28-.184C26.026,8.564,26.026,8.564,26.026,8.381Zm4.323-3.125c0-.031,0-.061-.031-.061-.062-.031-.093-.092-.155-.092a.2.2,0,0,1-.218-.184c-.031-.123.062-.153.124-.214.031-.031.093-.031.124-.061a.434.434,0,0,0,.062-.123c-.093-.061-.062-.153-.093-.245,0-.061-.093-.092-.155-.123-.062,0-.155.061-.155.092,0,.214-.218.368-.187.613.031.123-.062.184-.218.214h-.124c-.124-.031-.155.061-.155.153,0,.153.031.276-.187.306-.062,0-.124.092-.155.153-.093.092-.031.123.031.184a.19.19,0,0,0,.249,0c.062-.031.124-.092.187-.123a.933.933,0,0,0,.28-.4c.031-.123.124-.153.249-.092a.664.664,0,0,0,.218.092C30.225,5.439,30.349,5.347,30.349,5.255Zm-1.8.276c-.031,0-.031.031-.062.031-.4.153-.529.521-.684.858-.031.031,0,.123.031.123a.362.362,0,0,1,.124.337c0,.031.062.061.093.061a.066.066,0,0,0,.062-.061V6.573c0-.123.031-.214.187-.245a.223.223,0,0,0,.187-.092.131.131,0,0,1,.218,0l.093.092c0-.031.031-.092.031-.123V6.083c-.155-.061-.124-.214-.218-.306-.124-.123,0-.123.031-.214a2.775,2.775,0,0,1,.342-.49.434.434,0,0,0,.062-.123.651.651,0,0,0-.187-.123c-.062-.031-.093,0-.124.092a.792.792,0,0,1-.218.337c-.093.092-.062.123.031.184C28.514,5.5,28.545,5.531,28.545,5.531ZM21.8,13.712a.478.478,0,0,0,.124.4c.062.123.187.031.28.061a.774.774,0,0,1,.28.123c.062.061.062.153.093.214.093-.031.155-.123.249-.123.187.031.218-.153.342-.184.342-.153.342-.184.093-.429-.093-.092-.155-.123-.249-.031-.062.061-.155.061-.249.092-.124.031-.187-.061-.28-.061s-.187.061-.28.061a.237.237,0,0,1-.124-.061l-.187-.184-.062-.061c0,.031-.031.061-.031.092S21.8,13.681,21.8,13.712Zm-5.536,7.844a3.568,3.568,0,0,0,.155.337c.062.061.218.153.28.123.124-.061,0-.184-.031-.276a.57.57,0,0,1-.062-.245c0-.092.062-.153.187-.153a.109.109,0,0,0,.062-.031,1.449,1.449,0,0,0,0-.368c-.031-.061-.155-.092-.249-.123h-.062c-.031-.061-.187-.061-.062-.184a.424.424,0,0,0,.093-.276c0-.184-.28-.153-.311-.337,0-.031-.093-.031-.124-.061-.031,0-.093,0-.093.031-.031.031,0,.061,0,.092a1.072,1.072,0,0,1,.155.245,1.249,1.249,0,0,0,.093.245c.062.092-.093.153-.031.245.031.061.031.123.062.153.124.092.093.214.062.337A.912.912,0,0,1,16.261,21.556Zm-1,1.685c-.124-.123-.249-.276-.373-.4,0,0-.062,0-.062.031-.062.214-.28.4-.249.613,0,.184-.031.306-.249.276-.031,0-.062.092-.062.123a1.149,1.149,0,0,0,.591.337c.031,0,.093-.031.093-.061v-.429a.335.335,0,0,1,.093-.276A.372.372,0,0,0,15.2,23.3C15.266,23.272,15.266,23.272,15.266,23.241ZM20.3,16.776c-.031-.092-.062-.214-.124-.368-.031-.061-.093-.123-.187-.031a1.935,1.935,0,0,0-.342.368c-.062.092-.155.214-.124.337.031.092.187.184-.062.214a.112.112,0,0,0,.031.092.2.2,0,0,0,.249.061c.124-.031.218-.123.342-.123.187.031.187-.153.249-.214C20.335,16.991,20.3,16.929,20.3,16.776Zm2.674-8.12v.061c0,.031-.031.061-.062.092,0,.031-.031.031-.031.061-.031.123,0,.153.124.153a.356.356,0,0,0,.249-.092c.062-.092-.031-.123-.062-.184-.031-.092-.062-.184.031-.276a.578.578,0,0,1,.373-.153c.187,0,.187,0,.218-.184a.771.771,0,0,1,.062-.214c0-.092.031-.184,0-.245a.139.139,0,0,0-.093-.092.448.448,0,0,0-.093.061c-.062.123-.093.276-.28.245-.031,0-.093.061-.124.123a.64.64,0,0,1-.124.184A.522.522,0,0,0,22.979,8.656ZM14.271,22.169v.092c.031,0,.062-.031.093-.031l.187-.092c.155-.061.187-.061.124-.245a.148.148,0,0,1,.093-.184l.28-.184c.093-.123.155-.276.249-.4.124-.123.062-.184.031-.276-.031-.061-.062-.092-.124-.092-.093,0-.093.031-.124.123,0,.061-.062.123-.093.184a3.522,3.522,0,0,1-.342.337.881.881,0,0,0-.28.735A.115.115,0,0,0,14.271,22.169Zm8.21-9.315a.213.213,0,0,0,.155-.092.278.278,0,0,0-.031-.306.651.651,0,0,0-.187-.123.312.312,0,0,1-.124-.214c.124-.184-.031-.306-.093-.429-.031-.092-.124-.092-.187,0-.124.153-.124.337-.28.46,0,0,0,.092.031.092.28.092.28.4.529.521C22.263,12.854,22.326,12.854,22.481,12.854ZM8.58,19.227c.062-.031.093-.061.155-.092a.424.424,0,0,0,.093-.123c-.062,0-.093-.031-.155-.031a2.005,2.005,0,0,0-.218-.061c-.218-.092-.218-.092-.124-.337,0-.061.031-.092,0-.153,0-.031-.093-.061-.124-.061a.2.2,0,0,0-.124.153.323.323,0,0,1-.187.306c-.187.061-.124.153-.093.245.062.214.062.214-.124.306-.093.061-.155.031-.249,0-.031,0-.093.031-.124.031.031.031.031.092.062.123a.6.6,0,0,0,.746-.184c.093-.214.155-.276.342-.214C8.518,19.135,8.549,19.166,8.58,19.227Zm9.858-.49a.273.273,0,0,0-.28.153,2.052,2.052,0,0,1-.28.429.256.256,0,0,0,0,.214c0,.092.155.123.249.092a.544.544,0,0,0,.311-.276.727.727,0,0,1,.249-.276c.124-.061.28-.184.435-.061.031.031.093,0,.124,0a.424.424,0,0,1-.093-.123c-.031-.031-.062-.092-.124-.092C18.874,18.768,18.687,18.768,18.438,18.737ZM9.264,17.358c-.062-.092-.093-.214-.155-.245a.627.627,0,0,1-.373-.46c0-.031-.031-.092-.062-.092a.237.237,0,0,0-.124.061c-.031.061-.031.123-.062.153a.968.968,0,0,1-.5.552c-.155.061-.187.123-.093.245.031.031.062.092.124.031a4.92,4.92,0,0,1,.4-.4c.124-.123.187-.123.28.031.124.214.311.4.249.674a.316.316,0,0,0,.093.031.109.109,0,0,0,.062-.031C9.171,17.726,9.109,17.542,9.264,17.358Zm4.54,4.749a3.407,3.407,0,0,0-.093-.552c-.031-.123-.249-.153-.28-.306,0-.031-.062-.061-.093-.061a.236.236,0,0,0-.155.031c-.062.092-.187.123-.187.276,0,.123-.062.245-.062.4,0,.092.062.092.124.092.031,0,.062-.061.093-.061.218-.123.249-.092.373.153.031.061,0,.061-.031.123s-.031.123.062.123C13.773,22.322,13.8,22.291,13.8,22.107Zm.466-2.819h.187c.031,0,.062-.031.093-.031-.031-.031-.031-.061-.062-.092a.577.577,0,0,1-.155-.8.306.306,0,0,0-.031-.092c-.031,0-.093,0-.093.031l-.093.276c-.093.184-.124.429-.435.4a.237.237,0,0,0-.124.061c-.093.061-.311.061-.28.214s.249.092.373.092h.093a3.255,3.255,0,0,1,.311-.123A.366.366,0,0,1,14.271,19.289ZM28.763,4.03c.031.123.031.276.093.337a1.048,1.048,0,0,0,.466.276c.187,0-.031-.245.155-.337.031,0,.062-.092.062-.123,0-.061.031-.153,0-.214a1.437,1.437,0,0,0-.187-.276c-.093-.092-.124-.092-.187.061a.2.2,0,0,1-.249.123C28.794,3.846,28.763,3.907,28.763,4.03ZM7.243,18.921c.062-.031.062-.061.093-.061.093-.061.062-.153.062-.245a5.117,5.117,0,0,1,.031-.7c.062-.092.093-.184-.031-.245s-.062.153-.155.184a.107.107,0,0,0-.031.061c.031.153-.093.184-.187.276s-.124-.061-.187-.061c-.031,0-.062.031-.093.061-.062.092-.124.214-.187.306-.062.061,0,.092.031.061a.514.514,0,0,1,.5.214A.364.364,0,0,1,7.243,18.921Zm-2.208-1.5H4.91c-.124,0-.062.061-.031.092a.363.363,0,0,1,0,.429c-.062.092-.031.153-.031.245,0,.031.031.092.062.092a.92.92,0,0,1,.28-.061c.093-.031.062-.092.062-.153.031-.184.062-.245.249-.245a.378.378,0,0,1,.249.061c.031.031.124,0,.124-.092v-.214c0-.031-.062-.061-.062-.061A6,6,0,0,1,5.035,17.419ZM27.612,4.826v.153c0,.123.093.184.187.123.124-.061.187-.092.311-.031.031.031.124,0,.155-.031a.321.321,0,0,0,.062-.153c0-.092-.093-.061-.155-.061h-.031c-.249,0-.249-.031-.28-.276a.865.865,0,0,0-.28-.582c-.062-.061-.093-.031-.155,0-.031.061-.093.123-.124.184a.245.245,0,0,0,.093.276c.093.061.218.123.249.184C27.706,4.673,27.612,4.8,27.612,4.826Zm-1.928,6.189c.031-.061.093-.123.093-.184,0-.153,0-.245.187-.214l.062-.061.062-.061A.115.115,0,0,0,26,10.464h-.124c-.187,0-.218,0-.093-.184A.456.456,0,0,1,26.12,10c.218-.061.249-.092.155-.306a.137.137,0,0,1,0-.153.092.092,0,0,0,0-.123l-.062-.031a.158.158,0,0,0-.062.123.461.461,0,0,1-.311.429c-.187.092-.342.184-.5.276-.093.061-.124.123.031.184a.243.243,0,0,1,.155.245v.276A.171.171,0,0,1,25.684,11.016Zm1.213-.8h.093c.093-.031.155-.123.062-.184a.322.322,0,0,1-.031-.429.723.723,0,0,1,.5-.4c.093-.031.124-.061.062-.153l-.093-.092c-.124-.123-.124-.123-.249,0-.062.092-.124.214-.187.306a2.251,2.251,0,0,1-.28.245.092.092,0,0,0,0,.123c.093.123-.031.184-.093.245-.031.031-.124.061-.155.092s0,.123.031.123A.932.932,0,0,0,26.9,10.219ZM9.451,20.974c-.031,0-.062.031-.124.031.062.031.093.092.155.123.124.031.093.184.155.245s.124.092.155,0a.364.364,0,0,1,.4-.245h.155a.109.109,0,0,0,.062-.031c.031-.061,0-.368-.093-.368-.155-.031-.124-.153-.218-.214-.031,0-.031-.031-.062-.061,0,.031-.031.031-.031.061-.031.092-.062.214-.093.306-.031.214-.031.214-.311.153Zm9.827-2.451c.062-.031.155-.031.187-.061a.97.97,0,0,1,.4-.184c.062,0,.124-.092.124-.153,0-.123.093-.184.155-.245a.424.424,0,0,0,.093-.123V17.7c0-.031-.062-.031-.062-.031-.155.092-.4.092-.466.276a.242.242,0,0,1-.28.184,2.179,2.179,0,0,0-.4.153.086.086,0,0,0,0,.153A1.063,1.063,0,0,0,19.278,18.523Zm.5-3.8-.093-.184c-.062-.092-.062-.153.031-.245.124-.123.249-.061.373-.061.155,0,.187-.061.124-.214a.64.64,0,0,0-.124-.184.138.138,0,0,0-.249.031c-.031.061,0,.123-.031.184a.306.306,0,0,1-.031.092c-.249-.092-.28.123-.342.276,0,.031-.062.031-.093.061-.187.092-.187.123,0,.245.062.031.124.092.187.123.031.031.093,0,.124,0C19.713,14.815,19.744,14.754,19.775,14.723Zm.249,1.042h0a.112.112,0,0,1,.031.092c-.062.061-.218,0-.28-.061l-.062-.061c0,.031,0,.031-.031.061-.062.153.093.153.155.184.249.184.249.153.4-.092a.243.243,0,0,0,.031-.245c-.062-.123-.031-.276-.093-.368a.273.273,0,0,1,0-.337c.031-.031.031-.092,0-.092a.236.236,0,0,0-.155-.031c-.031,0-.062.061-.093.092-.031.153.062.276.062.4a2.04,2.04,0,0,1-.062.429C19.993,15.734,19.993,15.765,20.024,15.765Zm9.267-9.407c-.031.031-.093.061-.093.123,0,.092-.031.214.062.306a.325.325,0,0,1,.062.184c-.031.276-.031.276.187.368.124.061.249.031.28-.092s-.062-.153-.124-.214A.115.115,0,0,0,29.572,7c-.155-.123-.155-.153-.093-.368.031-.031.062-.123.031-.153A1.792,1.792,0,0,1,29.292,6.358ZM26.8,7.216l-.062.061c-.093.123-.187.214-.28.337a.233.233,0,0,0,.031.306l.155.153.124.123c0-.061.031-.123.031-.184,0-.184-.031-.368.124-.521a.092.092,0,0,0,0-.123C26.9,7.308,26.835,7.278,26.8,7.216ZM11.845,24.007c.093-.031.155,0,.187-.031a.431.431,0,0,1,.4-.123c.062,0,.155.031.155-.092,0-.092-.031-.153-.124-.123a.5.5,0,0,1-.4-.123.138.138,0,0,0-.218.092.248.248,0,0,1-.124.245c-.062.061,0,.092.031.092C11.783,23.977,11.814,23.977,11.845,24.007Zm5.878-7.354c-.249,0-.373.092-.311.276,0,.061.062.092.093.153a.391.391,0,0,1,.155.214.132.132,0,0,0,.218.092c.093-.061.093-.184.062-.337-.031-.123-.155-.184-.124-.337A.448.448,0,0,0,17.723,16.653Zm9.765-8.61h-.311a.265.265,0,0,0-.155.092c-.062.061-.062.123.031.123a.337.337,0,0,1,.342.245c0,.031.062.061.062.061a.066.066,0,0,0,.062-.061c0-.184.062-.245.249-.245.093,0,.062-.092.062-.153a.139.139,0,0,0-.093-.092A.615.615,0,0,1,27.488,8.044ZM8.922,20.422a.463.463,0,0,0-.5-.46c-.187,0-.187.123-.249.214-.031.092-.218.123-.093.245.093.061.155-.061.218-.123.187-.184.28-.153.373.123a.307.307,0,0,0,.124.153.189.189,0,0,0,.124-.031C8.953,20.514,8.922,20.453,8.922,20.422Zm1.8,1.164h0a.9.9,0,0,0-.062-.306c-.031-.092-.124-.092-.155,0a.544.544,0,0,1-.311.276.651.651,0,0,0-.187.123c-.031,0-.031.031-.062.061.031,0,.031.031.062.031a1.3,1.3,0,0,1,.591.061c.062.031.124,0,.124-.092C10.726,21.678,10.726,21.648,10.726,21.587ZM17.91,15.4H18.1a.066.066,0,0,0,.062-.061,1.218,1.218,0,0,0,0-.337.2.2,0,0,0-.311-.092.721.721,0,0,0-.218.214c-.062.092,0,.276.124.276ZM6.4,17.573c-.031,0-.124,0-.124.031a.331.331,0,0,0,0,.245.486.486,0,0,0,.218.214.191.191,0,0,0,.311-.123C6.838,17.726,6.683,17.573,6.4,17.573Zm15.736-1.93c.187,0,.311,0,.187-.153,0-.031.031-.061.031-.092,0-.092.031-.184-.124-.214-.062,0-.249-.031-.187-.214a.066.066,0,0,0-.062-.061c-.031.031-.093.061-.093.092a3.779,3.779,0,0,0,.093.582A.53.53,0,0,1,22.139,15.642ZM15.67,22.016a.182.182,0,0,0-.124-.245c-.124-.061-.218.031-.28.123a.233.233,0,0,0-.031.306c.031.123.155.123.28.092C15.639,22.291,15.67,22.2,15.67,22.016ZM24.782,6.879A.231.231,0,0,0,24.72,7a1.913,1.913,0,0,0,.435.429h.062c.062-.092.187-.123.187-.276,0-.061,0-.123-.093-.123-.155,0-.311.031-.4-.153A.152.152,0,0,1,24.782,6.879ZM21.019,13.62h.062c.093-.031.218.061.249-.061,0-.061-.093-.153-.124-.214l-.155-.153c-.062-.061-.093-.061-.155,0-.031.061-.124.092-.124.123a.45.45,0,0,0-.062.276c0,.031.124.031.187.031Zm-4.074,3.095c0-.214,0-.184-.187-.368-.031-.031-.031-.092-.062-.123a.115.115,0,0,0-.093-.031.066.066,0,0,0-.062.061.69.69,0,0,0,.124.49c.062.092.031.276.155.276C16.945,16.991,16.945,16.837,16.945,16.715Zm1.244-.98c.031.214.062.4.093.582l.093.031a2.358,2.358,0,0,0,.28-.276c.031-.031.062-.184-.062-.184-.218.031-.187-.153-.249-.245-.031-.031-.031-.031-.031-.061-.031.031-.062.031-.093.061A.306.306,0,0,1,18.189,15.734Zm-6.873,4.933c-.155,0-.4.184-.4.306a.128.128,0,0,0,.093.184.237.237,0,0,0,.124-.061,2.69,2.69,0,0,1,.311-.214c.031-.031.062-.031.124-.061a.668.668,0,0,0-.093-.153Zm-.187,2.175c0-.245-.062-.306-.28-.214-.093.061-.187.031-.28.061-.031,0-.031.061-.062.092,0,.031.031.031.031.061h.155c.124,0,.218,0,.218.184,0,.031.062.092.124.123.031-.061.093-.092.093-.153Zm0,.521c-.031.153.093.214.187.306a.337.337,0,0,0,.187.061.273.273,0,0,1,.031-.153c0-.031.031-.061.062-.092.155-.123.031-.123-.062-.153-.062-.031-.155-.092-.218-.123C11.192,23.18,11.13,23.241,11.13,23.364Zm1.026-1.134c-.031-.031-.031-.092-.062-.092a.115.115,0,0,0-.093.031,1.085,1.085,0,0,1-.622.214c-.031,0-.093.031-.093.061a.231.231,0,0,0,.062.123.239.239,0,0,0,.311,0,2.328,2.328,0,0,1,.373-.214C12.094,22.322,12.125,22.261,12.156,22.23ZM17.07,15.8c.093,0,.249-.184.249-.276,0-.061-.062-.092-.093-.153a.448.448,0,0,0-.093.061c-.062.031-.093.061-.155.061H16.7l-.031.061C16.728,15.7,16.945,15.7,17.07,15.8ZM8.3,20.882q0,.506.373.46c.031,0,.093-.031.093-.061a.306.306,0,0,0-.031-.092c-.093,0-.124-.031-.124-.153a.376.376,0,0,0-.124-.245c-.031-.031-.062-.061-.093-.061-.031.061-.062.092-.093.153C8.269,20.882,8.3,20.943,8.3,20.882Zm6.717-1.318a1.479,1.479,0,0,1,.124.337c.093.214.093.214.28.061.093-.061.062-.123,0-.184a1.992,1.992,0,0,0-.249-.276c-.031-.031-.062-.061-.093-.031C15.08,19.442,15.048,19.5,15.017,19.564Zm6.251-4.014h.093a.316.316,0,0,0,.093-.031.182.182,0,0,0-.031-.123c-.093-.123-.249-.184-.187-.4,0-.061-.062-.092-.124-.061a.26.26,0,0,0-.093.276.513.513,0,0,1,.062.153C21.05,15.55,21.144,15.581,21.268,15.55Zm-8.334,5.24a.681.681,0,0,0,.031.214c0,.031.093.123.124.092a.848.848,0,0,0,.155-.123.9.9,0,0,1-.062-.49c0-.031-.062-.061-.124-.061a.237.237,0,0,0-.124.061C12.9,20.575,12.934,20.637,12.934,20.79Zm12.1-14.125c.187.031.28-.031.311-.123.031-.123-.093-.061-.155-.123-.031-.061-.062-.092-.093-.153-.062-.092-.093-.153-.155-.245a.109.109,0,0,0-.062-.031.107.107,0,0,1-.031.061.713.713,0,0,1,.062.245V6.6ZM18.718,15.55c.187,0,.28-.061.28-.245,0-.123-.062-.245-.155-.245s-.249.184-.249.306V15.4C18.563,15.52,18.594,15.581,18.718,15.55Zm3.2-2.513c-.062-.092-.093-.153-.155-.184-.031-.031-.093.031-.155.061l-.093.092a.836.836,0,0,0-.031.276c.093,0,.218.031.28-.031C21.859,13.252,21.859,13.13,21.921,13.038Zm-.249-2.267a.822.822,0,0,0-.187-.153.189.189,0,0,1-.187-.092c-.031-.031-.062-.092-.093-.123a.273.273,0,0,1-.031.153.431.431,0,0,1-.062.184c-.031.123.093.276.155.214.093-.092.218-.061.311-.061A.424.424,0,0,1,21.672,10.771ZM10.446,20.208c-.031,0-.093.061-.187.123.093.061.155.153.249.214.031.031.062,0,.124,0,.093,0,.218-.031.218-.092,0-.092-.124-.153-.218-.214C10.632,20.177,10.57,20.208,10.446,20.208ZM20.8,11.077a1.328,1.328,0,0,0-.124.214c-.062.123,0,.245.124.245a.226.226,0,0,0,.218-.184.27.27,0,0,0-.124-.306C20.895,11.077,20.864,11.077,20.8,11.077Zm3.234-.858a1.863,1.863,0,0,1-.249-.245.118.118,0,0,0-.187,0,.682.682,0,0,1-.155.092c-.031,0-.031.031-.062.061.031,0,.062.031.093.031a3.256,3.256,0,0,0,.311.123.4.4,0,0,0,.187.031A.109.109,0,0,1,24.036,10.219ZM14.24,24.8s.062-.092-.062-.092c-.031,0-.062.092-.093.123a2.651,2.651,0,0,0-.218.306.231.231,0,0,0,.062.123c0,.031.062.061.062.061C14.115,25.171,14.333,25.08,14.24,24.8Zm-1.4-2.237v.061c0,.031.031.123.062.123.062,0,.155.061.187-.061.031-.092.124-.153.187-.214,0-.031.031-.031.062-.061a.238.238,0,0,0-.124-.031h-.187C12.84,22.383,12.84,22.383,12.84,22.567Zm4.416-2.758c0-.214-.062-.306-.187-.306s-.187.092-.187.214c0,.092.187.184.311.184C17.194,19.871,17.225,19.809,17.256,19.809ZM9.3,20.575H9.077c-.031,0-.062.061-.062.123,0,.031.031.123.062.123h.435c.031,0,.062-.061.062-.123a.231.231,0,0,0-.062-.123ZM24.44,8.687a.34.34,0,0,0,.342-.276c0-.123-.062-.153-.155-.184s-.062.061-.093.123a1.072,1.072,0,0,1-.155.245S24.44,8.656,24.44,8.687Zm-9.174,9.131c-.187,0-.311.092-.28.184a.246.246,0,0,0,.249.153.284.284,0,0,0,.155-.031c.031-.031.093-.061.093-.123a.231.231,0,0,0-.062-.123A.317.317,0,0,0,15.266,17.818Zm3.234.368v-.123a.335.335,0,0,0-.249-.245H18.22a.275.275,0,0,0,0,.306c.031.061.062.092.093.153a.065.065,0,0,0,.124,0A.44.44,0,0,0,18.5,18.185Zm-4.945,5.025a.107.107,0,0,0-.031-.061.858.858,0,0,0-.28,0c-.062.031-.155.092-.155.153a.2.2,0,0,0,.124.153C13.338,23.486,13.556,23.333,13.556,23.211Zm1-2.911c-.155-.092-.062-.306-.218-.4a.1.1,0,0,0-.124,0,.407.407,0,0,0-.093.153,2.79,2.79,0,0,0,.311.276C14.426,20.361,14.458,20.33,14.551,20.3Zm3.328-2.39q0-.322-.28-.184c-.124.061-.124.123,0,.214.031.031.093.061.093.123.062.092.093.031.124,0A.513.513,0,0,0,17.878,17.91Zm1.244-1.042h0c-.031-.031-.062-.061-.093-.061-.062,0-.187-.061-.187.061,0,.184-.093.184-.218.184a.306.306,0,0,0-.031.092l.062.061A.6.6,0,0,0,19.122,16.868Zm-4.54,3.677v.184c0,.092.062.092.124.092.031,0,.093-.031.093-.061a.821.821,0,0,0,0-.276.206.206,0,0,0-.155-.123c-.093,0-.062.092-.062.153ZM7.8,19.963h-.28c-.031,0-.062.031-.093.061a.112.112,0,0,0,.031.092c.062.123.218.092.311.061s.124-.123.187-.184A1.365,1.365,0,0,1,7.8,19.963ZM24.285,7.278h.124c.062,0,.155.031.124-.061,0-.061-.062-.123-.093-.153a.535.535,0,0,0-.311,0c-.031,0-.062.061-.062.123a.231.231,0,0,0,.062.123A1.365,1.365,0,0,0,24.285,7.278ZM9.015,21.464v.123c.031.061.093.153.155.153a.277.277,0,0,0,.218-.031l-.155-.153a.765.765,0,0,1-.124-.214c0-.031-.031-.031-.062-.061,0,.031-.031.031-.031.061C8.984,21.372,9.015,21.433,9.015,21.464ZM21.89,11.23c.218,0,.28-.031.311-.184,0-.031-.031-.092-.031-.123a.155.155,0,0,0-.093.031c-.062.031-.124.031-.155.061a.073.073,0,0,0-.062.123C21.828,11.169,21.859,11.2,21.89,11.23Zm-3.95,5.117v-.153c-.031-.061-.062-.092-.093-.153-.031.031-.124.092-.124.123,0,.123-.031.214.062.306.031.031.031.061.062.092l.093-.092Zm6.469-6.772a1.316,1.316,0,0,0,.218-.153A.424.424,0,0,0,24.72,9.3c-.062-.031-.093-.092-.155-.092a.174.174,0,0,0-.218.184C24.316,9.453,24.378,9.514,24.409,9.576Zm-14.15,8.763c.093-.061.218-.092.311-.153.031-.031.093-.061.093-.092a.307.307,0,0,0-.124-.153.237.237,0,0,0-.124.061l-.187.276v.061Zm4.012,2.727h-.093c-.093,0-.218,0-.28.092a.094.094,0,0,0,.031.061c.093.123.155.061.249,0h.031c.124.031.155-.061.218-.123A.552.552,0,0,0,14.271,21.066ZM5.75,15.949h.124c.062,0,.124.031.155-.061,0-.061,0-.123-.031-.123a.2.2,0,0,0-.187,0c-.062.031-.155.092-.218.123-.031,0-.031.031-.062.061.031,0,.031.031.062.031A.343.343,0,0,1,5.75,15.949Zm7.9,8.518s-.031-.061-.062-.061c-.093-.031-.28.061-.249.153a.67.67,0,0,0,.124.153C13.525,24.712,13.618,24.62,13.649,24.467Zm-2.239-5.73c.093-.031.28-.214.249-.306-.031-.031-.062-.092-.124-.092-.031,0-.062.031-.093.061a.57.57,0,0,0-.062.245C11.348,18.676,11.41,18.706,11.41,18.737ZM9.948,16.96v-.184c0-.031-.031-.031-.031-.061l-.062.061c-.124.092-.062.245-.062.368,0,.031.062.061.062.061a.066.066,0,0,0,.062-.061A.384.384,0,0,0,9.948,16.96ZM23.725,8.993c-.062.092-.155.153-.155.245,0,.031.093.092.187.123.031,0,.093-.061.155-.061A1.336,1.336,0,0,1,23.725,8.993Zm-7.681,7.813h-.031c-.062.031-.093.031-.155.061.062.031.093.092.155.092.062.031.124,0,.187,0,.031,0,.062-.031.093-.061-.031-.031-.062-.092-.124-.092C16.137,16.776,16.075,16.807,16.044,16.807ZM25.5,7.584c-.062.031-.124.031-.155.061s.093.184.155.184c.062-.031.093-.123.155-.184C25.591,7.615,25.56,7.615,25.5,7.584ZM4.1,16.807c.093-.061.187-.153.28-.214,0,0,0-.061-.031-.061a.316.316,0,0,1-.093-.031l-.187.184v.061C4.071,16.776,4.071,16.776,4.1,16.807Zm11.755,4.259a.53.53,0,0,0-.155.061s-.031.061,0,.061c.062.031.124.092.155.061a.307.307,0,0,0,.124-.153.107.107,0,0,1-.031-.061A.137.137,0,0,1,15.857,21.066ZM26.835,6.849c0,.031.031.092.062.092.062.031.124-.031.187-.031-.031-.061-.062-.092-.093-.153L26.9,6.665a.1.1,0,0,1-.062-.031c0,.031-.031.031-.031.061A.273.273,0,0,1,26.835,6.849ZM12.623,24.589v-.031c-.031-.061-.031-.092-.062-.153-.031.061-.093.092-.093.153-.031.061,0,.123,0,.184,0,.031.062.031.093.031a.109.109,0,0,0,.062-.031Zm1.337-.276a.794.794,0,0,0-.093-.245c-.031-.031-.062-.061-.093-.061h-.124c.031.031.031.061.062.123s.093.153.124.214c0,.031.031.031.062.031ZM9.077,19.84c0,.031.031.061.031.123.031-.031.062-.061.093-.061.031-.031.093-.061.093-.123,0-.031,0-.123-.031-.123a.4.4,0,0,0-.187.031C9.077,19.718,9.077,19.779,9.077,19.84Zm11.818-3.432c.031-.061.093-.123.093-.153s-.031-.092-.062-.092a.4.4,0,0,0-.187-.031c-.031,0-.062.061-.062.061A1.394,1.394,0,0,1,20.895,16.408Zm-7.028,3.462-.187-.184-.062.061a.162.162,0,0,0,.124.214H13.8C13.867,19.932,13.867,19.932,13.867,19.871Zm-2.457-.061a1.171,1.171,0,0,1,.155-.184c-.062-.031-.093-.092-.155-.092-.093,0-.062.092-.062.123S11.379,19.718,11.41,19.809Zm10.325-8.334c-.031-.061-.031-.123-.062-.184a.67.67,0,0,1-.124.153c0,.031.062.092.124.123C21.7,11.567,21.7,11.537,21.735,11.475Zm1.648,3c-.093.092-.155.153-.155.214,0,.031.062.061.093.092.031-.061.093-.123.124-.184Zm-16.513.827-.124-.123c-.031.061-.093.123-.124.184l.062.061A1.844,1.844,0,0,0,6.869,15.305Zm11.6,1.409-.093-.092a.651.651,0,0,0-.187.123l.093.092C18.345,16.837,18.407,16.776,18.469,16.715Zm-9.05.031a1.014,1.014,0,0,0-.093-.184c-.031.031-.093.061-.093.092,0,.061-.031.123.062.153C9.326,16.807,9.357,16.776,9.42,16.745ZM28.359,2.773a.1.1,0,0,0,.062-.031c.031-.061-.031-.245-.093-.245a.1.1,0,0,0-.062.031C28.2,2.59,28.3,2.773,28.359,2.773ZM24.782,10.1c-.062.061-.093.123-.155.153.031,0,.062.031.093.031.062,0,.124,0,.124-.092A.379.379,0,0,1,24.782,10.1Zm.311-2.482A.424.424,0,0,1,25,7.737a.329.329,0,0,0,.031.153c.031-.061.093-.092.124-.153C25.187,7.737,25.156,7.676,25.093,7.615Zm.5,3.83a.424.424,0,0,0-.093-.123c-.031.061-.062.092-.093.153a.44.44,0,0,0,.062.092C25.5,11.506,25.56,11.475,25.591,11.445Zm-.466.827c.031,0,.062-.031.093-.031,0-.061.031-.123.031-.184,0-.031-.031-.031-.031-.061-.031.061-.093.123-.124.184C25.093,12.211,25.124,12.241,25.124,12.272Zm-2.892.7a.59.59,0,0,0-.031.214c0,.031.031.031.031.061.031-.061.093-.123.124-.184C22.357,13.038,22.294,13.007,22.232,12.977Zm-8.77,10.969c.031-.061.093-.092.093-.123a.329.329,0,0,0-.031-.153c-.031.061-.093.092-.124.153C13.4,23.854,13.431,23.885,13.462,23.946ZM23.383,9.453c0-.031,0-.061-.031-.061h-.093l-.031.031v.153a.109.109,0,0,0,.062.031A.168.168,0,0,1,23.383,9.453Zm3.2-1.042c-.031.061-.062.092-.062.123.031.061.093.092.124.153,0-.061.031-.092.031-.153A.424.424,0,0,0,26.586,8.411ZM11.534,19.2c.062-.031.093-.092.124-.123l-.093-.092c-.031.061-.031.092-.062.153A.107.107,0,0,1,11.534,19.2Zm7.153.643c.031-.031.093-.031.124-.061-.031-.031-.062-.092-.093-.092-.062,0-.093.061-.124.092C18.625,19.779,18.656,19.809,18.687,19.84Zm-11.258-4.5c.062-.031.124-.031.155-.061-.031-.031-.062-.092-.093-.092s-.062.031-.093.092C7.367,15.275,7.4,15.305,7.429,15.336Zm9.641,2.053.093-.092q0-.046-.093-.092s-.062.031-.062.061Zm4.54-2.911a.107.107,0,0,1,.031-.061c0-.061-.031-.092-.031-.153-.031.031-.093.061-.093.092C21.486,14.386,21.548,14.417,21.61,14.478ZM21.393,16.1c-.031.031-.093.031-.124.061.031.031.062.092.093.092.062,0,.093-.061.124-.092C21.455,16.133,21.424,16.1,21.393,16.1Zm-6.531,2.85c-.062-.031-.093-.061-.124-.061l-.093.092.062.061C14.769,19.043,14.8,18.982,14.862,18.952Zm12.875-13.6a.429.429,0,0,1-.124-.092.066.066,0,0,0-.062.061l.093.092C27.643,5.439,27.675,5.408,27.737,5.347ZM8.082,15.55a.15.15,0,0,0-.031.092c.031.061.093.092.124.153a.107.107,0,0,1,.031-.061A.64.64,0,0,0,8.082,15.55ZM27.954,3.325h.155a.107.107,0,0,0,.031-.061h-.28c0,.031,0,.031.031.061A.044.044,0,0,0,27.954,3.325ZM26.368,10.74c.031-.061.062-.092.062-.123l-.093-.092-.062.061C26.275,10.648,26.337,10.679,26.368,10.74Zm-3.918-.184c-.062,0-.124-.031-.155,0-.031,0-.062.031-.093.031.031.031.062.061.093.061h.062C22.388,10.617,22.388,10.587,22.45,10.556Zm-3.2,6.588a1.31,1.31,0,0,0,.187-.061c-.031-.031-.031-.061-.062-.061a.284.284,0,0,0-.155.031A.112.112,0,0,1,19.247,17.144ZM6.03,17.2C6,17.144,6,17.144,6,17.113c-.031.031-.093.061-.124.092.031,0,.031.031.062.031C5.968,17.266,6,17.236,6.03,17.2Zm14.554-2.053a.429.429,0,0,1,.124-.092.316.316,0,0,1-.093-.031c-.031.031-.031.061-.062.123ZM5.19,16.653c0-.031.031-.061.031-.123,0-.031-.031-.031-.031-.061-.031.061-.062.092-.093.153A.243.243,0,0,1,5.19,16.653Zm12.222,4.964c-.031-.031-.031-.061-.062-.092,0,.031-.031.061-.031.092s.031.061.062.092A.133.133,0,0,0,17.412,21.617Zm-.218-.827a.229.229,0,0,1-.031-.123c-.031.031-.031.061-.062.092a.112.112,0,0,0,.031.092Zm-.715-1.409a.429.429,0,0,0-.124-.092l-.062.061c.031.031.062.061.093.061C16.417,19.442,16.448,19.411,16.479,19.38ZM5.657,17.358c.031-.031.093-.031.124-.061-.031,0-.062-.031-.093-.031s-.093.031-.124.031C5.563,17.328,5.594,17.328,5.657,17.358Zm10.418.061a.112.112,0,0,1-.031-.092c0,.031-.031.061-.031.092s.031.031.031.061A.107.107,0,0,1,16.075,17.419Zm6.873-4.014a.243.243,0,0,1,.093-.031l-.062-.061c-.031,0-.031,0-.062.031A.107.107,0,0,0,22.948,13.406Zm.218.245a.243.243,0,0,1,.093-.031l-.062-.061c-.031,0-.031,0-.062.031C23.165,13.589,23.165,13.62,23.165,13.651Zm1.368.031a.094.094,0,0,1-.031-.061.115.115,0,0,0-.093.031.107.107,0,0,0,.031.061C24.471,13.712,24.5,13.681,24.534,13.681Zm-7.37,6.68a.1.1,0,0,1-.062.031.112.112,0,0,0,.031.092.109.109,0,0,0,.062-.031A.112.112,0,0,1,17.163,20.361ZM9.917,22.383a.1.1,0,0,1-.062.031.112.112,0,0,0,.031.092.109.109,0,0,0,.062-.031A.112.112,0,0,0,9.917,22.383Zm17.446-14.8V7.523H27.27v.061ZM6.558,15.428H6.434a.107.107,0,0,0-.031.061c.031,0,.062.031.093.031C6.527,15.489,6.558,15.459,6.558,15.428Zm19.81-9.56c-.031,0-.062.031-.093.031.031,0,.031.031.062.031s.062-.031.093-.031C26.4,5.929,26.4,5.9,26.368,5.868Zm.684-.368a.1.1,0,0,1-.062.031.112.112,0,0,0,.031.092.109.109,0,0,0,.062-.031C27.053,5.592,27.053,5.562,27.053,5.5Zm-20,10.081c0-.031-.031-.061-.031-.092,0,.031-.031.031-.031.061s.031.061.031.092C7.025,15.612,7.025,15.612,7.056,15.581Zm.809.061a.243.243,0,0,1,.093-.031L7.9,15.55c-.031,0-.031,0-.062.031A.107.107,0,0,0,7.865,15.642ZM26.617,5.378a.243.243,0,0,1,.093-.031l-.062-.061c-.031,0-.031,0-.062.031C26.617,5.317,26.617,5.347,26.617,5.378ZM25.5,5.071a.235.235,0,0,1-.031-.092l-.062.061c0,.031,0,.031.031.061A.109.109,0,0,0,25.5,5.071Zm-7.37,10.908a.109.109,0,0,0-.062-.031c0,.031-.031.031-.031.061s.031.031.062.061A.234.234,0,0,1,18.127,15.979ZM9.513,18.339a.107.107,0,0,0-.031.061c.031,0,.031.031.062.031s.031-.031.062-.061A.243.243,0,0,1,9.513,18.339Zm-.124.061a.094.094,0,0,1-.031-.061.115.115,0,0,0-.093.031.107.107,0,0,0,.031.061C9.326,18.431,9.357,18.4,9.388,18.4Zm1.586-.368a.094.094,0,0,1-.031-.061c0,.031-.031.061-.031.092s.031.031.031.061A.112.112,0,0,1,10.974,18.032Zm4.385-.613a.094.094,0,0,1-.031-.061c0,.031-.031.061-.031.092s.031.031.031.061A.133.133,0,0,1,15.359,17.419Z" transform="translate(-2.974 -1.348)" fill="#40bcd0"/>
    </g>
    <g id="Group_36" data-name="Group 36" transform="translate(1.366 7.854)">
      <path id="Path_112" data-name="Path 112" d="M28.981,67.5V66.314a1.293,1.293,0,0,0-.034-.509V65.67c0-.068.034-.136.034-.237V60.208a.87.87,0,0,0-.644-.746.733.733,0,0,0-.916.441c0,.034-.034.068-.034.1a.167.167,0,0,0-.034.1,1.6,1.6,0,0,0-.339.339c-.034.068-.1.1-.136.17a1.469,1.469,0,0,0-.509,1.153v6.309a1.937,1.937,0,0,1-.305,1.085,2.053,2.053,0,0,1-.441.475,1.692,1.692,0,0,1-.712.17H16.634a1,1,0,0,0-.441.068h0a.394.394,0,0,0-.339,0,.925.925,0,0,0-.509-.068H11c-.1,0-.17-.034-.305-.034l-.068-.034A1.5,1.5,0,0,1,9.612,68.35a11.973,11.973,0,0,0,0-1.56v-2a.741.741,0,0,0-.17-.475c-.305-.305-.712-.678-1.153-1.085a1.016,1.016,0,0,0-.611-.2C7.305,62.99,7,63.329,7,63.8v4.851a3.878,3.878,0,0,0,.237,1.085A4.228,4.228,0,0,0,8.8,71.708a3.5,3.5,0,0,0,2,.644H25.215a1.361,1.361,0,0,0,.509-.1,3.377,3.377,0,0,0,1.8-.814,4.107,4.107,0,0,0,1.187-1.628,1.738,1.738,0,0,0,.2-.746,3.383,3.383,0,0,1,.068-.543A10.175,10.175,0,0,0,28.981,67.5Z" transform="translate(-7 -50.304)" fill="#383838"/>
      <path id="Path_113" data-name="Path 113" d="M24.148,34.942a.794.794,0,0,0,.577.237H28.49a.564.564,0,0,0,.475-.2c.1-.1.2-.237.305-.339.136-.17.271-.305.407-.475a.8.8,0,0,0,.17-.339c0-.034.034-.068.034-.1a.739.739,0,0,0,.068-.644.883.883,0,0,0-.509-.475,1.361,1.361,0,0,0-.509-.1H23.945a1.536,1.536,0,0,0-.543.1.89.89,0,0,0-.543.611.7.7,0,0,0,.237.712C23.4,34.264,23.741,34.569,24.148,34.942Z" transform="translate(-17.466 -32.5)" fill="#383838"/>
    </g>
  </g>
</svg>
