<?xml version="1.0" encoding="utf-8"?><svg version="1.1" xmlns="http://www.w3.org/2000/svg" xmlns:xlink="http://www.w3.org/1999/xlink" x="0px" y="0px" viewBox="0 0 30 30" style="enable-background:new 0 0 30 30;" xml:space="preserve">
<style type="text/css">.cyan-fill{fill-rule:evenodd;clip-rule:evenodd;fill:#40BCD0;}</style><path class="cyan-fill" d="M18.1,4.1c-0.9,0-1.6-0.7-1.6-1.6s0.7-1.6,1.6-1.6h9.3C28.3,1,29,1.7,29,2.6v9.3c0,0.9-0.7,1.6-1.6,1.6 s-1.6-0.7-1.6-1.6V6.3L13,19.2c-0.6,0.6-1.6,0.6-2.2,0c-0.6-0.6-0.6-1.6,0-2.2L23.7,4.1H18.1z M5.7,7.2c-0.9,0-1.6,0.7-1.6,1.6v15.6 c0,0.9,0.7,1.6,1.6,1.6h15.6c0.9,0,1.6-0.7,1.6-1.6v-6.2c0-0.9,0.7-1.6,1.6-1.6s1.6,0.7,1.6,1.6v6.2c0,2.6-2.1,4.7-4.7,4.7H5.7 C3.1,29,1,26.9,1,24.3V8.8c0-2.6,2.1-4.7,4.7-4.7h6.2c0.9,0,1.6,0.7,1.6,1.6s-0.7,1.6-1.6,1.6H5.7V7.2z"/></svg>
